<?xml version="1.0" encoding="UTF-8" standalone="no"?>
<!-- Created with Inkscape (http://www.inkscape.org/) -->

<svg
   xmlns:dc="http://purl.org/dc/elements/1.1/"
   xmlns:cc="http://creativecommons.org/ns#"
   xmlns:rdf="http://www.w3.org/1999/02/22-rdf-syntax-ns#"
   xmlns:svg="http://www.w3.org/2000/svg"
   xmlns="http://www.w3.org/2000/svg"
   xmlns:xlink="http://www.w3.org/1999/xlink"
   xmlns:sodipodi="http://sodipodi.sourceforge.net/DTD/sodipodi-0.dtd"
   xmlns:inkscape="http://www.inkscape.org/namespaces/inkscape"
   width="1000"
   height="800"
   id="svg2"
   version="1.1"
   inkscape:version="0.48.0 r9654"
   sodipodi:docname="layout5.svg"
   inkscape:export-filename="/home/jj/projects/qualityquizquestions/layout4.png"
   inkscape:export-xdpi="90"
   inkscape:export-ydpi="90">
  <defs
     id="defs4">
    <linearGradient
       id="linearGradient3993">
      <stop
         style="stop-color:#725fff;stop-opacity:1;"
         offset="0"
         id="stop3995" />
      <stop
         style="stop-color:#f2f1ff;stop-opacity:1;"
         offset="1"
         id="stop3997" />
    </linearGradient>
    <linearGradient
       id="linearGradient6912">
      <stop
         id="stop6914"
         offset="0"
         style="stop-color:#190069;stop-opacity:1;" />
      <stop
         style="stop-color:#ffffff;stop-opacity:1;"
         offset="0.69259959"
         id="stop6916" />
      <stop
         id="stop6918"
         offset="1"
         style="stop-color:#9181c4;stop-opacity:1;" />
    </linearGradient>
    <linearGradient
       id="linearGradient5853">
      <stop
         style="stop-color:#ffffff;stop-opacity:1"
         offset="0"
         id="stop5855" />
      <stop
         style="stop-color:#ffffff;stop-opacity:0;"
         offset="1"
         id="stop5857" />
    </linearGradient>
    <linearGradient
       id="linearGradient5786">
      <stop
         style="stop-color:#ccbeff;stop-opacity:1"
         offset="0"
         id="stop5788" />
      <stop
         style="stop-color:#ffffff;stop-opacity:0;"
         offset="1"
         id="stop5790" />
    </linearGradient>
    <linearGradient
       id="linearGradient5731">
      <stop
         style="stop-color:#460069;stop-opacity:1;"
         offset="0"
         id="stop5733" />
      <stop
         id="stop5739"
         offset="0.69259959"
         style="stop-color:#ffffff;stop-opacity:1;" />
      <stop
         style="stop-color:#af81c4;stop-opacity:1;"
         offset="1"
         id="stop5735" />
    </linearGradient>
    <linearGradient
       id="linearGradient4942">
      <stop
         style="stop-color:#b7c900;stop-opacity:1;"
         offset="0"
         id="stop4944" />
      <stop
         style="stop-color:#d70090;stop-opacity:1;"
         offset="1"
         id="stop4946" />
    </linearGradient>
    <filter
       id="filter5228"
       inkscape:label="Cracked Lava"
       inkscape:menu="Materials"
       inkscape:menu-tooltip="A volcanic texture, a little like leather"
       color-interpolation-filters="sRGB">
      <feGaussianBlur
         id="feGaussianBlur5230"
         result="result0"
         in="SourceGraphic"
         stdDeviation="0.5" />
      <feTurbulence
         id="feTurbulence5232"
         baseFrequency="0.042"
         seed="488"
         numOctaves="7"
         result="result1" />
      <feDisplacementMap
         id="feDisplacementMap5234"
         in2="result1"
         result="result5"
         xChannelSelector="R"
         scale="0"
         in="result1"
         yChannelSelector="G" />
      <feComposite
         id="feComposite5236"
         in2="result5"
         result="result2"
         operator="in"
         in="result0" />
      <feSpecularLighting
         id="feSpecularLighting5238"
         lighting-color="#ffe688"
         surfaceScale="2"
         result="result4"
         specularConstant="2"
         specularExponent="65"
         in="result2">
        <feDistantLight
           id="feDistantLight5240"
           elevation="62"
           azimuth="225" />
      </feSpecularLighting>
      <feComposite
         id="feComposite5242"
         in2="result2"
         k1="2.5"
         k3="1"
         k2="-0.5"
         in="result4"
         operator="arithmetic"
         result="result91"
         k4="0" />
      <feBlend
         id="feBlend5244"
         in2="result91"
         result="fbSourceGraphic"
         mode="multiply" />
      <feColorMatrix
         id="feColorMatrix5246"
         values="1 0 0 -1 0 1 0 1 -1 0 1 0 0 -1 0 -2 -0.5 0 5 -2"
         in="fbSourceGraphic"
         result="fbSourceGraphicAlpha" />
      <feGaussianBlur
         id="feGaussianBlur5248"
         stdDeviation="8"
         in="fbSourceGraphicAlpha"
         result="result0" />
      <feOffset
         id="feOffset5250"
         dx="2"
         dy="2"
         in="result0"
         result="result3" />
      <feSpecularLighting
         id="feSpecularLighting5252"
         in="result0"
         result="result1"
         lighting-color="#ffffff"
         surfaceScale="4"
         specularConstant="0.80000001"
         specularExponent="15">
        <fePointLight
           id="fePointLight5254"
           x="-5000"
           y="-10000"
           z="20000" />
      </feSpecularLighting>
      <feComposite
         id="feComposite5256"
         in2="fbSourceGraphicAlpha"
         in="result1"
         result="result2"
         operator="in" />
      <feComposite
         id="feComposite5258"
         in2="result2"
         in="fbSourceGraphic"
         result="result4"
         operator="arithmetic"
         k2="2"
         k3="2"
         k1="0"
         k4="0" />
      <feBlend
         id="feBlend5260"
         in2="result4"
         mode="darken" />
    </filter>
    <filter
       id="filter5537"
       inkscape:label="Cracked Lava"
       inkscape:menu="Materials"
       inkscape:menu-tooltip="A volcanic texture, a little like leather"
       color-interpolation-filters="sRGB">
      <feGaussianBlur
         id="feGaussianBlur5539"
         result="result0"
         in="SourceGraphic"
         stdDeviation="0.5" />
      <feTurbulence
         id="feTurbulence5541"
         baseFrequency="0.042"
         seed="488"
         numOctaves="7"
         result="result1" />
      <feDisplacementMap
         id="feDisplacementMap5543"
         in2="result1"
         result="result5"
         xChannelSelector="R"
         scale="0"
         in="result1"
         yChannelSelector="G" />
      <feComposite
         id="feComposite5545"
         in2="result5"
         result="result2"
         operator="in"
         in="result0" />
      <feSpecularLighting
         id="feSpecularLighting5547"
         lighting-color="#ffe688"
         surfaceScale="2"
         result="result4"
         specularConstant="2"
         specularExponent="65"
         in="result2">
        <feDistantLight
           id="feDistantLight5549"
           elevation="62"
           azimuth="225" />
      </feSpecularLighting>
      <feComposite
         id="feComposite5551"
         in2="result2"
         k1="2.5"
         k3="1"
         k2="-0.5"
         in="result4"
         operator="arithmetic"
         result="result91"
         k4="0" />
      <feBlend
         id="feBlend5553"
         in2="result91"
         result="fbSourceGraphic"
         mode="multiply" />
      <feColorMatrix
         id="feColorMatrix5555"
         values="1 0 0 -1 0 1 0 1 -1 0 1 0 0 -1 0 -2 -0.5 0 5 -2"
         in="fbSourceGraphic"
         result="fbSourceGraphicAlpha" />
      <feGaussianBlur
         id="feGaussianBlur5557"
         stdDeviation="8"
         in="fbSourceGraphicAlpha"
         result="result0" />
      <feOffset
         id="feOffset5559"
         dx="2"
         dy="2"
         in="result0"
         result="result3" />
      <feSpecularLighting
         id="feSpecularLighting5561"
         in="result0"
         result="result1"
         lighting-color="#ffffff"
         surfaceScale="4"
         specularConstant="0.80000001"
         specularExponent="15">
        <fePointLight
           id="fePointLight5563"
           x="-5000"
           y="-10000"
           z="20000" />
      </feSpecularLighting>
      <feComposite
         id="feComposite5565"
         in2="fbSourceGraphicAlpha"
         in="result1"
         result="result2"
         operator="in" />
      <feComposite
         id="feComposite5567"
         in2="result2"
         in="fbSourceGraphic"
         result="result4"
         operator="arithmetic"
         k2="2"
         k3="2"
         k1="0"
         k4="0" />
      <feBlend
         id="feBlend5569"
         in2="result4"
         mode="darken" />
    </filter>
    <filter
       id="filter5675"
       inkscape:label="Lizard skin"
       inkscape:menu="Materials"
       inkscape:menu-tooltip="Stylized reptile skin texture"
       color-interpolation-filters="sRGB">
      <feGaussianBlur
         id="feGaussianBlur5677"
         stdDeviation="0.5"
         in="SourceGraphic"
         result="result0" />
      <feTurbulence
         id="feTurbulence5679"
         result="result1"
         numOctaves="1"
         seed="488"
         baseFrequency="0.095"
         type="turbulence" />
      <feComposite
         id="feComposite5681"
         in2="result1"
         in="result0"
         operator="in"
         result="result2" />
      <feComposite
         id="feComposite5683"
         in2="result2"
         operator="arithmetic"
         k3="1"
         k1="3"
         result="result91"
         k2="0"
         k4="0" />
      <feBlend
         id="feBlend5685"
         in2="result91"
         mode="multiply"
         result="fbSourceGraphic" />
      <feColorMatrix
         id="feColorMatrix5687"
         result="fbSourceGraphicAlpha"
         in="fbSourceGraphic"
         values="0 0 0 0 0 0 0 1 0 0 0 0 1 0 0 0 0 0 5 0" />
      <feGaussianBlur
         id="feGaussianBlur5689"
         result="result0"
         in="fbSourceGraphicAlpha"
         stdDeviation="3" />
      <feOffset
         id="feOffset5691"
         result="result3"
         in="result0"
         dy="2"
         dx="2" />
      <feSpecularLighting
         id="feSpecularLighting5693"
         specularExponent="30"
         specularConstant="1.10000002"
         surfaceScale="2"
         lighting-color="#6fecfd"
         result="result1"
         in="result0">
        <fePointLight
           id="fePointLight5695"
           z="20000"
           y="-10000"
           x="-5000" />
      </feSpecularLighting>
      <feComposite
         id="feComposite5697"
         in2="fbSourceGraphicAlpha"
         operator="in"
         result="result2"
         in="result1" />
      <feComposite
         id="feComposite5699"
         in2="result2"
         k3="1"
         k2="3"
         operator="arithmetic"
         result="result4"
         in="fbSourceGraphic"
         k1="0"
         k4="0" />
      <feBlend
         id="feBlend5701"
         in2="result4"
         mode="multiply" />
    </filter>
    <filter
       id="filter5703"
       inkscape:label="Lizard skin"
       inkscape:menu="Materials"
       inkscape:menu-tooltip="Stylized reptile skin texture"
       color-interpolation-filters="sRGB">
      <feGaussianBlur
         id="feGaussianBlur5705"
         stdDeviation="0.5"
         in="SourceGraphic"
         result="result0" />
      <feTurbulence
         id="feTurbulence5707"
         result="result1"
         numOctaves="1"
         seed="488"
         baseFrequency="0.095"
         type="turbulence" />
      <feComposite
         id="feComposite5709"
         in2="result1"
         in="result0"
         operator="in"
         result="result2" />
      <feComposite
         id="feComposite5711"
         in2="result2"
         operator="arithmetic"
         k3="1"
         k1="3"
         result="result91"
         k2="0"
         k4="0" />
      <feBlend
         id="feBlend5713"
         in2="result91"
         mode="multiply"
         result="fbSourceGraphic" />
      <feColorMatrix
         id="feColorMatrix5715"
         result="fbSourceGraphicAlpha"
         in="fbSourceGraphic"
         values="0 0 0 0 0 0 0 1 0 0 0 0 1 0 0 0 0 0 5 0" />
      <feGaussianBlur
         id="feGaussianBlur5717"
         result="result0"
         in="fbSourceGraphicAlpha"
         stdDeviation="3" />
      <feOffset
         id="feOffset5719"
         result="result3"
         in="result0"
         dy="2"
         dx="2" />
      <feSpecularLighting
         id="feSpecularLighting5721"
         specularExponent="30"
         specularConstant="1.10000002"
         surfaceScale="2"
         lighting-color="#6fecfd"
         result="result1"
         in="result0">
        <fePointLight
           id="fePointLight5723"
           z="20000"
           y="-10000"
           x="-5000" />
      </feSpecularLighting>
      <feComposite
         id="feComposite5725"
         in2="fbSourceGraphicAlpha"
         operator="in"
         result="result2"
         in="result1" />
      <feComposite
         id="feComposite5727"
         in2="result2"
         k3="1"
         k2="3"
         operator="arithmetic"
         result="result4"
         in="fbSourceGraphic"
         k1="0"
         k4="0" />
      <feBlend
         id="feBlend5729"
         in2="result4"
         mode="multiply" />
    </filter>
    <linearGradient
       inkscape:collect="always"
       xlink:href="#linearGradient5731"
       id="linearGradient5737"
       x1="144.15559"
       y1="1013.0795"
       x2="144.15559"
       y2="987.9986"
       gradientUnits="userSpaceOnUse" />
    <linearGradient
       inkscape:collect="always"
       xlink:href="#linearGradient6912"
       id="linearGradient6910"
       x1="585.26093"
       y1="-0.051509444"
       x2="585.6145"
       y2="-53.8046"
       gradientUnits="userSpaceOnUse"
       gradientTransform="matrix(1.0373263,0,0,0.99945857,-339.14926,51.983892)" />
    <filter
       id="filter6957"
       inkscape:label="Button"
       x="0"
       y="0"
       width="1"
       height="1"
       inkscape:menu="Bevels"
       inkscape:menu-tooltip="Soft bevel, slightly depressed middle"
       color-interpolation-filters="sRGB">
      <feGaussianBlur
         id="feGaussianBlur6959"
         stdDeviation="2.3"
         in="SourceAlpha"
         result="result0" />
      <feMorphology
         id="feMorphology6961"
         in="SourceAlpha"
         radius="6.6"
         result="result1" />
      <feGaussianBlur
         id="feGaussianBlur6963"
         stdDeviation="8.9"
         in="result1" />
      <feColorMatrix
         id="feColorMatrix6965"
         values="1 0 0 0 0 0 1 0 0 0 0 0 1 0 0 0 0 0 0.3 0"
         result="result91" />
      <feComposite
         id="feComposite6967"
         in2="result91"
         in="result0"
         operator="out"
         result="result2" />
      <feGaussianBlur
         id="feGaussianBlur6969"
         stdDeviation="1.7"
         result="result4" />
      <feDiffuseLighting
         id="feDiffuseLighting6971"
         surfaceScale="10"
         result="result92">
        <feDistantLight
           id="feDistantLight6973"
           azimuth="225"
           elevation="45" />
      </feDiffuseLighting>
      <feBlend
         id="feBlend6975"
         in2="SourceGraphic"
         mode="multiply"
         result="result93" />
      <feComposite
         id="feComposite6977"
         in2="SourceAlpha"
         operator="in"
         result="result3" />
      <feSpecularLighting
         id="feSpecularLighting6979"
         in="result4"
         surfaceScale="5"
         specularExponent="17.9"
         result="result94">
        <feDistantLight
           id="feDistantLight6981"
           azimuth="225"
           elevation="45" />
      </feSpecularLighting>
      <feComposite
         id="feComposite6983"
         in2="result3"
         operator="atop" />
    </filter>
    <linearGradient
       inkscape:collect="always"
       xlink:href="#linearGradient5731"
       id="linearGradient7089"
       gradientUnits="userSpaceOnUse"
       x1="144.15559"
       y1="1013.0795"
       x2="144.15559"
       y2="987.9986" />
    <linearGradient
       inkscape:collect="always"
       xlink:href="#linearGradient3993"
       id="linearGradient3999"
       x1="469"
       y1="-113.03481"
       x2="469"
       y2="240.63832"
       gradientUnits="userSpaceOnUse"
       gradientTransform="matrix(1,0,0,2.3026316,0,-130.26316)" />
    <filter
       inkscape:collect="always"
       id="filter4009">
      <feGaussianBlur
         inkscape:collect="always"
         stdDeviation="2.9325"
         id="feGaussianBlur4011" />
    </filter>
    <clipPath
       clipPathUnits="userSpaceOnUse"
       id="clipPath4296">
      <path
         id="path4298"
         d="m 26.946161,265.29002 c -1.08724,3e-5 -2.147725,0.17827 -3.181461,0.5347 -1.015943,0.33867 -2.005135,0.90902 -2.96758,1.71104 -0.944647,0.78425 -1.77343,1.76453 -2.486352,2.94084 -0.695118,1.17637 -1.256552,2.66461 -1.684302,4.46474 -0.427768,1.80018 -0.641647,3.81421 -0.641639,6.0421 -8e-6,2.54875 0.356458,4.85687 1.069398,6.92436 0.712923,2.06751 1.666469,3.75181 2.860641,5.0529 1.211972,1.30111 2.575454,2.30813 4.090449,3.02105 1.514963,0.69512 3.110148,1.04267 4.785558,1.04267 3.208171,0 5.810372,-1.31892 7.806609,-3.95678 1.99618,-2.65566 2.994285,-6.37182 2.994315,-11.14847 -3e-5,-5.54303 -1.113986,-9.69586 -3.34187,-12.4585 -2.22794,-2.7804 -5.329192,-4.17062 -9.303766,-4.17065"
         style="font-size:32px;font-style:normal;font-variant:normal;font-weight:normal;font-stretch:normal;text-align:start;line-height:125%;letter-spacing:0px;word-spacing:0px;writing-mode:lr-tb;text-anchor:start;fill:#ff0000;fill-opacity:1;stroke:none;display:inline;font-family:Linux Biolinum O;-inkscape-font-specification:Linux Biolinum O"
         inkscape:connector-curvature="0" />
    </clipPath>
    <clipPath
       clipPathUnits="userSpaceOnUse"
       id="clipPath4317">
      <path
         inkscape:connector-curvature="0"
         id="path4319"
         d="m 192.48905,265.29002 c -1.08725,3e-5 -2.14773,0.17827 -3.18147,0.5347 -1.01595,0.33867 -2.00513,0.90902 -2.96757,1.71104 -0.94467,0.78425 -1.77344,1.76453 -2.48636,2.94084 -0.69513,1.17637 -1.25656,2.66461 -1.6843,4.46474 -0.42777,1.80018 -0.64165,3.81421 -0.64164,6.0421 -1e-5,2.54875 0.35645,4.85687 1.0694,6.92436 0.71292,2.06751 1.66647,3.75181 2.86063,5.0529 1.21198,1.30111 2.57546,2.30813 4.09046,3.02105 1.51495,0.69512 3.11014,1.04267 4.78555,1.04267 3.20818,0 5.81038,-1.31892 7.80661,-3.95678 1.99618,-2.65566 2.99428,-6.37182 2.99432,-11.14847 -4e-5,-5.54303 -1.11399,-9.69586 -3.34187,-12.4585 -2.22794,-2.7804 -5.32919,-4.17062 -9.30376,-4.17065"
         style="font-size:32px;font-style:normal;font-variant:normal;font-weight:normal;font-stretch:normal;text-align:start;line-height:125%;letter-spacing:0px;word-spacing:0px;writing-mode:lr-tb;text-anchor:start;fill:#00ff00;fill-opacity:1;stroke:none;display:inline;font-family:Linux Biolinum O;-inkscape-font-specification:Linux Biolinum O" />
    </clipPath>
    <clipPath
       clipPathUnits="userSpaceOnUse"
       id="clipPath4332">
      <path
         inkscape:connector-curvature="0"
         id="path4334"
         d="m 298.1456,265.29002 c -1.08723,3e-5 -2.14772,0.17827 -3.18146,0.5347 -1.01594,0.33867 -2.00513,0.90902 -2.96759,1.71104 -0.94464,0.78425 -1.77342,1.76453 -2.48634,2.94084 -0.69512,1.17637 -1.25655,2.66461 -1.68431,4.46474 -0.42776,1.80018 -0.64164,3.81421 -0.64164,6.0421 0,2.54875 0.35646,4.85687 1.0694,6.92436 0.71294,2.06751 1.66648,3.75181 2.86065,5.0529 1.21198,1.30111 2.57545,2.30813 4.09044,3.02105 1.51497,0.69512 3.11015,1.04267 4.78557,1.04267 3.20818,0 5.81037,-1.31892 7.80661,-3.95678 1.99618,-2.65566 2.99428,-6.37182 2.99431,-11.14847 -3e-5,-5.54303 -1.11399,-9.69586 -3.34188,-12.4585 -2.22792,-2.7804 -5.32918,-4.17062 -9.30376,-4.17065"
         style="font-size:32px;font-style:normal;font-variant:normal;font-weight:normal;font-stretch:normal;text-align:start;line-height:125%;letter-spacing:0px;word-spacing:0px;writing-mode:lr-tb;text-anchor:start;fill:#0000ff;fill-opacity:1;stroke:none;display:inline;font-family:Linux Biolinum O;-inkscape-font-specification:Linux Biolinum O" />
    </clipPath>
  </defs>
  <sodipodi:namedview
     id="base"
     pagecolor="#ffffff"
     bordercolor="#666666"
     borderopacity="1.0"
     inkscape:pageopacity="0.0"
     inkscape:pageshadow="2"
     inkscape:zoom="0.5"
     inkscape:cx="378.29102"
     inkscape:cy="517.48649"
     inkscape:document-units="px"
     inkscape:current-layer="layer5"
     showgrid="false"
     inkscape:snap-global="false"
     inkscape:object-nodes="false"
     inkscape:window-width="1366"
     inkscape:window-height="717"
     inkscape:window-x="0"
     inkscape:window-y="0"
     inkscape:window-maximized="1"
     inkscape:snap-page="true"
     showguides="true"
     inkscape:guide-bbox="true"
     inkscape:object-paths="true"
     inkscape:snap-intersection-paths="true" />
  <metadata
     id="metadata7">
    <rdf:RDF>
      <cc:Work
         rdf:about="">
        <dc:format>image/svg+xml</dc:format>
        <dc:type
           rdf:resource="http://purl.org/dc/dcmitype/StillImage" />
        <dc:title></dc:title>
      </cc:Work>
    </rdf:RDF>
  </metadata>
  <g
     inkscape:groupmode="layer"
     id="layer2"
     inkscape:label="background"
     style="display:none"
     transform="translate(0,300)"
     sodipodi:insensitive="true">
    <rect
       style="fill:#ffffff;fill-opacity:1;fill-rule:evenodd;stroke:none"
       id="rect5782"
       width="1029.5475"
       height="828.76624"
       x="-9.8994951"
       y="-310.5311"
       ry="0.73528302" />
  </g>
  <g
     inkscape:groupmode="layer"
     id="layer5"
     inkscape:label="beams"
     style="display:inline">
    <path
       style="fill:#6c6984;fill-opacity:0.52112675;fill-rule:evenodd;stroke:none"
       d="M 0.125 0 C 0.055667456 0 0 0.055667456 0 0.125 L 0 799.875 C 0 799.94433 0.055667456 800 0.125 800 L 17.125 800 L 17.125 35.75 L 34.46875 15.3125 L 1000 17 L 1000 0.125 C 1000 0.055667456 999.94433 0 999.875 0 L 0.125 0 z "
       id="rect4539" />
    <path
       style="fill:#ffffff;fill-opacity:0.62441313;stroke:none"
       d="M 17.130091,35.76165 17.130091,800 1000,800 1000,17 34.46756,15.315073 z"
       id="path4369"
       inkscape:connector-curvature="0" />
  </g>
  <g
     inkscape:groupmode="layer"
     id="layer4"
     inkscape:label="lines#1"
     style="display:none">
    <rect
       style="fill:#725fff;fill-opacity:1;fill-rule:evenodd;stroke:none"
       id="rect3213"
       width="1000"
       height="101"
       x="0"
       y="0"
       ry="0.125149" />
    <rect
       ry="0.86736929"
       y="100"
       x="0"
       height="700"
       width="1000"
       id="rect3991"
       style="fill:url(#linearGradient3999);fill-opacity:1;fill-rule:evenodd;stroke:none" />
    <g
       id="g4025"
       transform="matrix(1,0,0,1.0671938,0,-7.7919293)">
      <rect
         style="opacity:0.35514018;fill:#000000;fill-opacity:1;fill-rule:evenodd;stroke:none;filter:url(#filter4009)"
         id="rect4003"
         width="703"
         height="470"
         x="20"
         y="123"
         ry="36.376686" />
      <rect
         ry="36.376686"
         y="121"
         x="18"
         height="470"
         width="703"
         id="rect4001"
         style="fill:#ffffff;fill-opacity:1;fill-rule:evenodd;stroke:none" />
    </g>
  </g>
  <g
     inkscape:groupmode="layer"
     id="layer3"
     inkscape:label="lines"
     transform="translate(0,300)"
     style="display:inline">
    <flowRoot
       xml:space="preserve"
       id="flowRoot5825"
       style="font-size:32px;font-style:normal;font-weight:normal;line-height:125%;letter-spacing:0px;word-spacing:0px;fill:#000000;fill-opacity:0.60093898;stroke:none;font-family:Sans"
       transform="matrix(0.81793551,0,0,0.81793551,279.22089,-331.50176)"><flowRegion
         id="flowRegion5827"><rect
           id="rect5829"
           width="935"
           height="123"
           x="19"
           y="119"
           style="fill:#000000;fill-opacity:0.60093898" /></flowRegion><flowPara
         id="flowPara5831"
         style="font-size:28px;font-style:normal;font-variant:normal;font-weight:bold;font-stretch:normal;fill:#000000;fill-opacity:0.60093898;font-family:Linux Biolinum O;-inkscape-font-specification:Linux Biolinum O Bold">home    about    take a quiz    download questions   participate    login</flowPara></flowRoot>    <rect
       ry="4.8240542"
       y="6.443099"
       x="193.26112"
       height="31.613811"
       width="138.47777"
       id="rect6902"
       style="opacity:0.65551399;fill:url(#linearGradient6910);fill-opacity:1;stroke:#402684;stroke-width:0.95725602;stroke-opacity:1" />
    <flowRoot
       xml:space="preserve"
       id="flowRoot5881"
       style="font-size:32px;font-style:normal;font-weight:normal;line-height:125%;letter-spacing:0px;word-spacing:0px;fill:#432626;fill-opacity:1;stroke:none;font-family:Sans"
       transform="matrix(1.0865246,0,0,1.0865246,24.887363,-270.56126)"><flowRegion
         id="flowRegion5883"><rect
           id="rect5885"
           width="626.14551"
           height="493.80453"
           x="12.727922"
           y="105.43442"
           style="fill:#432626;fill-opacity:1"
           ry="0" /></flowRegion><flowPara
         id="flowPara5887"
         style="font-size:15.43786144px;font-style:normal;font-variant:normal;font-weight:normal;font-stretch:normal;text-align:start;line-height:125%;writing-mode:lr-tb;text-anchor:start;fill:#432626;fill-opacity:1;font-family:Sans;-inkscape-font-specification:Sans">Quality Quiz Questions is a community effort to create a high quality collection of quiz questions, and share it for free under a <flowSpan
   style="font-weight:bold;-inkscape-font-specification:Sans Bold"
   id="flowSpan4021">Creative Commons</flowSpan> license.</flowPara><flowPara
         style="font-size:15.43786144px;font-style:normal;font-variant:normal;font-weight:normal;font-stretch:normal;text-align:start;line-height:125%;writing-mode:lr-tb;text-anchor:start;fill:#432626;fill-opacity:1;font-family:Sans;-inkscape-font-specification:Sans"
         id="flowPara5921" /><flowPara
         style="font-size:15.43786144px;font-style:normal;font-variant:normal;font-weight:normal;font-stretch:normal;text-align:start;line-height:125%;writing-mode:lr-tb;text-anchor:start;fill:#432626;fill-opacity:1;font-family:Sans;-inkscape-font-specification:Sans"
         id="flowPara5925">There are already <flowSpan
   style="font-weight:bold;-inkscape-font-specification:Sans Bold"
   id="flowSpan4023">1602</flowSpan> questions in our database!</flowPara><flowPara
         style="font-size:15.43786144px;font-style:normal;font-variant:normal;font-weight:normal;font-stretch:normal;text-align:start;line-height:125%;writing-mode:lr-tb;text-anchor:start;fill:#432626;fill-opacity:1;font-family:Sans;-inkscape-font-specification:Sans"
         id="flowPara5928" /><flowPara
         style="font-size:15.43786144px;font-style:normal;font-variant:normal;font-weight:normal;font-stretch:normal;text-align:start;line-height:125%;writing-mode:lr-tb;text-anchor:start;fill:#432626;fill-opacity:1;font-family:Sans;-inkscape-font-specification:Sans"
         id="flowPara5930" /><flowPara
         style="font-size:15.43786144px;font-style:normal;font-variant:normal;font-weight:normal;font-stretch:normal;text-align:start;line-height:125%;writing-mode:lr-tb;text-anchor:start;fill:#432626;fill-opacity:1;font-family:Sans;-inkscape-font-specification:Sans"
         id="flowPara5932">    How high does a kangaroo jump on average?<flowSpan
   style="font-size:15.43786144px;font-style:normal;font-variant:normal;font-weight:normal;font-stretch:normal;fill:#000000;fill-opacity:1;font-family:Sans;-inkscape-font-specification:Sans"
   id="flowSpan6900"></flowSpan></flowPara><flowPara
         style="font-size:15.43786144px;font-style:normal;font-variant:normal;font-weight:normal;font-stretch:normal;text-align:start;line-height:125%;writing-mode:lr-tb;text-anchor:start;fill:#432626;fill-opacity:1;font-family:Sans;-inkscape-font-specification:Sans"
         id="flowPara4013"><flowSpan
           style="font-size:15.43786144px;font-style:normal;font-variant:normal;font-weight:normal;font-stretch:normal;fill:#000000;fill-opacity:1;font-family:Sans;-inkscape-font-specification:Sans"
           id="flowSpan4015"></flowSpan></flowPara><flowPara
         style="font-size:15.43786144px;font-style:normal;font-variant:normal;font-weight:normal;font-stretch:normal;text-align:start;line-height:125%;writing-mode:lr-tb;text-anchor:start;fill:#432626;fill-opacity:1;font-family:Sans;-inkscape-font-specification:Sans"
         id="flowPara4017"><flowSpan
           style="font-size:15.43786144px;font-style:normal;font-variant:normal;font-weight:normal;font-stretch:normal;fill:#000000;fill-opacity:1;font-family:Sans;-inkscape-font-specification:Sans"
           id="flowSpan4019">     your answer      Start the Quiz!</flowSpan></flowPara><flowPara
         style="font-size:15.43786144px;font-style:normal;font-variant:normal;font-weight:normal;font-stretch:normal;text-align:start;line-height:125%;writing-mode:lr-tb;text-anchor:start;fill:#432626;fill-opacity:1;font-family:Sans;-inkscape-font-specification:Sans"
         id="flowPara5934" /><flowPara
         style="font-size:15.43786144px;font-style:normal;font-variant:normal;font-weight:normal;font-stretch:normal;text-align:start;line-height:125%;writing-mode:lr-tb;text-anchor:start;fill:#432626;fill-opacity:1;font-family:Sans;-inkscape-font-specification:Sans"
         id="flowPara5936" /><flowPara
         style="font-size:15.43786144px;font-style:normal;font-variant:normal;font-weight:normal;font-stretch:normal;text-align:start;line-height:125%;writing-mode:lr-tb;text-anchor:start;fill:#432626;fill-opacity:1;font-family:Sans;-inkscape-font-specification:Sans"
         id="flowPara5938">What would you like to do?</flowPara><flowPara
         style="font-size:15.43786144px;font-style:normal;font-variant:normal;font-weight:normal;font-stretch:normal;text-align:start;line-height:125%;writing-mode:lr-tb;text-anchor:start;fill:#432626;fill-opacity:1;font-family:Sans;-inkscape-font-specification:Sans"
         id="flowPara5940" /><flowPara
         style="font-size:15.43786144px;font-style:normal;font-variant:normal;font-weight:normal;font-stretch:normal;text-align:start;line-height:125%;writing-mode:lr-tb;text-anchor:start;fill:#432626;fill-opacity:1;font-family:Sans;-inkscape-font-specification:Sans"
         id="flowPara5942">         Play one of our quizzes online</flowPara><flowPara
         style="font-size:15.43786144px;font-style:normal;font-variant:normal;font-weight:normal;font-stretch:normal;text-align:start;line-height:125%;writing-mode:lr-tb;text-anchor:start;fill:#432626;fill-opacity:1;font-family:Sans;-inkscape-font-specification:Sans"
         id="flowPara5944">         (which helps improve the item statistics)</flowPara><flowPara
         style="font-size:15.43786144px;font-style:normal;font-variant:normal;font-weight:normal;font-stretch:normal;text-align:start;line-height:125%;writing-mode:lr-tb;text-anchor:start;fill:#432626;fill-opacity:1;font-family:Sans;-inkscape-font-specification:Sans"
         id="flowPara5946" /><flowPara
         style="font-size:15.43786144px;font-style:normal;font-variant:normal;font-weight:normal;font-stretch:normal;text-align:start;line-height:125%;writing-mode:lr-tb;text-anchor:start;fill:#432626;fill-opacity:1;font-family:Sans;-inkscape-font-specification:Sans"
         id="flowPara5948">         Select and download questions to create your own quiz</flowPara><flowPara
         style="font-size:15.43786144px;font-style:normal;font-variant:normal;font-weight:normal;font-stretch:normal;text-align:start;line-height:125%;writing-mode:lr-tb;text-anchor:start;fill:#432626;fill-opacity:1;font-family:Sans;-inkscape-font-specification:Sans"
         id="flowPara5950">         (or download the whole database and share it with anyone)</flowPara><flowPara
         style="font-size:15.43786144px;font-style:normal;font-variant:normal;font-weight:normal;font-stretch:normal;text-align:start;line-height:125%;writing-mode:lr-tb;text-anchor:start;fill:#432626;fill-opacity:1;font-family:Sans;-inkscape-font-specification:Sans"
         id="flowPara5954" /><flowPara
         style="font-size:15.43786144px;font-style:normal;font-variant:normal;font-weight:normal;font-stretch:normal;text-align:start;line-height:125%;writing-mode:lr-tb;text-anchor:start;fill:#432626;fill-opacity:1;font-family:Sans;-inkscape-font-specification:Sans"
         id="flowPara5952">         Submit new questions and rate others' submissions</flowPara><flowPara
         style="font-size:15.43786144px;font-style:normal;font-variant:normal;font-weight:normal;font-stretch:normal;text-align:start;line-height:125%;writing-mode:lr-tb;text-anchor:start;fill:#432626;fill-opacity:1;font-family:Sans;-inkscape-font-specification:Sans"
         id="flowPara5956">         (to help create the best and biggest collection of quiz questions)</flowPara></flowRoot>    <rect
       style="fill:none;stroke:#402684;stroke-width:0.76632392;stroke-opacity:1"
       id="rect6898"
       width="113.53426"
       height="24.711464"
       x="59.894257"
       y="9.8942719"
       ry="0.1800555" />
    <path
       style="opacity:0.68691586;fill:#634eff;fill-opacity:1;fill-rule:evenodd;stroke:none"
       d="M 42.5,113.75126 67.248737,127.25 42.5,140.74874 z"
       id="rect6954"
       inkscape:connector-curvature="0"
       sodipodi:nodetypes="cccc" />
    <use
       x="0"
       y="0"
       xlink:href="#rect6954"
       id="use6987"
       transform="translate(0,64)"
       width="1000"
       height="800" />
    <use
       x="0"
       y="0"
       xlink:href="#use6987"
       id="use6989"
       transform="translate(0,62)"
       width="1000"
       height="800" />
  </g>
  <g
     inkscape:label="logo"
     inkscape:groupmode="layer"
     id="layer1"
     transform="translate(0,-252.36218)"
     style="display:inline">
    <g
       id="g4618"
       transform="translate(9.476659,-2)">
      <path
         inkscape:connector-curvature="0"
         id="path4255"
         d="m 68.968397,299.39359 c -1.443746,1.5328 -2.753757,2.59329 -3.930039,3.18146 -1.176391,0.57034 -2.388376,0.85551 -3.635955,0.85551 -1.301151,0 -2.424018,-0.20496 -3.368605,-0.6149 -0.944682,-0.40993 -1.675437,-0.97137 -2.192267,-1.6843 -0.499097,-0.73076 -0.864476,-1.51498 -1.096133,-2.35268 -0.231748,-0.85551 -0.347599,-1.78232 -0.347554,-2.78043 l 0,-6.73721 c -4.5e-5,-4.13499 -0.18719,-7.42339 -0.561435,-9.86521 l 0.10694,-0.1604 c 0.516831,0.10695 1.399085,0.16042 2.646761,0.1604 0.570299,3e-5 1.078262,-0.009 1.523893,-0.0267 0.445534,-0.0356 0.748529,-0.0713 0.908989,-0.10694 l 0.240614,-0.0267 0.05347,0.16041 c -0.356515,2.15664 -0.534747,5.44504 -0.534699,9.8652 l 0,5.4272 c -4.8e-5,1.15852 0.124718,2.1388 0.37429,2.94084 0.2673,0.80206 0.614854,1.39914 1.042663,1.79124 0.445532,0.3743 0.873291,0.64165 1.283278,0.80205 0.427708,0.14258 0.87329,0.21388 1.336748,0.21388 1.817923,0 3.867602,-1.35456 6.149041,-4.06371 l 0,-7.1115 c -5.8e-5,-4.13499 -0.187203,-7.42339 -0.561434,-9.8652 l 0.10694,-0.16041 c 0.516817,0.10695 1.399069,0.16042 2.646761,0.16041 0.570284,2e-5 1.078248,-0.009 1.523893,-0.0267 0.44552,-0.0356 0.748515,-0.0713 0.908989,-0.10694 l 0.240614,-0.0267 0.05347,0.16041 c -0.374353,2.26358 -0.561497,5.55198 -0.561434,9.8652 l 0,3.12799 c -6.3e-5,3.58249 0.311843,7.08477 0.935724,10.50684 l -0.10694,0.16041 c -0.712996,-0.10694 -1.532867,-0.16041 -2.459617,-0.16041 -0.53476,0 -1.158576,0.0535 -1.871447,0.16041 -0.320879,0 -0.481289,-0.0535 -0.481229,-0.16041 l -0.26735,-3.50224 -0.10694,0"
         style="font-size:32px;font-style:normal;font-variant:normal;font-weight:normal;font-stretch:normal;text-align:start;line-height:125%;letter-spacing:0px;word-spacing:0px;writing-mode:lr-tb;text-anchor:start;fill:#222222;fill-opacity:1;stroke:none;display:inline;font-family:Linux Biolinum O;-inkscape-font-specification:Linux Biolinum O" />
      <path
         d="m 93.552563,290.67799 -4.384533,1.1496 c -1.88928,0.48124 -3.172558,1.16744 -3.849835,2.05859 -0.677292,0.89118 -1.015935,2.03187 -1.015928,3.42208 -7e-6,0.89117 0.329724,1.67539 0.989193,2.35268 0.659455,0.65946 1.532796,0.98919 2.620027,0.98919 1.211974,0 2.780422,-0.78422 4.705353,-2.35268 0.51686,-0.39211 0.775298,-0.86442 0.775314,-1.41695 l 0.160409,-6.20251 m 4.17065,8.04722 c -2e-5,1.1407 0.28516,1.71104 0.85552,1.71104 0.17821,0 0.37427,-0.0446 0.58817,-0.13368 0.21386,-0.10694 0.38318,-0.20497 0.50797,-0.29409 0.12473,-0.0891 0.28515,-0.22279 0.481227,-0.40102 0.21385,-0.17823 0.34753,-0.28517 0.40102,-0.32082 l 0.16041,0.10694 0.88225,1.1496 c -0.81989,1.05158 -1.613027,1.80016 -2.379407,2.24574 -0.7486,0.42776 -1.55956,0.64164 -2.432879,0.64164 -0.606012,0 -1.131799,-0.11586 -1.577363,-0.34756 -0.4456,-0.2317 -0.784242,-0.5347 -1.015929,-0.90899 -0.213896,-0.37428 -0.374306,-0.71293 -0.481229,-1.01593 -0.106957,-0.30299 -0.178249,-0.59707 -0.21388,-0.88225 l -0.106939,0 c -1.37241,1.22981 -2.539835,2.06751 -3.50228,2.51309 -0.962471,0.42776 -2.147719,0.64164 -3.55575,0.64164 -1.996218,0 -3.573579,-0.49014 -4.732088,-1.47043 -1.158518,-0.9981 -1.737774,-2.47743 -1.737773,-4.438 -10e-7,-1.83579 0.7664,-3.45771 2.299207,-4.86576 1.550621,-1.40803 3.65377,-2.43287 6.309451,-3.07452 l 4.812293,-1.14961 c 0.213864,-0.0713 0.320804,-0.28516 0.320819,-0.64164 -1.5e-5,-1.17632 -0.115871,-2.18333 -0.347554,-3.02105 -0.231719,-0.8555 -0.50798,-1.49714 -0.828784,-1.92491 -0.320835,-0.42774 -0.73077,-0.76638 -1.229808,-1.01593 -0.499065,-0.24951 -0.926825,-0.39209 -1.283278,-0.42776 -0.338656,-0.0534 -0.748591,-0.0802 -1.229809,-0.0802 -1.1407,2e-5 -2.263569,0.47234 -3.368605,1.41695 -1.105051,0.92684 -2.049686,2.07644 -2.833905,3.44881 l -0.695109,-0.0535 -0.882254,-3.66268 0.16041,-0.21388 c 2.584373,-2.26354 5.284602,-3.39532 8.100693,-3.39534 0.855507,2e-5 1.666466,0.0713 2.432881,0.21388 0.766388,0.12478 1.541701,0.39213 2.325942,0.80204 0.802032,0.39214 1.488228,0.90902 2.058592,1.55063 0.570326,0.62384 1.033732,1.47936 1.390218,2.56656 0.37427,1.06941 0.56141,2.31704 0.56143,3.74289 -2e-5,0.12477 -0.0357,1.83582 -0.10694,5.13312 -0.0713,3.29731 -0.10695,5.24896 -0.10694,5.85495"
         style="font-size:32px;font-style:normal;font-variant:normal;font-weight:normal;font-stretch:normal;text-align:start;line-height:125%;letter-spacing:0px;word-spacing:0px;writing-mode:lr-tb;text-anchor:start;fill:#222222;fill-opacity:1;stroke:none;display:inline;font-family:Linux Biolinum O;-inkscape-font-specification:Linux Biolinum O"
         id="path4174"
         inkscape:connector-curvature="0" />
      <path
         d="m 106.30787,291.93453 0,-15.42607 c -10e-6,-4.90138 -0.17824,-8.33236 -0.5347,-10.29296 l 0.10694,-0.16041 c 0.51687,-0.0356 1.03375,-0.11582 1.55063,-0.24062 0.53469,-0.12473 0.90898,-0.21384 1.12287,-0.26734 0.21387,-0.0713 0.6238,-0.23167 1.2298,-0.48123 0.62381,-0.26732 0.94463,-0.40099 0.96246,-0.40103 0.33864,4e-5 0.50796,0.18718 0.50797,0.56144 -0.3743,2.92305 -0.56145,6.35404 -0.56144,10.29296 l 0,16.41526 c -1e-5,4.56277 0.18714,8.21655 0.56144,10.96134 l -0.10694,0.16041 c -0.51689,-0.10694 -1.39914,-0.16041 -2.64676,-0.16041 -0.57036,0 -1.07832,0.009 -1.5239,0.0267 -0.44558,0.0356 -0.74858,0.0624 -0.90898,0.0802 l -0.24062,0.0535 -0.0535,-0.16041 c 0.35646,-2.47744 0.53469,-6.13122 0.5347,-10.96134"
         style="font-size:32px;font-style:normal;font-variant:normal;font-weight:normal;font-stretch:normal;text-align:start;line-height:125%;letter-spacing:0px;word-spacing:0px;writing-mode:lr-tb;text-anchor:start;fill:#222222;fill-opacity:1;stroke:none;display:inline;font-family:Linux Biolinum O;-inkscape-font-specification:Linux Biolinum O"
         id="path4176"
         inkscape:connector-curvature="0" />
      <path
         d="m 119.69247,273.64782 c -0.55252,-0.57032 -0.82879,-1.22087 -0.82878,-1.95165 -1e-5,-0.73073 0.27626,-1.38128 0.82878,-1.95166 0.57034,-0.57031 1.22089,-0.85548 1.95166,-0.85551 0.73074,3e-5 1.38129,0.2852 1.95165,0.85551 0.57033,0.57038 0.85551,1.22093 0.85552,1.95166 -1e-5,0.73078 -0.28519,1.38133 -0.85552,1.95165 -0.57036,0.55255 -1.22091,0.82881 -1.95165,0.82878 -0.73077,3e-5 -1.38132,-0.27623 -1.95166,-0.82878 m -0.21388,16.38853 c 0,-4.36669 -0.18715,-7.5838 -0.56143,-9.65132 l 0.10694,-0.16041 c 0.40993,-0.0356 0.80204,-0.0802 1.17634,-0.13368 0.37428,-0.0713 0.74857,-0.1604 1.12287,-0.26735 0.37428,-0.12474 0.65945,-0.21386 0.85551,-0.26735 0.19605,-0.0713 0.50796,-0.19604 0.93573,-0.37429 0.42775,-0.17821 0.68619,-0.28515 0.77531,-0.32082 0.33864,2e-5 0.50796,0.17825 0.50797,0.5347 -0.3743,2.92304 -0.56145,6.17579 -0.56144,9.75826 l 0,3.87657 c -10e-6,3.83201 0.18714,7.12041 0.56144,9.8652 l -0.10694,0.16041 c -0.51689,-0.10694 -1.39914,-0.16041 -2.64676,-0.16041 -0.57036,0 -1.07832,0.009 -1.5239,0.0267 -0.44559,0.0356 -0.74858,0.0624 -0.90899,0.0802 l -0.24061,0.0535 -0.0535,-0.16041 c 0.37428,-2.6022 0.56143,-5.8906 0.56143,-9.8652 l 0,-2.99432"
         style="font-size:32px;font-style:normal;font-variant:normal;font-weight:normal;font-stretch:normal;text-align:start;line-height:125%;letter-spacing:0px;word-spacing:0px;writing-mode:lr-tb;text-anchor:start;fill:#222222;fill-opacity:1;stroke:none;display:inline;font-family:Linux Biolinum O;-inkscape-font-specification:Linux Biolinum O"
         id="path4178"
         inkscape:connector-curvature="0" />
      <path
         d="m 133.72833,279.39583 c -1e-5,-2.86952 -0.12477,-5.0707 -0.37429,-6.60353 l 0.10694,-0.18715 c 0.51687,-0.0356 0.9981,-0.1069 1.44369,-0.21387 0.4634,-0.10691 0.81986,-0.21385 1.06939,-0.32082 0.24952,-0.10691 0.57925,-0.2495 0.9892,-0.42776 0.40992,-0.17821 0.72183,-0.31188 0.93572,-0.40103 0.32081,3e-5 0.48122,0.18718 0.48123,0.56144 -0.17824,2.6557 -0.26736,5.1866 -0.26735,7.59272 l 5.85496,0 c 0.30298,3e-5 0.45448,0.11588 0.45449,0.34756 l 0,1.36348 c -1e-5,0.2139 -0.1426,0.39214 -0.42776,0.5347 -0.28518,0.12479 -0.58818,0.18717 -0.90899,0.18715 l -4.9727,0 0,7.8066 c -1e-5,1.22983 -0.0267,2.62895 -0.0802,4.19739 -0.0535,1.55064 -0.0802,2.53092 -0.0802,2.94085 -1e-5,1.19417 0.12475,2.05859 0.37429,2.59329 0.24952,0.5347 0.72183,0.80205 1.41695,0.80205 0.78422,0 1.43477,-0.0624 1.95165,-0.18715 0.53469,-0.12476 1.14959,-0.39211 1.84472,-0.80204 l 0.64163,1.52389 c -1.96057,1.81798 -4.07263,2.72696 -6.33618,2.72696 -1.26546,0 -2.29921,-0.39211 -3.10126,-1.17633 -0.78423,-0.80205 -1.17634,-1.84471 -1.17633,-3.12799 -1e-5,-0.40994 0.0267,-1.6843 0.0802,-3.8231 0.0535,-2.13879 0.0802,-3.82309 0.0802,-5.05291 l 0,-8.42151 -3.44881,0 c -0.14258,2e-5 -0.21388,-0.0802 -0.21388,-0.24062 l 0,-1.95165 c 0,-0.16039 0.0535,-0.24059 0.16041,-0.24062 l 3.50228,0"
         style="font-size:32px;font-style:normal;font-variant:normal;font-weight:normal;font-stretch:normal;text-align:start;line-height:125%;letter-spacing:0px;word-spacing:0px;writing-mode:lr-tb;text-anchor:start;fill:#222222;fill-opacity:1;stroke:none;display:inline;font-family:Linux Biolinum O;-inkscape-font-specification:Linux Biolinum O"
         id="path4180"
         inkscape:connector-curvature="0" />
      <path
         d="m 146.53437,279.23543 c 0.51688,0.10695 1.46151,0.16042 2.83391,0.1604 1.31892,3e-5 2.21899,-0.0534 2.70023,-0.1604 1.31892,4.02808 3.76071,10.31079 7.32538,18.84814 l 0.10694,0 c 2.47742,-5.32916 4.87466,-11.61187 7.1917,-18.84814 0.35645,0.10695 1.06047,0.16042 2.11207,0.1604 1.21196,3e-5 1.99618,-0.0534 2.35267,-0.1604 -1.49718,3.01216 -4.28652,9.12554 -8.36804,18.34018 -4.08155,9.21464 -6.57681,15.31021 -7.48579,18.28671 -0.58818,-0.17824 -1.48825,-0.26736 -2.70023,-0.26735 -0.67729,-10e-6 -1.31002,0.0891 -1.89818,0.26735 2.38831,-3.99243 4.42908,-7.96702 6.1223,-11.92379 -0.96246,-2.53091 -2.63785,-6.64809 -5.02617,-12.35155 -2.3705,-5.70344 -4.1261,-9.82062 -5.26679,-12.35155"
         style="font-size:32px;font-style:normal;font-variant:normal;font-weight:normal;font-stretch:normal;text-align:start;line-height:125%;letter-spacing:0px;word-spacing:0px;writing-mode:lr-tb;text-anchor:start;fill:#222222;fill-opacity:1;stroke:none;display:inline;font-family:Linux Biolinum O;-inkscape-font-specification:Linux Biolinum O"
         id="path4182"
         inkscape:connector-curvature="0" />
    </g>
    <g
       id="g4626"
       transform="translate(19.292893,-2)">
      <path
         inkscape:connector-curvature="0"
         id="path4249"
         d="m 232.51128,299.39359 c -1.44374,1.5328 -2.75377,2.59329 -3.93005,3.18146 -1.17639,0.57034 -2.38837,0.85551 -3.63594,0.85551 -1.30116,0 -2.42403,-0.20496 -3.36861,-0.6149 -0.94469,-0.40993 -1.67544,-0.97137 -2.19226,-1.6843 -0.49911,-0.73076 -0.86449,-1.51498 -1.09614,-2.35268 -0.23175,-0.85551 -0.3476,-1.78232 -0.34755,-2.78043 l 0,-6.73721 c -5e-5,-4.13499 -0.1872,-7.42339 -0.56144,-9.86521 l 0.10694,-0.1604 c 0.51683,0.10695 1.39908,0.16042 2.64677,0.1604 0.57029,3e-5 1.07826,-0.009 1.52388,-0.0267 0.44554,-0.0356 0.74853,-0.0713 0.90899,-0.10694 l 0.24062,-0.0267 0.0534,0.16041 c -0.35653,2.15664 -0.53475,5.44504 -0.5347,9.8652 l 0,5.4272 c -5e-5,1.15852 0.12473,2.1388 0.37429,2.94084 0.2673,0.80206 0.61484,1.39914 1.04265,1.79124 0.44554,0.3743 0.8733,0.64165 1.28328,0.80205 0.42771,0.14258 0.8733,0.21388 1.33675,0.21388 1.81792,0 3.86759,-1.35456 6.14904,-4.06371 l 0,-7.1115 c -5e-5,-4.13499 -0.1872,-7.42339 -0.56144,-9.8652 l 0.10694,-0.16041 c 0.51682,0.10695 1.39908,0.16042 2.64677,0.16041 0.57029,2e-5 1.07824,-0.009 1.52388,-0.0267 0.44552,-0.0356 0.74853,-0.0713 0.90899,-0.10694 l 0.24062,-0.0267 0.0534,0.16041 c -0.37436,2.26358 -0.5615,5.55198 -0.56145,9.8652 l 0,3.12799 c -5e-5,3.58249 0.31186,7.08477 0.93574,10.50684 l -0.10694,0.16041 c -0.71299,-0.10694 -1.53287,-0.16041 -2.45962,-0.16041 -0.53477,0 -1.15858,0.0535 -1.87145,0.16041 -0.32087,0 -0.48128,-0.0535 -0.48123,-0.16041 l -0.26735,-3.50228 -0.10694,0"
         style="font-size:32px;font-style:normal;font-variant:normal;font-weight:normal;font-stretch:normal;text-align:start;line-height:125%;letter-spacing:0px;word-spacing:0px;writing-mode:lr-tb;text-anchor:start;fill:#222222;fill-opacity:1;stroke:none;display:inline;font-family:Linux Biolinum O;-inkscape-font-specification:Linux Biolinum O" />
      <path
         d="m 246.48165,273.64782 c -0.55251,-0.57032 -0.82877,-1.22087 -0.82877,-1.95165 0,-0.73073 0.27626,-1.38128 0.82877,-1.95166 0.57034,-0.57031 1.22089,-0.85548 1.95166,-0.85551 0.73075,3e-5 1.3813,0.2852 1.95164,0.85551 0.57034,0.57038 0.85552,1.22093 0.85552,1.95166 0,0.73078 -0.28518,1.38133 -0.85552,1.95165 -0.57034,0.55255 -1.22089,0.82881 -1.95164,0.82878 -0.73077,3e-5 -1.38132,-0.27623 -1.95166,-0.82878 m -0.21388,16.38853 c 0,-4.36669 -0.18714,-7.5838 -0.56142,-9.65132 l 0.10693,-0.16041 c 0.40994,-0.0356 0.80205,-0.0802 1.17634,-0.13368 0.37429,-0.0713 0.74858,-0.1604 1.12287,-0.26735 0.37429,-0.12474 0.65945,-0.21386 0.85552,-0.26735 0.19605,-0.0713 0.50796,-0.19604 0.93572,-0.37429 0.42775,-0.17821 0.68619,-0.28515 0.77532,-0.32082 0.33863,2e-5 0.50795,0.17825 0.50795,0.5347 -0.37429,2.92304 -0.56144,6.17579 -0.56142,9.75826 l 0,3.87657 c -2e-5,3.83201 0.18713,7.12041 0.56142,9.8652 l -0.10694,0.16041 c -0.51687,-0.10694 -1.39913,-0.16041 -2.64675,-0.16041 -0.57036,0 -1.07831,0.009 -1.5239,0.0267 -0.44557,0.0356 -0.74858,0.0624 -0.90899,0.0802 l -0.2406,0.0535 -0.0534,-0.16041 c 0.37429,-2.6022 0.56143,-5.8906 0.56143,-9.8652 l 0,-2.99432"
         style="font-size:32px;font-style:normal;font-variant:normal;font-weight:normal;font-stretch:normal;text-align:start;line-height:125%;letter-spacing:0px;word-spacing:0px;writing-mode:lr-tb;text-anchor:start;fill:#222222;fill-opacity:1;stroke:none;display:inline;font-family:Linux Biolinum O;-inkscape-font-specification:Linux Biolinum O"
         id="path4186"
         inkscape:connector-curvature="0" />
      <path
         d="m 262.51063,300.1689 c 1.97838,-0.0178 4.10827,-0.0713 6.38966,-0.16041 2.28136,-0.10694 4.0637,-0.21388 5.34699,-0.32082 l 1.95165,-0.13368 0.10694,0.16041 c -0.0714,0.57035 -0.10694,1.14069 -0.10694,1.71103 -2e-5,0.0178 0.0356,0.50797 0.10694,1.47043 l -0.10694,0.16041 c -0.83771,-0.10694 -1.86255,-0.16041 -3.07452,-0.16041 l -12.37829,0 -4.438,0.16041 -0.16033,-0.26735 c 0.33865,-0.37429 0.73968,-0.92681 1.20308,-1.65757 l 12.85951,-18.98182 c -1.87145,0.0357 -3.84983,0.10695 -5.93516,0.21388 -2.0675,0.0891 -3.68051,0.17825 -4.83902,0.26735 l -1.71104,0.10694 -0.10694,-0.16041 c 0.0713,-0.57033 0.10694,-1.13176 0.10694,-1.68431 0,-0.0356 -0.0356,-0.53467 -0.10694,-1.49715 l 0.10694,-0.16041 c 0.81986,0.10695 1.84471,0.16042 3.07451,0.16041 l 11.17522,0 c 0.4634,2e-5 1.04265,-0.0267 1.73778,-0.0802 0.69509,-0.0534 1.30107,-0.10692 1.81798,-0.16041 0.53468,-0.0534 0.82875,-0.0802 0.88224,-0.0802 0.17822,3e-5 0.26733,0.10696 0.26735,0.32082 -0.17824,0.21391 -0.72185,0.98031 -1.63082,2.29921 l -12.53871,18.47386"
         style="font-size:32px;font-style:normal;font-variant:normal;font-weight:normal;font-stretch:normal;text-align:start;line-height:125%;letter-spacing:0px;word-spacing:0px;writing-mode:lr-tb;text-anchor:start;fill:#222222;fill-opacity:1;stroke:none;display:inline;font-family:Linux Biolinum O;-inkscape-font-specification:Linux Biolinum O"
         id="path4188"
         inkscape:connector-curvature="0" />
    </g>
    <g
       id="g4631"
       transform="translate(30.121321,-2)">
      <path
         inkscape:connector-curvature="0"
         id="path4261"
         d="m 340.16784,299.39359 c -1.44374,1.5328 -2.75376,2.59329 -3.93005,3.18146 -1.17639,0.57034 -2.38837,0.85551 -3.63595,0.85551 -1.30114,0 -2.42401,-0.20496 -3.36861,-0.6149 -0.94468,-0.40993 -1.67543,-0.97137 -2.19226,-1.6843 -0.4991,-0.73076 -0.86447,-1.51498 -1.09613,-2.35268 -0.23174,-0.85551 -0.3476,-1.78232 -0.34756,-2.78043 l 0,-6.73721 c -4e-5,-4.13499 -0.18719,-7.42339 -0.56143,-9.86521 l 0.10694,-0.1604 c 0.51684,0.10695 1.39908,0.16042 2.64676,0.1604 0.5703,3e-5 1.07827,-0.009 1.5239,-0.0267 0.44553,-0.0356 0.74852,-0.0713 0.90899,-0.10694 l 0.2406,-0.0267 0.0534,0.16041 c -0.35652,2.15664 -0.53474,5.44504 -0.5347,9.8652 l 0,5.4272 c -4e-5,1.15852 0.12473,2.1388 0.37429,2.94084 0.26731,0.80206 0.61486,1.39914 1.04267,1.79124 0.44554,0.3743 0.87329,0.64165 1.28328,0.80205 0.4277,0.14258 0.87329,0.21388 1.33674,0.21388 1.81793,0 3.8676,-1.35456 6.14905,-4.06371 l 0,-7.1115 c -6e-5,-4.13499 -0.18721,-7.42339 -0.56145,-9.8652 l 0.10694,-0.16041 c 0.51682,0.10695 1.39908,0.16042 2.64677,0.16041 0.57029,2e-5 1.07825,-0.009 1.52389,-0.0267 0.44552,-0.0356 0.74852,-0.0713 0.90899,-0.10694 l 0.24062,-0.0267 0.0534,0.16041 c -0.37436,2.26358 -0.56149,5.55198 -0.56144,9.8652 l 0,3.12799 c -5e-5,3.58249 0.31185,7.08477 0.93573,10.50684 l -0.10694,0.16041 c -0.71299,-0.10694 -1.53286,-0.16041 -2.45961,-0.16041 -0.53477,0 -1.15858,0.0535 -1.87145,0.16041 -0.32087,0 -0.48128,-0.0535 -0.48123,-0.16041 l -0.26718,-3.50224 -0.10694,0"
         style="font-size:32px;font-style:normal;font-variant:normal;font-weight:normal;font-stretch:normal;text-align:start;line-height:125%;letter-spacing:0px;word-spacing:0px;writing-mode:lr-tb;text-anchor:start;fill:#222222;fill-opacity:1;stroke:none;display:inline;font-family:Linux Biolinum O;-inkscape-font-specification:Linux Biolinum O" />
      <path
         d="m 356.31576,287.17571 9.91866,0 c 0.49904,1e-5 0.74856,-0.24951 0.74858,-0.74858 -2e-5,-1.87143 -0.44559,-3.23491 -1.33675,-4.09045 -0.89118,-0.8555 -1.92492,-1.28326 -3.10126,-1.28328 -0.33864,2e-5 -0.6951,0.0268 -1.06939,0.0802 -0.35648,0.0535 -0.81988,0.20499 -1.39022,0.45449 -0.57034,0.23173 -1.08723,0.55255 -1.55063,0.96246 -0.4634,0.40996 -0.90899,1.01595 -1.33675,1.81798 -0.40993,0.80206 -0.70402,1.73779 -0.88224,2.80717 m 14.83789,9.97214 1.09614,1.41695 c -1.08724,1.47934 -2.44182,2.66459 -4.06371,3.55575 -1.62194,0.87335 -3.38645,1.31002 -5.29352,1.31002 -3.61814,0 -6.45205,-1.07831 -8.50172,-3.23493 -2.03186,-2.17444 -3.04779,-4.91032 -3.04779,-8.20764 0,-1.99619 0.33865,-3.84091 1.01593,-5.53413 0.67728,-1.6932 1.55063,-3.07451 2.62003,-4.14392 1.08721,-1.0872 2.29029,-1.93381 3.60921,-2.53982 1.31892,-0.60597 2.63784,-0.90897 3.95677,-0.90899 1.39022,2e-5 2.62893,0.19608 3.71617,0.58817 1.10503,0.39213 1.9962,0.90901 2.6735,1.55062 0.69509,0.62384 1.26543,1.37242 1.71104,2.24574 0.46338,0.87336 0.7842,1.75561 0.96246,2.64676 0.1782,0.87336 0.26733,1.80017 0.26734,2.78044 -10e-6,0.606 -0.32975,0.909 -0.9892,0.90899 l -14.73095,0 c 0,1.56846 0.16939,2.98541 0.50795,4.25086 0.35646,1.24763 0.80205,2.26356 1.33675,3.04778 0.55253,0.76641 1.18525,1.41696 1.89819,1.95165 0.71292,0.51688 1.40803,0.88226 2.08533,1.09614 0.67728,0.19606 1.34564,0.29408 2.00511,0.29408 2.88736,0 5.2757,-1.02484 7.16497,-3.07452"
         style="font-size:32px;font-style:normal;font-variant:normal;font-weight:normal;font-stretch:normal;text-align:start;line-height:125%;letter-spacing:0px;word-spacing:0px;writing-mode:lr-tb;text-anchor:start;fill:#222222;fill-opacity:1;stroke:none;display:inline;font-family:Linux Biolinum O;-inkscape-font-specification:Linux Biolinum O"
         id="path4192"
         inkscape:connector-curvature="0" />
      <path
         d="m 376.20657,297.62908 0.7753,-0.0535 c 0.606,1.17634 1.46152,2.11206 2.56656,2.80717 1.12287,0.69511 2.30812,1.04266 3.55576,1.04266 1.37239,0 2.47743,-0.41884 3.31513,-1.25654 0.85551,-0.85552 1.28326,-2.00512 1.28328,-3.44881 -2e-5,-0.60599 -0.098,-1.12286 -0.29409,-1.55063 -0.19607,-0.44557 -0.5347,-0.82877 -1.01593,-1.1496 -0.46342,-0.32081 -0.9179,-0.57925 -1.36347,-0.77532 -0.44559,-0.19604 -1.07832,-0.45448 -1.8982,-0.77531 -0.2317,-0.0891 -0.40103,-0.15149 -0.50795,-0.18714 -0.90899,-0.35646 -1.5952,-0.63272 -2.0586,-0.82879 -0.44559,-0.19604 -0.98919,-0.50795 -1.63083,-0.93572 -0.62382,-0.44557 -1.11395,-0.91789 -1.47043,-1.41695 -0.69511,-0.94463 -1.04265,-2.12987 -1.04265,-3.55575 0,-1.42585 0.43667,-2.66457 1.31,-3.71616 0.87335,-1.05156 1.92492,-1.80905 3.15473,-2.27248 1.22981,-0.46338 2.522,-0.69508 3.87658,-0.6951 2.24572,2e-5 4.39343,0.57928 6.44311,1.73777 l 0.13363,0.18714 -1.04267,3.66269 -0.72183,0.0535 c -0.46342,-0.96244 -1.12289,-1.80904 -1.97839,-2.53982 -0.83771,-0.74856 -1.85363,-1.12285 -3.04779,-1.12287 -1.17635,2e-5 -2.18336,0.33867 -3.02105,1.01593 -0.83769,0.67731 -1.25654,1.55956 -1.25654,2.64676 0,0.5169 0.10694,0.99813 0.32082,1.44369 0.23169,0.42778 0.47232,0.77533 0.72184,1.04266 0.26735,0.24955 0.65946,0.51689 1.17633,0.80205 0.51687,0.26737 0.90899,0.45451 1.17634,0.56144 0.26735,0.0891 0.6862,0.23171 1.25655,0.42776 0.90898,0.32083 1.63974,0.59709 2.19227,0.82878 0.55251,0.23172 1.16741,0.55253 1.8447,0.96246 0.69511,0.40995 1.22981,0.84662 1.6041,1.31001 0.37427,0.4456 0.69509,1.01594 0.96246,1.71104 0.26733,0.69512 0.40102,1.47934 0.40103,2.35268 -10e-6,0.65946 -0.0713,1.31001 -0.21388,1.95165 -0.14253,0.62382 -0.41886,1.28328 -0.82879,1.97838 -0.40995,0.69512 -0.93573,1.30111 -1.57735,1.81798 -0.62383,0.49906 -1.47043,0.90899 -2.53983,1.22981 -1.05159,0.33864 -2.25465,0.50796 -3.60921,0.50796 -2.56656,0 -5.17767,-0.49014 -7.83336,-1.47042 l 0.88232,-4.33106"
         style="font-size:32px;font-style:normal;font-variant:normal;font-weight:normal;font-stretch:normal;text-align:start;line-height:125%;letter-spacing:0px;word-spacing:0px;writing-mode:lr-tb;text-anchor:start;fill:#222222;fill-opacity:1;stroke:none;display:inline;font-family:Linux Biolinum O;-inkscape-font-specification:Linux Biolinum O"
         id="path4194"
         inkscape:connector-curvature="0" />
      <path
         d="m 398.39659,279.39583 c 0,-2.86952 -0.12474,-5.0707 -0.37429,-6.60353 l 0.10694,-0.18715 c 0.51687,-0.0356 0.9981,-0.1069 1.44368,-0.21387 0.4634,-0.10691 0.81986,-0.21385 1.0694,-0.32082 0.24952,-0.10691 0.57926,-0.2495 0.98919,-0.42776 0.40993,-0.17821 0.72183,-0.31188 0.93573,-0.40103 0.3208,3e-5 0.48121,0.18718 0.48123,0.56144 -0.17824,2.6557 -0.26737,5.1866 -0.26735,7.59272 l 5.85495,0 c 0.30299,3e-5 0.45448,0.11588 0.4545,0.34756 l 0,1.36348 c -2e-5,0.2139 -0.14253,0.39214 -0.42776,0.5347 -0.28519,0.12479 -0.58819,0.18717 -0.90899,0.18715 l -4.9727,0 0,7.8066 c -2e-5,1.22983 -0.0267,2.62895 -0.0802,4.19739 -0.0534,1.55064 -0.0803,2.53092 -0.0803,2.94085 -10e-6,1.19417 0.12474,2.05859 0.37429,2.59329 0.24952,0.5347 0.72184,0.80205 1.41695,0.80205 0.78422,0 1.43477,-0.0624 1.95166,-0.18715 0.53468,-0.12476 1.14959,-0.39211 1.8447,-0.80204 l 0.64164,1.52389 c -1.96057,1.81798 -4.07263,2.72696 -6.33618,2.72696 -1.26546,0 -2.2992,-0.39211 -3.10125,-1.17633 -0.78424,-0.80205 -1.17634,-1.84471 -1.17634,-3.12799 0,-0.40994 0.0267,-1.6843 0.0803,-3.8231 0.0534,-2.13879 0.0802,-3.82309 0.0802,-5.05291 l 0,-8.42151 -3.44882,0 c -0.14253,2e-5 -0.21388,-0.0802 -0.21388,-0.24062 l 0,-1.95165 c 0,-0.16039 0.0534,-0.24059 0.16032,-0.24062 l 3.50229,0"
         style="font-size:32px;font-style:normal;font-variant:normal;font-weight:normal;font-stretch:normal;text-align:start;line-height:125%;letter-spacing:0px;word-spacing:0px;writing-mode:lr-tb;text-anchor:start;fill:#222222;fill-opacity:1;stroke:none;display:inline;font-family:Linux Biolinum O;-inkscape-font-specification:Linux Biolinum O"
         id="path4196"
         inkscape:connector-curvature="0" />
      <path
         d="m 415.58716,273.64782 c -0.55251,-0.57032 -0.82878,-1.22087 -0.82878,-1.95165 0,-0.73073 0.27627,-1.38128 0.82878,-1.95166 0.57034,-0.57031 1.22089,-0.85548 1.95166,-0.85551 0.73075,3e-5 1.3813,0.2852 1.95164,0.85551 0.57034,0.57038 0.85552,1.22093 0.85552,1.95166 0,0.73078 -0.28518,1.38133 -0.85552,1.95165 -0.57034,0.55255 -1.22089,0.82881 -1.95164,0.82878 -0.73077,3e-5 -1.38132,-0.27623 -1.95166,-0.82878 m -0.21388,16.38853 c 0,-4.36669 -0.18714,-7.5838 -0.56143,-9.65132 l 0.10694,-0.16041 c 0.40993,-0.0356 0.80205,-0.0802 1.17634,-0.13368 0.37429,-0.0713 0.74858,-0.1604 1.12287,-0.26735 0.37429,-0.12474 0.65945,-0.21386 0.85552,-0.26735 0.19605,-0.0713 0.50795,-0.19604 0.93571,-0.37429 0.42776,-0.17821 0.6862,-0.28515 0.77532,-0.32082 0.33864,2e-5 0.50796,0.17825 0.50796,0.5347 -0.37429,2.92304 -0.56144,6.17579 -0.56143,9.75826 l 0,3.87657 c -1e-5,3.83201 0.18714,7.12041 0.56143,9.8652 l -0.10694,0.16041 c -0.51687,-0.10694 -1.39913,-0.16041 -2.64675,-0.16041 -0.57036,0 -1.07831,0.009 -1.5239,0.0267 -0.44557,0.0356 -0.74858,0.0624 -0.90899,0.0802 l -0.24061,0.0535 -0.0534,-0.16041 c 0.37429,-2.6022 0.56142,-5.8906 0.56142,-9.8652 l 0,-2.99432"
         style="font-size:32px;font-style:normal;font-variant:normal;font-weight:normal;font-stretch:normal;text-align:start;line-height:125%;letter-spacing:0px;word-spacing:0px;writing-mode:lr-tb;text-anchor:start;fill:#222222;fill-opacity:1;stroke:none;display:inline;font-family:Linux Biolinum O;-inkscape-font-specification:Linux Biolinum O"
         id="path4198"
         inkscape:connector-curvature="0" />
      <path
         d="m 425.42836,291.66718 c 0,-3.7607 1.12287,-6.83522 3.36861,-9.22356 2.24574,-2.3883 5.15092,-3.58246 8.7156,-3.58248 1.65755,2e-5 3.16362,0.24955 4.5182,0.74857 1.37239,0.48126 2.50415,1.13181 3.39535,1.95166 0.89114,0.80207 1.63972,1.7467 2.24573,2.8339 0.62379,1.08724 1.06938,2.2012 1.33675,3.34187 0.26732,1.12288 0.401,2.27249 0.40102,3.44881 -2e-5,1.49717 -0.26737,2.96759 -0.80205,4.41127 -0.51689,1.42587 -1.26547,2.72697 -2.24574,3.90331 -0.98029,1.17634 -2.24575,2.12988 -3.79636,2.86064 -1.55065,0.71293 -3.27058,1.06939 -5.15984,1.06939 -1.83581,0 -3.52012,-0.32973 -5.05292,-0.98919 -1.5328,-0.65946 -2.79826,-1.5328 -3.79636,-2.62003 -0.98027,-1.10504 -1.74668,-2.36158 -2.29921,-3.76962 -0.55251,-1.40804 -0.82878,-2.86955 -0.82878,-4.38454 m 11.70992,-10.56031 c -1.1407,2e-5 -2.15663,0.25846 -3.04779,0.77532 -0.87335,0.51689 -1.57737,1.22091 -2.11207,2.11206 -0.5347,0.87336 -0.94463,1.85364 -1.22981,2.94084 -0.26735,1.08724 -0.40101,2.24575 -0.40101,3.47555 0,1.1407 0.14253,2.30813 0.42776,3.50228 0.30299,1.17635 0.74858,2.33486 1.33674,3.47554 0.58816,1.12288 1.40803,2.04078 2.45962,2.7537 1.05157,0.71294 2.25464,1.0694 3.60921,1.0694 0.5347,0 1.0694,-0.0713 1.6041,-0.21388 0.5347,-0.16041 1.08721,-0.44558 1.65757,-0.85552 0.58815,-0.40993 1.09612,-0.91789 1.5239,-1.52389 0.42774,-0.62381 0.7842,-1.44368 1.0694,-2.45961 0.28514,-1.03375 0.42774,-2.20117 0.42776,-3.50228 -2e-5,-7.69965 -2.44181,-11.54949 -7.32538,-11.54951"
         style="font-size:32px;font-style:normal;font-variant:normal;font-weight:normal;font-stretch:normal;text-align:start;line-height:125%;letter-spacing:0px;word-spacing:0px;writing-mode:lr-tb;text-anchor:start;fill:#222222;fill-opacity:1;stroke:none;display:inline;font-family:Linux Biolinum O;-inkscape-font-specification:Linux Biolinum O"
         id="path4200"
         inkscape:connector-curvature="0" />
      <path
         d="m 473.92831,293.03066 c -2e-5,4.15284 0.18713,7.44124 0.56144,9.86521 l -0.13363,0.16041 c -0.49908,-0.10694 -1.37241,-0.16041 -2.62003,-0.16041 -0.57035,0 -1.07833,0.009 -1.52388,0.0267 -0.44561,0.0356 -0.7486,0.0624 -0.90899,0.0802 l -0.24062,0.0535 -0.0534,-0.16041 c 0.35646,-2.19227 0.53468,-5.48067 0.5347,-9.86521 l 0,-5.34699 c -2e-5,-2.04966 -0.23171,-3.50226 -0.69511,-4.3578 -0.44559,-0.85549 -1.36349,-1.28325 -2.75369,-1.28327 -1.30112,2e-5 -2.49527,0.28519 -3.58248,0.85551 -1.06942,0.57037 -2.26357,1.63086 -3.58249,3.18147 l 0,6.95108 c -2e-5,3.97461 0.17822,7.263 0.5347,9.86521 l -0.10694,0.16041 c -0.49906,-0.10694 -1.37241,-0.16041 -2.62003,-0.16041 -0.57035,0 -1.07831,0.009 -1.5239,0.0267 -0.44557,0.0356 -0.74858,0.0624 -0.90899,0.0802 l -0.2406,0.0535 -0.0534,-0.16041 c 0.35646,-2.47744 0.5347,-5.76584 0.5347,-9.86521 l 0,-2.99431 c 0,-4.47363 -0.17824,-7.69074 -0.5347,-9.65132 l 0.10694,-0.16041 c 0.51687,-0.0356 1.01593,-0.10692 1.49716,-0.21388 0.49904,-0.12474 0.86442,-0.22277 1.09613,-0.29409 0.24952,-0.0891 0.63272,-0.24059 1.14961,-0.45449 0.51687,-0.21386 0.83769,-0.34753 0.96246,-0.40102 0.3208,2e-5 0.48121,0.17825 0.48123,0.53469 l -0.48123,3.95678 0.10694,0 c 1.58626,-1.87143 3.02995,-3.08341 4.33106,-3.63596 1.3189,-0.57032 2.81606,-0.85549 4.49147,-0.85551 1.19415,2e-5 2.20117,0.22281 3.02104,0.66837 0.83769,0.42778 1.47933,1.0516 1.92492,1.87145 0.44557,0.80207 0.75748,1.70214 0.93573,2.70023 0.19604,0.9803 0.29406,2.12099 0.29408,3.42207 l 0,5.5074"
         style="font-size:32px;font-style:normal;font-variant:normal;font-weight:normal;font-stretch:normal;text-align:start;line-height:125%;letter-spacing:0px;word-spacing:0px;writing-mode:lr-tb;text-anchor:start;fill:#222222;fill-opacity:1;stroke:none;display:inline;font-family:Linux Biolinum O;-inkscape-font-specification:Linux Biolinum O"
         id="path4202"
         inkscape:connector-curvature="0" />
      <path
         d="m 480.46638,297.62908 0.77531,-0.0535 c 0.60599,1.17634 1.46151,2.11206 2.56655,2.80717 1.12287,0.69511 2.30812,1.04266 3.55576,1.04266 1.37239,0 2.47743,-0.41884 3.31514,-1.25654 0.8555,-0.85552 1.28326,-2.00512 1.28327,-3.44881 -10e-6,-0.60599 -0.098,-1.12286 -0.29409,-1.55063 -0.19607,-0.44557 -0.5347,-0.82877 -1.01593,-1.1496 -0.46341,-0.32081 -0.9179,-0.57925 -1.36347,-0.77532 -0.44559,-0.19604 -1.07831,-0.45448 -1.89819,-0.77531 -0.23171,-0.0891 -0.40104,-0.15149 -0.50796,-0.18714 -0.90899,-0.35646 -1.5952,-0.63272 -2.0586,-0.82879 -0.44559,-0.19604 -0.98918,-0.50795 -1.63082,-0.93572 -0.62383,-0.44557 -1.11396,-0.91789 -1.47043,-1.41695 -0.69511,-0.94463 -1.04266,-2.12987 -1.04266,-3.55575 0,-1.42585 0.43667,-2.66457 1.31001,-3.71616 0.87334,-1.05156 1.92491,-1.80905 3.15472,-2.27248 1.22981,-0.46338 2.522,-0.69508 3.87658,-0.6951 2.24572,2e-5 4.39343,0.57928 6.44312,1.73777 l 0.13363,0.18714 -1.04267,3.66269 -0.72184,0.0535 c -0.46342,-0.96244 -1.12289,-1.80904 -1.97839,-2.53982 -0.8377,-0.74856 -1.85363,-1.12285 -3.04778,-1.12287 -1.17636,2e-5 -2.18337,0.33867 -3.02106,1.01593 -0.83769,0.67731 -1.25654,1.55956 -1.25654,2.64676 0,0.5169 0.10694,0.99813 0.32082,1.44369 0.23169,0.42778 0.47232,0.77533 0.72184,1.04266 0.26735,0.24955 0.65947,0.51689 1.17634,0.80205 0.51687,0.26737 0.90899,0.45451 1.17634,0.56144 0.26734,0.0891 0.68619,0.23171 1.25655,0.42776 0.90897,0.32083 1.63974,0.59709 2.19226,0.82878 0.55251,0.23172 1.16741,0.55253 1.84471,0.96246 0.69511,0.40995 1.22981,0.84662 1.6041,1.31001 0.37427,0.4456 0.69509,1.01594 0.96245,1.71104 0.26734,0.69512 0.40102,1.47934 0.40104,2.35268 -2e-5,0.65946 -0.0713,1.31001 -0.21388,1.95165 -0.14253,0.62382 -0.41887,1.28328 -0.8288,1.97838 -0.40994,0.69512 -0.93573,1.30111 -1.57735,1.81798 -0.62383,0.49906 -1.47043,0.90899 -2.53983,1.22981 -1.05159,0.33864 -2.25465,0.50796 -3.60921,0.50796 -2.56656,0 -5.17767,-0.49014 -7.83335,-1.47042 l 0.88231,-4.33106"
         style="font-size:32px;font-style:normal;font-variant:normal;font-weight:normal;font-stretch:normal;text-align:start;line-height:125%;letter-spacing:0px;word-spacing:0px;writing-mode:lr-tb;text-anchor:start;fill:#222222;fill-opacity:1;stroke:none;display:inline;font-family:Linux Biolinum O;-inkscape-font-specification:Linux Biolinum O"
         id="path4204"
         inkscape:connector-curvature="0" />
      <path
         d="m 501.6936,301.71182 0,-0.14514 c 0.31448,-0.93133 0.97972,-1.60262 1.99571,-2.01386 l 0.14514,0 c 1.02811,0.35076 1.69938,1.02205 2.01387,2.01386 l 0,0.14514 c -0.18144,0.59266 -0.42939,1.04019 -0.74386,1.34257 -0.31448,0.30238 -0.73782,0.5201 -1.27001,0.65314 l -0.14514,0 c -0.58057,-0.13304 -1.02205,-0.33867 -1.32442,-0.61685 -0.29029,-0.29029 -0.51405,-0.74991 -0.67129,-1.37886"
         style="font-size:32px;font-style:normal;font-variant:normal;font-weight:normal;font-stretch:normal;text-align:start;line-height:125%;letter-spacing:0px;word-spacing:0px;writing-mode:lr-tb;text-anchor:start;fill:#222222;fill-opacity:1;stroke:none;display:inline;font-family:Linux Biolinum O;-inkscape-font-specification:Linux Biolinum O"
         id="path4206"
         inkscape:connector-curvature="0" />
      <path
         d="m 509.22289,295.72467 c 0,-2.55208 0.762,-4.63851 2.286,-6.25928 1.524,-1.62075 3.49551,-2.43113 5.91457,-2.43114 1.12485,1e-5 2.1469,0.16935 3.06614,0.50799 0.93133,0.32659 1.69937,0.76807 2.30415,1.32444 0.60475,0.5443 1.11275,1.18534 1.524,1.92313 0.42332,0.73783 0.7257,1.49378 0.90714,2.26786 0.18141,0.76201 0.27213,1.54216 0.27214,2.34043 -10e-6,1.01601 -0.18144,2.01386 -0.54428,2.99357 -0.35078,0.96763 -0.85878,1.85058 -1.52401,2.64887 -0.66524,0.79828 -1.52401,1.44537 -2.57628,1.94128 -1.0523,0.48381 -2.21948,0.72571 -3.50157,0.72571 -1.24581,0 -2.38882,-0.22376 -3.42901,-0.67128 -1.04018,-0.44753 -1.89895,-1.04019 -2.57628,-1.77801 -0.66523,-0.7499 -1.18533,-1.60261 -1.56029,-2.55813 -0.37494,-0.95553 -0.56242,-1.94734 -0.56242,-2.97544 m 7.94657,-7.16643 c -0.7741,2e-5 -1.46353,0.1754 -2.06828,0.52615 -0.59268,0.35077 -1.07044,0.82853 -1.4333,1.43328 -0.36285,0.59268 -0.64104,1.25792 -0.83457,1.99572 -0.18143,0.73782 -0.27213,1.524 -0.27213,2.35857 0,0.7741 0.0967,1.56634 0.29028,2.37672 0.20562,0.79829 0.50801,1.58448 0.90715,2.35856 0.39913,0.76201 0.95551,1.38492 1.66914,1.86872 0.71361,0.48381 1.53004,0.72571 2.44928,0.72571 0.36285,0 0.72571,-0.0484 1.08857,-0.14514 0.36286,-0.10886 0.7378,-0.30238 1.12486,-0.58057 0.39913,-0.27819 0.74385,-0.6229 1.03415,-1.03414 0.29027,-0.42333 0.53217,-0.97971 0.72571,-1.66914 0.1935,-0.70152 0.29027,-1.49376 0.29029,-2.37672 -2e-5,-5.22513 -1.65706,-7.8377 -4.97115,-7.83772"
         style="font-size:32px;font-style:normal;font-variant:normal;font-weight:normal;font-stretch:normal;text-align:start;line-height:125%;letter-spacing:0px;word-spacing:0px;writing-mode:lr-tb;text-anchor:start;fill:#222222;fill-opacity:1;stroke:none;display:inline;font-family:Linux Biolinum O;-inkscape-font-specification:Linux Biolinum O"
         id="path4208"
         inkscape:connector-curvature="0" />
      <path
         d="m 533.28032,290.1911 c 0.54427,-0.81036 1.25186,-1.53608 2.12271,-2.17714 0.87086,-0.65313 1.71147,-0.9797 2.52186,-0.97971 0.42332,1e-5 0.93132,0.0847 1.524,0.254 l 0.16329,0.14513 -0.74386,2.75772 -0.30843,0.0726 c -0.44753,-0.35075 -1.16719,-0.52612 -2.15899,-0.52614 -0.2903,2e-5 -0.64106,0.0968 -1.05229,0.29028 -0.41124,0.18145 -0.7983,0.43545 -1.16115,0.762 -0.60477,0.60478 -0.90715,1.42121 -0.90714,2.44929 l 0,3.41086 c -10e-6,2.60048 0.127,4.83205 0.381,6.69472 l -0.0726,0.10886 c -0.35076,-0.0726 -0.94948,-0.10886 -1.79614,-0.10886 -0.38706,0 -0.73177,0.006 -1.03415,0.0181 -0.30238,0.0242 -0.508,0.0423 -0.61686,0.0544 l -0.16328,0.0363 -0.0362,-0.10886 c 0.254,-1.76591 0.38099,-3.99747 0.38099,-6.69472 l 0,-2.032 c 0,-2.31018 -0.18747,-4.49337 -0.56242,-6.54957 l 0.0726,-0.10886 c 0.36285,-0.0242 0.70151,-0.0726 1.01599,-0.14514 0.32657,-0.0726 0.57453,-0.13908 0.74386,-0.19957 0.18142,-0.0726 0.41729,-0.17537 0.70757,-0.30843 0.30237,-0.13303 0.52009,-0.22375 0.65315,-0.27214 0.2177,10e-6 0.32655,0.12096 0.32657,0.36285 l -0.0726,2.79401 0.0726,0"
         style="font-size:32px;font-style:normal;font-variant:normal;font-weight:normal;font-stretch:normal;text-align:start;line-height:125%;letter-spacing:0px;word-spacing:0px;writing-mode:lr-tb;text-anchor:start;fill:#222222;fill-opacity:1;stroke:none;display:inline;font-family:Linux Biolinum O;-inkscape-font-specification:Linux Biolinum O"
         id="path4210"
         inkscape:connector-curvature="0" />
      <path
         d="m 545.56303,303.87082 c -0.66524,0.52009 -1.13695,1.04019 -1.41514,1.56029 -0.26609,0.53218 -0.39914,1.12485 -0.39914,1.77799 0,0.59267 0.15724,1.11881 0.47171,1.57843 0.31448,0.45962 0.70758,0.81038 1.17929,1.05229 0.47172,0.25399 0.92528,0.44147 1.36071,0.56243 0.44753,0.12094 0.85271,0.18142 1.21558,0.18142 1.07647,0 2.1227,-0.16329 3.13871,-0.48985 1.01598,-0.31448 1.86266,-0.7741 2.54,-1.37886 0.67733,-0.60477 1.01599,-1.27 1.01599,-1.99571 0,-0.508 -0.10891,-0.92529 -0.32657,-1.25186 -0.20562,-0.31448 -0.64105,-0.66524 -1.30628,-1.05229 -0.47173,-0.2661 -1.01601,-0.43542 -1.63286,-0.508 -0.61686,-0.0726 -1.47562,-0.10885 -2.57628,-0.10885 -0.13306,0 -0.48987,0.0181 -1.07043,0.0544 -0.58058,0.0363 -1.07648,0.0544 -1.48771,0.0544 -0.30238,0 -0.53825,-0.0121 -0.70758,-0.0363 m 7.02129,-15.42142 c 1.18532,1.02811 1.77799,2.41302 1.77801,4.15472 -2e-5,1.74172 -0.59269,3.12662 -1.77801,4.15471 -1.17325,1.01601 -2.58234,1.52401 -4.22729,1.524 -1.2579,1e-5 -2.31019,-0.26004 -3.15686,-0.78014 -0.42333,0.64105 -0.63499,1.36072 -0.63499,2.159 0,1.2942 0.71966,1.94129 2.15899,1.94129 0.0121,0 0.36891,-0.0242 1.07044,-0.0726 1.04019,-0.13305 1.82033,-0.19957 2.34042,-0.19958 2.55209,10e-6 4.29985,0.41124 5.2433,1.23372 1.04017,0.89505 1.56027,1.99571 1.56028,3.302 -1e-5,0.96761 -0.29635,1.85662 -0.88901,2.667 -0.58058,0.81038 -1.35467,1.47561 -2.32228,1.99571 -0.95553,0.52009 -2.02596,0.92528 -3.21128,1.21557 -1.17324,0.29028 -2.36463,0.43543 -3.57415,0.43543 -0.72572,0 -1.40909,-0.0726 -2.05014,-0.21771 -0.62895,-0.14515 -1.22163,-0.37496 -1.778,-0.68943 -0.55639,-0.30239 -0.99786,-0.73782 -1.32443,-1.30628 -0.32658,-0.56849 -0.48985,-1.23977 -0.48985,-2.01386 0,-0.82249 0.24795,-1.63287 0.74385,-2.43115 0.508,-0.79828 1.22163,-1.48771 2.14086,-2.06828 -0.4959,-0.2661 -0.90715,-0.6471 -1.23372,-1.143 -0.31447,-0.508 -0.47171,-1.08252 -0.47171,-1.72357 0,-0.66524 0.13909,-1.34862 0.41729,-2.05015 0.27818,-0.70151 0.65919,-1.26395 1.14299,-1.68728 -0.55637,-0.55637 -0.98576,-1.15509 -1.28814,-1.79614 -0.30238,-0.65314 -0.45357,-1.44537 -0.45357,-2.37672 0,-1.64494 0.60477,-2.99356 1.81429,-4.04586 1.20952,-1.06437 2.63675,-1.59655 4.28171,-1.59657 0.78619,2e-5 1.51795,0.10887 2.19529,0.32657 1.05228,-0.0605 2.18923,-0.18141 3.41086,-0.36285 1.2216,-0.19351 2.03802,-0.30841 2.44928,-0.34472 l 0.10879,0.127 c -0.0726,0.32659 -0.10891,0.64711 -0.10879,0.96157 -2e-5,0.3145 0.0362,0.63501 0.10879,0.96157 l -0.10879,0.10886 c -2.45534,-0.22979 -3.74348,-0.35074 -3.86443,-0.36286 m -1.03414,4.53572 c 0,-1.39094 -0.30239,-2.45532 -0.90715,-3.19314 -0.60476,-0.74989 -1.46958,-1.12485 -2.59442,-1.12486 -0.89505,1e-5 -1.59658,0.35078 -2.10457,1.05228 -0.49591,0.68945 -0.74387,1.49378 -0.74387,2.413 0,1.3063 0.2661,2.38883 0.79829,3.24758 0.54429,0.84667 1.39096,1.27001 2.54,1.26999 0.762,2e-5 1.45143,-0.30842 2.06829,-0.92528 0.62894,-0.61685 0.94343,-1.53004 0.94343,-2.73957"
         style="font-size:32px;font-style:normal;font-variant:normal;font-weight:normal;font-stretch:normal;text-align:start;line-height:125%;letter-spacing:0px;word-spacing:0px;writing-mode:lr-tb;text-anchor:start;fill:#222222;fill-opacity:1;stroke:none;display:inline;font-family:Linux Biolinum O;-inkscape-font-specification:Linux Biolinum O"
         id="path4212"
         inkscape:connector-curvature="0" />
    </g>
    <g
       id="g4612"
       transform="translate(32,0)">
      <path
         inkscape:connector-curvature="0"
         id="path4190"
         d="m 302.30903,302.84257 c -1.91838,0.39211 -3.89004,0.58816 -5.91498,0.58816 -2.81362,0 -5.47801,-0.40993 -7.99319,-1.2298 -2.5152,-0.8377 -4.72132,-1.99621 -6.61835,-3.47555 -1.87575,-1.47933 -3.36782,-3.32404 -4.4762,-5.53414 -1.1084,-2.2279 -1.66258,-4.65186 -1.66258,-7.2719 0,-2.63783 0.53288,-5.13309 1.59864,-7.48579 1.06575,-2.35265 2.50452,-4.3756 4.31631,-6.06884 1.8331,-1.69318 4.02858,-3.02993 6.58639,-4.01024 2.57913,-0.99807 5.30747,-1.49713 8.18504,-1.49716 3.92198,3e-5 7.47095,0.7397 10.64696,2.219 3.19723,1.47937 5.72309,3.60034 7.57753,6.36292 1.87571,2.74481 2.81357,5.89063 2.81361,9.43744 -4e-5,3.56468 -0.8633,6.74614 -2.58978,9.54438 -1.72658,2.78044 -4.12453,4.9638 -7.1939,6.55007 3.23989,1.78233 7.39635,3.46663 12.4694,5.05291 5.07297,1.58627 10.41241,2.6824 16.01837,3.2884 l 0,0.32082 c -2.83499,1.24762 -4.88124,2.29028 -6.13877,3.12799 -5.75517,-1.33676 -10.73224,-2.76262 -14.93131,-4.2776 -4.1778,-1.51498 -8.40887,-3.39534 -12.69319,-5.64107"
         style="font-size:32px;font-style:normal;font-variant:normal;font-weight:normal;font-stretch:normal;text-align:start;line-height:125%;letter-spacing:0px;word-spacing:0px;writing-mode:lr-tb;text-anchor:start;fill:#222222;fill-opacity:1;stroke:none;display:inline;font-family:Linux Biolinum O;-inkscape-font-specification:Linux Biolinum O" />
      <g
         id="g4381"
         transform="matrix(1.1959168,0,0,1,263.3852,4)">
        <path
           transform="translate(0,552.36218)"
           style="font-size:32px;font-style:normal;font-variant:normal;font-weight:normal;font-stretch:normal;text-align:start;line-height:125%;letter-spacing:0px;word-spacing:0px;writing-mode:lr-tb;text-anchor:start;fill:#1e00ff;fill-opacity:1;stroke:none;display:inline;font-family:Linux Biolinum O;-inkscape-font-specification:Linux Biolinum O"
           d="m 26.946161,-287.07216 c -1.08724,3e-5 -2.147725,0.17827 -3.181461,0.5347 -1.015943,0.33867 -2.005135,0.90902 -2.96758,1.71104 -0.944647,0.78425 -1.77343,1.76453 -2.486352,2.94084 -0.695118,1.17637 -1.256552,2.66461 -1.684302,4.46474 -0.427768,1.80018 -0.641647,3.81421 -0.641639,6.0421 -8e-6,2.54875 0.356458,4.85687 1.069398,6.92436 0.712923,2.06751 1.666469,3.75181 2.860641,5.0529 1.211972,1.30111 2.575454,2.30813 4.090449,3.02105 1.514963,0.69512 3.110148,1.04267 4.785558,1.04267 3.208171,0 5.810372,-1.31892 7.806609,-3.95678 1.99618,-2.65566 2.994285,-6.37182 2.994315,-11.14847 -3e-5,-5.54303 -1.113986,-9.69586 -3.34187,-12.4585 -2.22794,-2.7804 -5.329192,-4.17062 -9.303766,-4.17065"
           id="path4383"
           inkscape:connector-curvature="0" />
        <path
           id="path4385"
           d="m 22.946161,259.29002 c -1.08724,3e-5 -2.147725,0.17827 -3.181461,0.5347 -1.015943,0.33867 -2.005135,0.90902 -2.96758,1.71104 -0.944647,0.78425 -1.77343,1.76453 -2.486352,2.94084 -0.695118,1.17637 -1.256552,2.66461 -1.684302,4.46474 -0.427768,1.80018 -0.641647,3.81421 -0.641639,6.0421 -8e-6,2.54875 0.356458,4.85687 1.069398,6.92436 0.712923,2.06751 1.666469,3.75181 2.860641,5.0529 1.211972,1.30111 2.575454,2.30813 4.090449,3.02105 1.514963,0.69512 3.110148,1.04267 4.785558,1.04267 3.208171,0 5.810372,-1.31892 7.806609,-3.95678 1.99618,-2.65566 2.994285,-6.37182 2.994315,-11.14847 -3e-5,-5.54303 -1.113986,-9.69586 -3.34187,-12.4585 -2.22794,-2.7804 -5.329192,-4.17062 -9.303766,-4.17065"
           style="font-size:32px;font-style:normal;font-variant:normal;font-weight:normal;font-stretch:normal;text-align:start;line-height:125%;letter-spacing:0px;word-spacing:0px;writing-mode:lr-tb;text-anchor:start;fill:#ffffff;fill-opacity:1;stroke:none;display:inline;font-family:Linux Biolinum O;-inkscape-font-specification:Linux Biolinum O"
           inkscape:connector-curvature="0"
           clip-path="url(#clipPath4296)" />
      </g>
    </g>
    <g
       id="g4645"
       transform="translate(-259.50819,0)">
      <path
         style="font-size:32px;font-style:normal;font-variant:normal;font-weight:normal;font-stretch:normal;text-align:start;line-height:125%;letter-spacing:0px;word-spacing:0px;writing-mode:lr-tb;text-anchor:start;fill:#222222;fill-opacity:1;stroke:none;display:inline;font-family:Linux Biolinum O;-inkscape-font-specification:Linux Biolinum O"
         d="m 302.30903,302.84257 c -1.91838,0.39211 -3.89004,0.58816 -5.91498,0.58816 -2.81362,0 -5.47801,-0.40993 -7.99319,-1.2298 -2.5152,-0.8377 -4.72132,-1.99621 -6.61835,-3.47555 -1.87575,-1.47933 -3.36782,-3.32404 -4.4762,-5.53414 -1.1084,-2.2279 -1.66258,-4.65186 -1.66258,-7.2719 0,-2.63783 0.53288,-5.13309 1.59864,-7.48579 1.06575,-2.35265 2.50452,-4.3756 4.31631,-6.06884 1.8331,-1.69318 4.02858,-3.02993 6.58639,-4.01024 2.57913,-0.99807 5.30747,-1.49713 8.18504,-1.49716 3.92198,3e-5 7.47095,0.7397 10.64696,2.219 3.19723,1.47937 5.72309,3.60034 7.57753,6.36292 1.87571,2.74481 2.81357,5.89063 2.81361,9.43744 -4e-5,3.56468 -0.8633,6.74614 -2.58978,9.54438 -1.72658,2.78044 -4.12453,4.9638 -7.1939,6.55007 3.23989,1.78233 7.39635,3.46663 12.4694,5.05291 5.07297,1.58627 10.41241,2.6824 16.01837,3.2884 l 0,0.32082 c -2.83499,1.24762 -4.88124,2.29028 -6.13877,3.12799 -5.75517,-1.33676 -10.73224,-2.76262 -14.93131,-4.2776 -4.1778,-1.51498 -8.40887,-3.39534 -12.69319,-5.64107"
         id="path4647"
         inkscape:connector-curvature="0" />
      <g
         transform="matrix(1.1959168,0,0,1,263.3852,4)"
         id="g4649">
        <path
           inkscape:connector-curvature="0"
           id="path4651"
           d="m 26.946161,-287.07216 c -1.08724,3e-5 -2.147725,0.17827 -3.181461,0.5347 -1.015943,0.33867 -2.005135,0.90902 -2.96758,1.71104 -0.944647,0.78425 -1.77343,1.76453 -2.486352,2.94084 -0.695118,1.17637 -1.256552,2.66461 -1.684302,4.46474 -0.427768,1.80018 -0.641647,3.81421 -0.641639,6.0421 -8e-6,2.54875 0.356458,4.85687 1.069398,6.92436 0.712923,2.06751 1.666469,3.75181 2.860641,5.0529 1.211972,1.30111 2.575454,2.30813 4.090449,3.02105 1.514963,0.69512 3.110148,1.04267 4.785558,1.04267 3.208171,0 5.810372,-1.31892 7.806609,-3.95678 1.99618,-2.65566 2.994285,-6.37182 2.994315,-11.14847 -3e-5,-5.54303 -1.113986,-9.69586 -3.34187,-12.4585 -2.22794,-2.7804 -5.329192,-4.17062 -9.303766,-4.17065"
           style="font-size:32px;font-style:normal;font-variant:normal;font-weight:normal;font-stretch:normal;text-align:start;line-height:125%;letter-spacing:0px;word-spacing:0px;writing-mode:lr-tb;text-anchor:start;fill:#1e00ff;fill-opacity:1;stroke:none;display:inline;font-family:Linux Biolinum O;-inkscape-font-specification:Linux Biolinum O"
           transform="translate(0,552.36218)" />
        <path
           clip-path="url(#clipPath4296)"
           inkscape:connector-curvature="0"
           style="font-size:32px;font-style:normal;font-variant:normal;font-weight:normal;font-stretch:normal;text-align:start;line-height:125%;letter-spacing:0px;word-spacing:0px;writing-mode:lr-tb;text-anchor:start;fill:#ffffff;fill-opacity:1;stroke:none;display:inline;font-family:Linux Biolinum O;-inkscape-font-specification:Linux Biolinum O"
           d="m 22.946161,259.29002 c -1.08724,3e-5 -2.147725,0.17827 -3.181461,0.5347 -1.015943,0.33867 -2.005135,0.90902 -2.96758,1.71104 -0.944647,0.78425 -1.77343,1.76453 -2.486352,2.94084 -0.695118,1.17637 -1.256552,2.66461 -1.684302,4.46474 -0.427768,1.80018 -0.641647,3.81421 -0.641639,6.0421 -8e-6,2.54875 0.356458,4.85687 1.069398,6.92436 0.712923,2.06751 1.666469,3.75181 2.860641,5.0529 1.211972,1.30111 2.575454,2.30813 4.090449,3.02105 1.514963,0.69512 3.110148,1.04267 4.785558,1.04267 3.208171,0 5.810372,-1.31892 7.806609,-3.95678 1.99618,-2.65566 2.994285,-6.37182 2.994315,-11.14847 -3e-5,-5.54303 -1.113986,-9.69586 -3.34187,-12.4585 -2.22794,-2.7804 -5.329192,-4.17062 -9.303766,-4.17065"
           id="path4653" />
      </g>
    </g>
    <g
       id="g4665"
       transform="translate(-86,0)">
      <path
         style="font-size:32px;font-style:normal;font-variant:normal;font-weight:normal;font-stretch:normal;text-align:start;line-height:125%;letter-spacing:0px;word-spacing:0px;writing-mode:lr-tb;text-anchor:start;fill:#222222;fill-opacity:1;stroke:none;display:inline;font-family:Linux Biolinum O;-inkscape-font-specification:Linux Biolinum O"
         d="m 302.30903,302.84257 c -1.91838,0.39211 -3.89004,0.58816 -5.91498,0.58816 -2.81362,0 -5.47801,-0.40993 -7.99319,-1.2298 -2.5152,-0.8377 -4.72132,-1.99621 -6.61835,-3.47555 -1.87575,-1.47933 -3.36782,-3.32404 -4.4762,-5.53414 -1.1084,-2.2279 -1.66258,-4.65186 -1.66258,-7.2719 0,-2.63783 0.53288,-5.13309 1.59864,-7.48579 1.06575,-2.35265 2.50452,-4.3756 4.31631,-6.06884 1.8331,-1.69318 4.02858,-3.02993 6.58639,-4.01024 2.57913,-0.99807 5.30747,-1.49713 8.18504,-1.49716 3.92198,3e-5 7.47095,0.7397 10.64696,2.219 3.19723,1.47937 5.72309,3.60034 7.57753,6.36292 1.87571,2.74481 2.81357,5.89063 2.81361,9.43744 -4e-5,3.56468 -0.8633,6.74614 -2.58978,9.54438 -1.72658,2.78044 -4.12453,4.9638 -7.1939,6.55007 3.23989,1.78233 7.39635,3.46663 12.4694,5.05291 5.07297,1.58627 10.41241,2.6824 16.01837,3.2884 l 0,0.32082 c -2.83499,1.24762 -4.88124,2.29028 -6.13877,3.12799 -5.75517,-1.33676 -10.73224,-2.76262 -14.93131,-4.2776 -4.1778,-1.51498 -8.40887,-3.39534 -12.69319,-5.64107"
         id="path4667"
         inkscape:connector-curvature="0" />
      <g
         transform="matrix(1.1959168,0,0,1,263.3852,4)"
         id="g4669">
        <path
           inkscape:connector-curvature="0"
           id="path4671"
           d="m 26.946161,-287.07216 c -1.08724,3e-5 -2.147725,0.17827 -3.181461,0.5347 -1.015943,0.33867 -2.005135,0.90902 -2.96758,1.71104 -0.944647,0.78425 -1.77343,1.76453 -2.486352,2.94084 -0.695118,1.17637 -1.256552,2.66461 -1.684302,4.46474 -0.427768,1.80018 -0.641647,3.81421 -0.641639,6.0421 -8e-6,2.54875 0.356458,4.85687 1.069398,6.92436 0.712923,2.06751 1.666469,3.75181 2.860641,5.0529 1.211972,1.30111 2.575454,2.30813 4.090449,3.02105 1.514963,0.69512 3.110148,1.04267 4.785558,1.04267 3.208171,0 5.810372,-1.31892 7.806609,-3.95678 1.99618,-2.65566 2.994285,-6.37182 2.994315,-11.14847 -3e-5,-5.54303 -1.113986,-9.69586 -3.34187,-12.4585 -2.22794,-2.7804 -5.329192,-4.17062 -9.303766,-4.17065"
           style="font-size:32px;font-style:normal;font-variant:normal;font-weight:normal;font-stretch:normal;text-align:start;line-height:125%;letter-spacing:0px;word-spacing:0px;writing-mode:lr-tb;text-anchor:start;fill:#1e00ff;fill-opacity:1;stroke:none;display:inline;font-family:Linux Biolinum O;-inkscape-font-specification:Linux Biolinum O"
           transform="translate(0,552.36218)" />
        <path
           clip-path="url(#clipPath4296)"
           inkscape:connector-curvature="0"
           style="font-size:32px;font-style:normal;font-variant:normal;font-weight:normal;font-stretch:normal;text-align:start;line-height:125%;letter-spacing:0px;word-spacing:0px;writing-mode:lr-tb;text-anchor:start;fill:#ffffff;fill-opacity:1;stroke:none;display:inline;font-family:Linux Biolinum O;-inkscape-font-specification:Linux Biolinum O"
           d="m 22.946161,259.29002 c -1.08724,3e-5 -2.147725,0.17827 -3.181461,0.5347 -1.015943,0.33867 -2.005135,0.90902 -2.96758,1.71104 -0.944647,0.78425 -1.77343,1.76453 -2.486352,2.94084 -0.695118,1.17637 -1.256552,2.66461 -1.684302,4.46474 -0.427768,1.80018 -0.641647,3.81421 -0.641639,6.0421 -8e-6,2.54875 0.356458,4.85687 1.069398,6.92436 0.712923,2.06751 1.666469,3.75181 2.860641,5.0529 1.211972,1.30111 2.575454,2.30813 4.090449,3.02105 1.514963,0.69512 3.110148,1.04267 4.785558,1.04267 3.208171,0 5.810372,-1.31892 7.806609,-3.95678 1.99618,-2.65566 2.994285,-6.37182 2.994315,-11.14847 -3e-5,-5.54303 -1.113986,-9.69586 -3.34187,-12.4585 -2.22794,-2.7804 -5.329192,-4.17062 -9.303766,-4.17065"
           id="path4673" />
      </g>
    </g>
  </g>
</svg>
