<?xml version="1.0" encoding="UTF-8" standalone="no"?>
<!-- Created with Inkscape (http://www.inkscape.org/) -->

<svg
   xmlns:dc="http://purl.org/dc/elements/1.1/"
   xmlns:cc="http://creativecommons.org/ns#"
   xmlns:rdf="http://www.w3.org/1999/02/22-rdf-syntax-ns#"
   xmlns:svg="http://www.w3.org/2000/svg"
   xmlns="http://www.w3.org/2000/svg"
   xmlns:sodipodi="http://sodipodi.sourceforge.net/DTD/sodipodi-0.dtd"
   xmlns:inkscape="http://www.inkscape.org/namespaces/inkscape"
   width="300"
   height="100"
   id="svg2"
   version="1.1"
   inkscape:version="0.48.0 r9654"
   sodipodi:docname="New document 1">
  <defs
     id="defs4" />
  <sodipodi:namedview
     id="base"
     pagecolor="#ffffff"
     bordercolor="#666666"
     borderopacity="1.0"
     inkscape:pageopacity="0.0"
     inkscape:pageshadow="2"
     inkscape:zoom="2.6707692"
     inkscape:cx="165.28599"
     inkscape:cy="72.082161"
     inkscape:document-units="px"
     inkscape:current-layer="layer1"
     showgrid="false"
     inkscape:window-width="1366"
     inkscape:window-height="717"
     inkscape:window-x="0"
     inkscape:window-y="0"
     inkscape:window-maximized="1" />
  <metadata
     id="metadata7">
    <rdf:RDF>
      <cc:Work
         rdf:about="">
        <dc:format>image/svg+xml</dc:format>
        <dc:type
           rdf:resource="http://purl.org/dc/dcmitype/StillImage" />
        <dc:title></dc:title>
      </cc:Work>
    </rdf:RDF>
  </metadata>
  <g
     inkscape:label="Layer 1"
     inkscape:groupmode="layer"
     id="layer1"
     transform="translate(0,-952.36218)">
    <path
       inkscape:connector-curvature="0"
       id="path3000"
       style="font-size:32px;font-style:normal;font-variant:normal;font-weight:bold;font-stretch:normal;text-align:start;line-height:125%;letter-spacing:0px;word-spacing:0px;writing-mode:lr-tb;text-anchor:start;fill:#000000;fill-opacity:1;stroke:none;font-family:Baskervald ADF Std;-inkscape-font-specification:Baskervald ADF Std Bold"
       d="m 18.560635,990.66744 c 5.749049,0 10.255077,5.98212 16.237196,5.98212 3.379508,0 8.778962,-2.83568 8.778962,-6.29288 0,-0.77689 -0.660366,-1.08766 -1.320729,-1.08766 -0.699208,0 -1.281884,0.31077 -1.476109,0.89343 -0.621518,1.94225 -1.748026,2.95222 -3.573737,2.95222 -5.010995,0 -10.526991,-3.34067 -16.781025,-3.96219 1.748023,-0.73805 4.622554,-2.01993 6.448265,-2.44723 5.982118,-2.09762 9.439326,-7.10863 9.439326,-12.89653 0,-7.9632 -6.215203,-13.59574 -14.683397,-13.59574 -8.584728,0 -15.1106911,5.59369 -15.1106911,13.71228 0,7.65246 5.2829231,12.97423 12.7799941,13.55689 -1.748023,0.93228 -3.651428,1.70918 -5.438296,2.3307 -1.320727,0.3496 -2.136473,0.97112 -2.136473,1.63149 0,0.97112 0.893436,1.59264 1.592644,1.59264 2.097626,0 2.79684,-2.36954 5.24407,-2.36954 m 11.10966,-17.24717 c 0,5.98213 -1.553806,12.08079 -8.312822,12.08079 -6.370569,0 -8.235133,-5.82675 -8.235133,-11.53696 0,-5.94327 1.903409,-11.77002 8.429357,-11.77002 6.098654,0 8.118598,5.63253 8.118598,11.22619" />
    <path
       inkscape:connector-curvature="0"
       id="path3002"
       style="font-size:32px;font-style:normal;font-variant:normal;font-weight:bold;font-stretch:normal;text-align:start;line-height:125%;letter-spacing:0px;word-spacing:0px;writing-mode:lr-tb;text-anchor:start;fill:#000000;fill-opacity:1;stroke:none;font-family:Baskervald ADF Std;-inkscape-font-specification:Baskervald ADF Std Bold"
       d="m 56.149832,990.0536 0,-1.90341 c -1.981091,-0.0388 -2.486078,-1.04881 -2.486078,-2.64146 l 0,-11.57579 -7.380543,0 0,1.9034 c 1.903401,0.0388 2.408388,1.00997 2.408388,2.64146 l 0,7.6913 c -0.932278,0.89343 -1.78687,1.63149 -3.029907,1.63149 -1.786867,0 -2.369543,-1.28189 -2.369543,-3.26298 l 0,-10.60467 -7.341699,0 0,1.9034 c 1.903401,0.0388 2.330698,1.00997 2.330698,2.64146 l 0,6.5648 c 0,3.0299 1.281889,5.43829 5.55483,5.43829 1.942246,0 3.651428,-0.7769 5.127536,-2.09763 0.116535,0.54383 0.23307,1.12652 0.621519,1.90341 2.175316,-0.15538 4.234104,-0.23307 6.564799,-0.23307" />
    <path
       inkscape:connector-curvature="0"
       id="path3004"
       style="font-size:32px;font-style:normal;font-variant:normal;font-weight:bold;font-stretch:normal;text-align:start;line-height:125%;letter-spacing:0px;word-spacing:0px;writing-mode:lr-tb;text-anchor:start;fill:#000000;fill-opacity:1;stroke:none;font-family:Baskervald ADF Std;-inkscape-font-specification:Baskervald ADF Std Bold"
       d="m 72.473095,983.36612 -2.408388,0 c -0.07769,0.85459 -0.543831,1.39842 -1.281884,1.94225 l 0,-9.51702 c 0,-4.00102 -2.952221,-5.16638 -6.875559,-5.16638 -2.44723,0 -7.030938,1.20421 -7.030938,4.00103 0,1.04882 1.553799,1.63149 2.680302,1.63149 2.563765,0 0.932283,-3.72912 4.272946,-3.72912 1.748023,0 1.903404,1.59266 1.903404,3.57374 l 0,1.00997 c -3.612579,1.47611 -9.128567,1.08767 -9.128567,6.48711 0,2.40839 1.825716,4.19526 4.661396,4.19526 1.825711,0 3.612583,-0.89344 4.972155,-2.21417 0.38845,1.39842 1.670336,2.25301 3.534892,2.25301 2.563765,0 3.923343,-1.9034 4.700241,-4.46717 m -8.740117,0.19422 c -0.660364,0.66037 -1.748025,1.35958 -2.641458,1.35958 -0.815743,0 -1.476109,-0.58268 -1.476109,-2.3307 0.194225,-2.56376 2.602614,-2.83568 4.117567,-3.53489 l 0,4.50601" />
    <path
       inkscape:connector-curvature="0"
       id="path3006"
       style="font-size:32px;font-style:normal;font-variant:normal;font-weight:bold;font-stretch:normal;text-align:start;line-height:125%;letter-spacing:0px;word-spacing:0px;writing-mode:lr-tb;text-anchor:start;fill:#000000;fill-opacity:1;stroke:none;font-family:Baskervald ADF Std;-inkscape-font-specification:Baskervald ADF Std Bold"
       d="m 80.490616,989.88363 0,-1.90341 c -2.13647,-0.0388 -2.524922,-1.04881 -2.524922,-2.64146 l 0,-22.41354 c -2.680301,0.50498 -4.816778,0.81574 -7.341699,1.1265 l 0,1.90341 c 1.748022,0.0388 2.369543,1.04882 2.369543,2.60261 l 0,16.78102 c 0,1.59265 -0.466142,2.60262 -2.369543,2.64146 l 0,1.90341 9.866621,0" />
    <path
       inkscape:connector-curvature="0"
       id="path3008"
       style="font-size:32px;font-style:normal;font-variant:normal;font-weight:bold;font-stretch:normal;text-align:start;line-height:125%;letter-spacing:0px;word-spacing:0px;writing-mode:lr-tb;text-anchor:start;fill:#000000;fill-opacity:1;stroke:none;font-family:Baskervald ADF Std;-inkscape-font-specification:Baskervald ADF Std Bold"
       d="m 89.578177,987.00886 0,-1.90341 c -2.136471,-0.0388 -2.563768,-0.97112 -2.563768,-2.64146 l 0,-12.23616 c -2.641455,0.50499 -4.700243,0.97112 -7.264008,1.24304 l 0,1.86456 c 1.9034,0.0777 2.369542,1.04882 2.369542,2.6803 l 0,6.44826 c 0,1.63149 -0.349607,2.60262 -2.369542,2.64146 l 0,1.90341 9.827776,0 m -4.933311,-25.55999 c -1.748022,0 -3.146442,1.35958 -3.146442,3.06875 0,1.70918 1.39842,3.06875 3.146442,3.06875 1.748022,0 3.146441,-1.35957 3.146441,-3.06875 0,-1.70917 -1.398419,-3.06875 -3.146441,-3.06875" />
    <path
       inkscape:connector-curvature="0"
       id="path3010"
       style="font-size:32px;font-style:normal;font-variant:normal;font-weight:bold;font-stretch:normal;text-align:start;line-height:125%;letter-spacing:0px;word-spacing:0px;writing-mode:lr-tb;text-anchor:start;fill:#000000;fill-opacity:1;stroke:none;font-family:Baskervald ADF Std;-inkscape-font-specification:Baskervald ADF Std Bold"
       d="m 101.14522,986.32729 -2.019928,-0.97113 c -0.85459,0.89344 -1.47611,1.70918 -2.52492,1.70918 -0.89343,0 -0.97113,-1.59264 -0.97113,-2.64145 l 0,-9.3228 4.117562,0 0,-1.94224 -4.117562,0 0,-5.55483 -3.0299,0 c 0,2.56376 -0.97113,5.55483 -3.72912,5.98212 l 0,1.51495 1.67033,0 0,9.3228 c 0,2.83568 1.00998,5.32176 4.89447,5.32176 2.36954,0 4.311782,-1.39842 5.710198,-3.41836" />
    <path
       inkscape:connector-curvature="0"
       id="path3012"
       style="font-size:32px;font-style:normal;font-variant:normal;font-weight:bold;font-stretch:normal;text-align:start;line-height:125%;letter-spacing:0px;word-spacing:0px;writing-mode:lr-tb;text-anchor:start;fill:#000000;fill-opacity:1;stroke:none;font-family:Baskervald ADF Std;-inkscape-font-specification:Baskervald ADF Std Bold"
       d="m 117.50347,969.4821 0,-1.9034 -7.41939,0 0,1.9034 0.31076,0 c 0.69921,0 1.1265,0.11653 1.1265,0.54383 0,0.0777 0.0388,0.58267 0.0388,0.93228 0,0.19422 0,0.3496 -0.0388,0.38845 l -3.06875,7.14747 -3.4572,-7.84668 c -0.11654,-0.19423 0.0388,-0.62152 0.0388,-0.73806 0,-0.3496 0.50499,-0.38845 1.59265,-0.42729 l 0,-1.9034 -9.167403,0 0,1.9034 c 1.20419,0.0388 1.786865,0.34962 2.252998,1.28188 l 6.137505,12.62462 c -2.17532,4.54486 -2.99106,6.79786 -4.50602,6.99209 l -0.15538,0 c -0.50499,0 -0.73806,-0.69921 -1.243039,-0.69921 -1.243024,0 -1.748014,1.35957 -1.748014,1.98109 0,1.28189 1.437259,1.94225 2.952213,1.94225 2.99106,0 4.81677,-3.88449 5.86559,-6.02097 l 8.00206,-16.85871 c 0.42729,-0.93228 1.28188,-1.12651 2.48608,-1.24304" />
    <path
       inkscape:connector-curvature="0"
       id="path3018"
       style="font-size:32px;font-style:normal;font-variant:normal;font-weight:bold;font-stretch:normal;text-align:start;line-height:125%;letter-spacing:0px;word-spacing:0px;writing-mode:lr-tb;text-anchor:start;fill:#000000;fill-opacity:1;stroke:none;font-family:Baskervald ADF Std;-inkscape-font-specification:Baskervald ADF Std Bold"
       d="m 180.98963,987.00886 0,-1.90341 c -2.13647,-0.0388 -2.56377,-0.97112 -2.56377,-2.64146 l 0,-12.23616 c -2.64145,0.50499 -4.70024,0.97112 -7.264,1.24304 l 0,1.86456 c 1.9034,0.0777 2.36954,1.04882 2.36954,2.6803 l 0,6.44826 c 0,1.63149 -0.34961,2.60262 -2.36954,2.64146 l 0,1.90341 9.82777,0 m -4.93331,-25.55999 c -1.74802,0 -3.14644,1.35958 -3.14644,3.06875 0,1.70918 1.39842,3.06875 3.14644,3.06875 1.74802,0 3.14644,-1.35957 3.14644,-3.06875 0,-1.70917 -1.39842,-3.06875 -3.14644,-3.06875" />
    <path
       inkscape:connector-curvature="0"
       id="path3020"
       style="font-size:32px;font-style:normal;font-variant:normal;font-weight:bold;font-stretch:normal;text-align:start;line-height:125%;letter-spacing:0px;word-spacing:0px;writing-mode:lr-tb;text-anchor:start;fill:#000000;fill-opacity:1;stroke:none;font-family:Baskervald ADF Std;-inkscape-font-specification:Baskervald ADF Std Bold"
       d="m 196.70594,984.17776 -2.52492,0 c -0.69921,1.78687 -1.47611,3.92334 -3.22414,3.92334 l -3.96218,0 9.32279,-12.58577 0,-1.63148 -14.45033,0 -0.73805,5.24407 2.40838,0 c 0.81575,-1.35958 0.97113,-3.34067 2.56377,-3.34067 l 4.2341,0 -9.55586,12.58577 0,1.70918 15.53799,0 0.38845,-5.90444" />
    <path
       inkscape:connector-curvature="0"
       id="path3026"
       style="font-size:32px;font-style:normal;font-variant:normal;font-weight:bold;font-stretch:normal;text-align:start;line-height:125%;letter-spacing:0px;word-spacing:0px;writing-mode:lr-tb;text-anchor:start;fill:#000000;fill-opacity:1;stroke:none;font-family:Baskervald ADF Std;-inkscape-font-specification:Baskervald ADF Std Bold"
       d="m 113.97856,1013.5359 -2.48607,-0.8546 c -1.32073,1.7869 -2.60262,2.9134 -4.62254,2.9134 -3.34066,0 -3.96218,-3.768 -4.03987,-6.759 l 10.83772,0 c 0,-4.4285 -2.60261,-8.3131 -7.5359,-8.3131 -5.4383,0 -8.662429,4.0789 -8.662429,8.7015 0,4.6614 3.379509,8.5071 8.817809,8.5071 3.26296,0 5.71019,-1.3596 7.69128,-4.1953 m -5.32176,-6.7202 -5.74903,0 c 0.15538,-2.0588 0.97112,-4.1566 3.06875,-4.1566 2.01992,0 2.68028,1.787 2.68028,3.8459 l 0,0.3107" />
    <path
       inkscape:connector-curvature="0"
       id="path3028"
       style="font-size:32px;font-style:normal;font-variant:normal;font-weight:bold;font-stretch:normal;text-align:start;line-height:125%;letter-spacing:0px;word-spacing:0px;writing-mode:lr-tb;text-anchor:start;fill:#000000;fill-opacity:1;stroke:none;font-family:Baskervald ADF Std;-inkscape-font-specification:Baskervald ADF Std Bold"
       d="m 127.01029,1015.0537 c 0,-5.2053 -7.92438,-4.7391 -8.04091,-8.041 0.19422,-1.282 0.66036,-1.7481 1.24304,-1.7481 0.66036,0 1.43726,0.6215 2.09763,1.4373 0.66036,0.8158 1.16534,1.8647 1.24303,2.7192 l 2.48608,0 0,-5.8657 -2.36954,0 -0.27192,1.0876 c -1.04881,-0.9322 -2.13647,-1.5149 -3.57373,-1.5149 -3.30182,0 -5.24407,1.9422 -5.24407,4.7004 0,4.9333 7.92437,4.5837 7.92437,8.2351 0,1.2042 -0.7769,1.9423 -1.59264,1.9423 -1.04882,0 -1.94225,-0.4662 -2.56377,-1.2431 -0.66037,-0.7769 -1.04881,-1.8645 -1.20419,-3.0687 l -2.56377,0 0,6.021 2.44723,0 0.31076,-1.01 c 1.16535,0.8546 2.48608,1.4373 3.92334,1.4373 3.53489,0 5.74906,-2.0977 5.74906,-5.0887" />
    <path
       inkscape:connector-curvature="0"
       id="path3030"
       style="font-size:32px;font-style:normal;font-variant:normal;font-weight:bold;font-stretch:normal;text-align:start;line-height:125%;letter-spacing:0px;word-spacing:0px;writing-mode:lr-tb;text-anchor:start;fill:#000000;fill-opacity:1;stroke:none;font-family:Baskervald ADF Std;-inkscape-font-specification:Baskervald ADF Std Bold"
       d="m 138.03897,1013.3929 -2.01994,-0.9711 c -0.85459,0.8934 -1.47611,1.7091 -2.52493,1.7091 -0.89343,0 -0.97112,-1.5926 -0.97112,-2.6414 l 0,-9.323 4.11757,0 0,-1.9422 -4.11757,0 0,-5.55466 -3.02991,0 c 0,2.56372 -0.97112,5.55466 -3.72911,5.98196 l 0,1.5149 1.67033,0 0,9.323 c 0,2.8357 1.00997,5.3217 4.89447,5.3217 2.36954,0 4.31179,-1.3984 5.71021,-3.4183" />
    <path
       inkscape:connector-curvature="0"
       id="path3032"
       style="font-size:32px;font-style:normal;font-variant:normal;font-weight:bold;font-stretch:normal;text-align:start;line-height:125%;letter-spacing:0px;word-spacing:0px;writing-mode:lr-tb;text-anchor:start;fill:#000000;fill-opacity:1;stroke:none;font-family:Baskervald ADF Std;-inkscape-font-specification:Baskervald ADF Std Bold"
       d="m 146.58249,1021.5687 0,-1.9034 c -2.13648,-0.039 -2.56377,-0.9712 -2.56377,-2.6415 l 0,-12.2363 c -2.64146,0.5049 -4.70024,0.9711 -7.26401,1.243 l 0,1.8646 c 1.9034,0.078 2.36954,1.0489 2.36954,2.6804 l 0,6.4483 c 0,1.6315 -0.3496,2.6026 -2.36954,2.6415 l 0,1.9034 9.82778,0 m -4.93331,-25.56044 c -1.74803,0 -3.14645,1.35958 -3.14645,3.06876 0,1.70928 1.39842,3.06898 3.14645,3.06898 1.74802,0 3.14644,-1.3597 3.14644,-3.06898 0,-1.70918 -1.39842,-3.06876 -3.14644,-3.06876" />
    <path
       inkscape:connector-curvature="0"
       id="path3034"
       style="font-size:32px;font-style:normal;font-variant:normal;font-weight:bold;font-stretch:normal;text-align:start;line-height:125%;letter-spacing:0px;word-spacing:0px;writing-mode:lr-tb;text-anchor:start;fill:#000000;fill-opacity:1;stroke:none;font-family:Baskervald ADF Std;-inkscape-font-specification:Baskervald ADF Std Bold"
       d="m 163.51856,1011.3317 c 0,-5.2054 -3.18529,-8.6626 -8.8955,-8.6626 -5.74905,0 -9.08972,3.6126 -9.08972,8.8179 0,5.2441 3.49605,8.3906 8.93434,8.3906 5.4383,0 9.05088,-3.4961 9.05088,-8.5459 m -5.3606,0.078 c 0,2.9522 -0.62152,6.6424 -3.69028,6.6424 -2.87452,0 -3.53489,-3.496 -3.53489,-6.4094 0,-3.0687 0.34961,-7.1088 3.57374,-7.1088 3.30182,0 3.65143,3.8458 3.65143,6.8758" />
    <path
       inkscape:connector-curvature="0"
       id="path3036"
       style="font-size:32px;font-style:normal;font-variant:normal;font-weight:bold;font-stretch:normal;text-align:start;line-height:125%;letter-spacing:0px;word-spacing:0px;writing-mode:lr-tb;text-anchor:start;fill:#000000;fill-opacity:1;stroke:none;font-family:Baskervald ADF Std;-inkscape-font-specification:Baskervald ADF Std Bold"
       d="m 184.27323,1018.7743 0,-1.9034 c -2.05878,-0.039 -2.36954,-1.01 -2.36954,-2.6027 l 0,-6.6813 c 0,-3.2243 -1.59264,-5.3996 -5.82675,-5.3996 -1.94224,0 -3.76796,0.7769 -5.20522,2.0588 -0.0777,-0.5827 -0.31076,-1.1265 -0.81575,-1.9423 -2.253,0.5439 -4.2341,0.8546 -6.56479,1.1265 l 0,1.8258 c 1.86455,0.078 2.40838,1.0489 2.40838,2.6416 l 0,6.3705 c 0,1.5927 -0.42729,2.5638 -2.40838,2.6027 l 0,1.9034 10.13853,0 0,-1.9034 c -2.05878,-0.039 -2.48608,-1.01 -2.48608,-2.6027 l 0,-7.8079 c 0.81575,-0.8934 1.78687,-1.6315 3.02991,-1.6315 1.74802,0 2.36954,1.2431 2.36954,3.2242 l 0,6.2152 c 0,1.5927 -0.38845,2.5638 -2.36954,2.6027 l 0,1.9034 10.09969,0" />
    <path
       inkscape:connector-curvature="0"
       id="path3038"
       style="font-size:32px;font-style:normal;font-variant:normal;font-weight:bold;font-stretch:normal;text-align:start;line-height:125%;letter-spacing:0px;word-spacing:0px;writing-mode:lr-tb;text-anchor:start;fill:#000000;fill-opacity:1;stroke:none;font-family:Baskervald ADF Std;-inkscape-font-specification:Baskervald ADF Std Bold"
       d="m 197.00903,1011.1861 c 0,-5.2053 -7.92437,-4.7391 -8.04091,-8.041 0.19423,-1.282 0.66037,-1.7481 1.24304,-1.7481 0.66036,0 1.43726,0.6215 2.09763,1.4373 0.66036,0.8158 1.16535,1.8647 1.24304,2.7192 l 2.48608,0 0,-5.86574 -2.36955,0 -0.27191,1.08764 c -1.04882,-0.93224 -2.13648,-1.51494 -3.57374,-1.51494 -3.30182,0 -5.24407,1.94224 -5.24407,4.70044 0,4.9333 7.92437,4.5837 7.92437,8.2351 0,1.2042 -0.7769,1.9423 -1.59264,1.9423 -1.04881,0 -1.94225,-0.4662 -2.56377,-1.2431 -0.66036,-0.7769 -1.04881,-1.8645 -1.20419,-3.0687 l -2.56377,0 0,6.021 2.44723,0 0.31076,-1.01 c 1.16535,0.8546 2.48608,1.4373 3.92334,1.4373 3.5349,0 5.74906,-2.0977 5.74906,-5.0887" />
    <path
       inkscape:connector-curvature="0"
       id="path3040"
       style="font-size:32px;font-style:normal;font-variant:normal;font-weight:bold;font-stretch:normal;text-align:start;line-height:125%;letter-spacing:0px;word-spacing:0px;writing-mode:lr-tb;text-anchor:start;fill:#c3c3c3;fill-opacity:1;stroke:none;font-family:Baskervald ADF Std;-inkscape-font-specification:Baskervald ADF Std Bold"
       d="m 200.74444,1014.3389 c -0.70489,0 -1.28539,0.5597 -1.28539,1.2646 0,0.7049 0.5805,1.2646 1.28539,1.2646 0.70489,0 1.28539,-0.5597 1.28539,-1.2646 0,-0.7049 -0.5805,-1.2646 -1.28539,-1.2646" />
    <path
       inkscape:connector-curvature="0"
       id="path3042"
       style="font-size:32px;font-style:normal;font-variant:normal;font-weight:bold;font-stretch:normal;text-align:start;line-height:125%;letter-spacing:0px;word-spacing:0px;writing-mode:lr-tb;text-anchor:start;fill:#c3c3c3;fill-opacity:1;stroke:none;font-family:Baskervald ADF Std;-inkscape-font-specification:Baskervald ADF Std Bold"
       d="m 213.54293,1012.2657 c 0,-2.7782 -1.70003,-4.6234 -4.74765,-4.6234 -3.06834,0 -4.8513,1.9281 -4.8513,4.7062 0,2.7989 1.86589,4.4782 4.76837,4.4782 2.9025,0 4.83058,-1.8659 4.83058,-4.561 m -2.86103,0.042 c 0,1.5756 -0.33171,3.5451 -1.96955,3.5451 -1.53417,0 -1.88661,-1.8658 -1.88661,-3.4208 0,-1.6378 0.18659,-3.794 1.90735,-3.794 1.76222,0 1.94881,2.0525 1.94881,3.6697" />
    <path
       inkscape:connector-curvature="0"
       id="path3044"
       style="font-size:32px;font-style:normal;font-variant:normal;font-weight:bold;font-stretch:normal;text-align:start;line-height:125%;letter-spacing:0px;word-spacing:0px;writing-mode:lr-tb;text-anchor:start;fill:#c3c3c3;fill-opacity:1;stroke:none;font-family:Baskervald ADF Std;-inkscape-font-specification:Baskervald ADF Std Bold"
       d="m 222.68123,1009.1558 c 0,-0.7257 -0.80855,-1.2233 -1.72076,-1.2233 -0.82928,0 -1.53417,0.5183 -2.03174,1.1196 -0.0207,-0.3732 -0.1244,-0.7257 -0.43537,-1.2025 -1.161,0.2902 -2.21833,0.4561 -3.46226,0.6012 l 0,0.9745 c 0.99514,0.042 1.28539,0.5597 1.28539,1.4098 l 0,3.3794 c 0,0.8499 -0.22806,1.3683 -1.28539,1.389 l 0,0.9952 5.45254,0 0,-0.9745 c -1.14027,-0.1866 -1.40979,-0.2902 -1.40979,-1.4097 l 0,-3.9599 c 0.18659,-0.4561 0.62197,-0.8501 1.03661,-0.8501 0.62196,0 0.74635,0.7464 1.32685,0.7464 0.78782,0 1.24392,-0.5597 1.24392,-0.9951" />
    <path
       inkscape:connector-curvature="0"
       id="path3046"
       style="font-size:32px;font-style:normal;font-variant:normal;font-weight:bold;font-stretch:normal;text-align:start;line-height:125%;letter-spacing:0px;word-spacing:0px;writing-mode:lr-tb;text-anchor:start;fill:#c3c3c3;fill-opacity:1;stroke:none;font-family:Baskervald ADF Std;-inkscape-font-specification:Baskervald ADF Std Bold"
       d="m 230.51212,1018.8999 c 0,1.0573 -1.28538,1.7622 -2.86102,1.7622 -1.05734,0 -2.46712,-0.083 -2.46712,-1.4719 0,-0.8501 0.39391,-1.1403 0.93294,-1.4306 -0.24878,-0.042 -0.87074,-0.2488 -1.07806,-0.2488 -1.38905,0 -2.28053,0.3732 -2.28053,1.6794 0,2.0732 2.90249,2.6951 4.80984,2.6951 2.63297,0 4.99643,-0.8915 4.99643,-3.5244 -0.0415,-4.0013 -6.80012,-2.3221 -6.80012,-3.7111 0.20732,-0.5805 1.76223,-0.539 2.11467,-0.5598 1.96955,-0.1036 3.46225,-1.3268 3.46225,-3.1097 0,-0.5599 -0.16585,-1.1611 -0.43537,-1.6587 0.0622,-0.1244 0.14512,-0.2281 0.20732,-0.2281 0.49757,0 0.66343,0.7672 1.14026,0.7672 0.7049,0 1.24393,-0.2695 1.24393,-0.9952 l 0,-0.1658 c 0,-0.622 -0.87075,-0.9537 -1.57564,-0.9537 -0.66343,0.042 -1.36832,0.4353 -1.86589,0.9537 -0.62195,-0.6635 -1.63783,-0.9537 -2.55004,-0.9537 -2.28052,0 -3.89763,1.2854 -3.89763,3.3172 0,1.1402 0.66343,2.0524 1.72076,2.5707 -1.53416,0.622 -2.15613,1.2025 -2.15613,1.7208 0,2.9439 7.33915,0.9537 7.33915,3.5452 m -1.86588,-7.9196 c 0,0.9951 -0.22806,2.2598 -1.20246,2.2598 -0.85002,0 -1.03661,-1.1818 -1.03661,-2.1147 0,-0.9745 0.10367,-2.4465 1.11954,-2.4465 0.99514,0 1.11953,1.2854 1.11953,2.3014" />
    <path
       d="m 134.56064,990.66744 c 5.74904,0 10.25507,5.98212 16.23719,5.98212 3.37951,0 8.77896,-2.83568 8.77896,-6.29288 0,-0.77689 -0.66036,-1.08766 -1.32073,-1.08766 -0.6992,0 -1.28188,0.31077 -1.4761,0.89343 -0.62152,1.94225 -1.74803,2.95222 -3.57374,2.95222 -5.011,0 -10.52699,-3.34067 -16.78103,-3.96219 1.74803,-0.73805 4.62256,-2.01993 6.44827,-2.44723 5.98212,-2.09762 9.43932,-7.10863 9.43932,-12.89653 0,-7.9632 -6.2152,-13.59574 -14.68339,-13.59574 -8.58473,0 -15.11069,5.59369 -15.11069,13.71228 0,7.65246 5.28292,12.97423 12.77999,13.55689 -1.74802,0.93228 -3.65143,1.70918 -5.4383,2.3307 -1.32072,0.3496 -2.13647,0.97112 -2.13647,1.63149 0,0.97112 0.89344,1.59264 1.59264,1.59264 2.09763,0 2.79685,-2.36954 5.24408,-2.36954 m 11.10966,-17.24717 c 0,5.98213 -1.55381,12.08079 -8.31283,12.08079 -6.37057,0 -8.23513,-5.82675 -8.23513,-11.53696 0,-5.94327 1.90341,-11.77002 8.42936,-11.77002 6.09865,0 8.1186,5.63253 8.1186,11.22619"
       style="font-size:32px;font-style:normal;font-variant:normal;font-weight:bold;font-stretch:normal;text-align:start;line-height:125%;letter-spacing:0px;word-spacing:0px;writing-mode:lr-tb;text-anchor:start;fill:#000000;fill-opacity:1;stroke:none;font-family:Baskervald ADF Std;-inkscape-font-specification:Baskervald ADF Std Bold"
       id="path3840"
       inkscape:connector-curvature="0" />
    <path
       d="m 172.14983,990.0536 0,-1.90341 c -1.98109,-0.0388 -2.48608,-1.04881 -2.48608,-2.64146 l 0,-11.57579 -7.38054,0 0,1.9034 c 1.9034,0.0388 2.40839,1.00997 2.40839,2.64146 l 0,7.6913 c -0.93228,0.89343 -1.78687,1.63149 -3.02991,1.63149 -1.78686,0 -2.36954,-1.28189 -2.36954,-3.26298 l 0,-10.60467 -7.3417,0 0,1.9034 c 1.9034,0.0388 2.3307,1.00997 2.3307,2.64146 l 0,6.5648 c 0,3.0299 1.28189,5.43829 5.55483,5.43829 1.94224,0 3.65143,-0.7769 5.12753,-2.09763 0.11654,0.54383 0.23307,1.12652 0.62152,1.90341 2.17532,-0.15538 4.23411,-0.23307 6.5648,-0.23307"
       style="font-size:32px;font-style:normal;font-variant:normal;font-weight:bold;font-stretch:normal;text-align:start;line-height:125%;letter-spacing:0px;word-spacing:0px;writing-mode:lr-tb;text-anchor:start;fill:#000000;fill-opacity:1;stroke:none;font-family:Baskervald ADF Std;-inkscape-font-specification:Baskervald ADF Std Bold"
       id="path3842"
       inkscape:connector-curvature="0" />
    <path
       inkscape:connector-curvature="0"
       id="path3844"
       style="font-size:32px;font-style:normal;font-variant:normal;font-weight:bold;font-stretch:normal;text-align:start;line-height:125%;letter-spacing:0px;word-spacing:0px;writing-mode:lr-tb;text-anchor:start;fill:#000000;fill-opacity:1;stroke:none;font-family:Baskervald ADF Std;-inkscape-font-specification:Baskervald ADF Std Bold"
       d="m 61.090156,1019.9914 c 5.74904,0 10.25507,5.9822 16.23719,5.9822 3.37951,0 8.77896,-2.8357 8.77896,-6.2929 0,-0.7769 -0.66036,-1.0877 -1.32073,-1.0877 -0.6992,0 -1.28188,0.3108 -1.4761,0.8935 -0.62152,1.9422 -1.74803,2.9522 -3.57374,2.9522 -5.011,0 -10.52699,-3.3407 -16.78103,-3.9622 1.74803,-0.7381 4.62256,-2.0199 6.44827,-2.4472 5.98212,-2.0977 9.43932,-7.1087 9.43932,-12.8966 0,-7.9634 -6.2152,-13.5959 -14.68339,-13.5959 -8.58473,0 -15.11069,5.5937 -15.11069,13.7125 0,7.6524 5.28292,12.9742 12.77999,13.5569 -1.74802,0.9322 -3.65143,1.7091 -5.4383,2.3307 -1.32072,0.3496 -2.13647,0.9711 -2.13647,1.6314 0,0.9712 0.89344,1.5927 1.59264,1.5927 2.09763,0 2.79685,-2.3696 5.24408,-2.3696 m 11.10966,-17.2471 c 0,5.9821 -1.55381,12.0808 -8.31283,12.0808 -6.37057,0 -8.23513,-5.8268 -8.23513,-11.537 0,-5.9435 1.90341,-11.7702 8.42936,-11.7702 6.09865,0 8.1186,5.6325 8.1186,11.2264" />
    <path
       inkscape:connector-curvature="0"
       id="path3846"
       style="font-size:32px;font-style:normal;font-variant:normal;font-weight:bold;font-stretch:normal;text-align:start;line-height:125%;letter-spacing:0px;word-spacing:0px;writing-mode:lr-tb;text-anchor:start;fill:#000000;fill-opacity:1;stroke:none;font-family:Baskervald ADF Std;-inkscape-font-specification:Baskervald ADF Std Bold"
       d="m 98.679346,1019.3776 0,-1.9034 c -1.98109,-0.039 -2.48608,-1.0488 -2.48608,-2.6415 l 0,-11.5758 -7.38054,0 0,1.9034 c 1.9034,0.039 2.40839,1.01 2.40839,2.6415 l 0,7.6913 c -0.93228,0.8934 -1.78687,1.6315 -3.02991,1.6315 -1.78686,0 -2.36954,-1.2819 -2.36954,-3.263 l 0,-10.6047 -7.3417,0 0,1.9034 c 1.9034,0.039 2.3307,1.01 2.3307,2.6415 l 0,6.5648 c 0,3.0299 1.28189,5.4383 5.55483,5.4383 1.94224,0 3.65143,-0.7769 5.12753,-2.0976 0.11654,0.5438 0.23307,1.1265 0.62152,1.9034 2.17532,-0.1554 4.23411,-0.2331 6.5648,-0.2331" />
  </g>
</svg>
