<?xml version="1.0" encoding="UTF-8" standalone="no"?>
<!-- Created with Inkscape (http://www.inkscape.org/) -->

<svg
   xmlns:dc="http://purl.org/dc/elements/1.1/"
   xmlns:cc="http://creativecommons.org/ns#"
   xmlns:rdf="http://www.w3.org/1999/02/22-rdf-syntax-ns#"
   xmlns:svg="http://www.w3.org/2000/svg"
   xmlns="http://www.w3.org/2000/svg"
   xmlns:xlink="http://www.w3.org/1999/xlink"
   xmlns:sodipodi="http://sodipodi.sourceforge.net/DTD/sodipodi-0.dtd"
   xmlns:inkscape="http://www.inkscape.org/namespaces/inkscape"
   sodipodi:docname="layout.svg"
   inkscape:version="0.48.0 r9654"
   version="1.1"
   id="svg2"
   height="500"
   width="1000">
  <sodipodi:namedview
     id="base"
     pagecolor="#ffffff"
     bordercolor="#666666"
     borderopacity="1.0"
     inkscape:pageopacity="0.0"
     inkscape:pageshadow="2"
     inkscape:zoom="2.8284271"
     inkscape:cx="200.46819"
     inkscape:cy="416.64551"
     inkscape:document-units="px"
     inkscape:current-layer="layer2"
     showgrid="false"
     inkscape:window-width="1366"
     inkscape:window-height="717"
     inkscape:window-x="0"
     inkscape:window-y="0"
     inkscape:window-maximized="1"
     inkscape:snap-nodes="true"
     inkscape:snap-bbox="false"
     inkscape:object-nodes="true"
     inkscape:snap-grids="false"
     inkscape:snap-to-guides="false"
     inkscape:snap-global="false">
    <inkscape:grid
       id="grid3913"
       type="xygrid" />
  </sodipodi:namedview>
  <defs
     id="defs4">
    <linearGradient
       id="linearGradient13430">
      <stop
         id="stop13432"
         offset="0"
         style="stop-color:#ffffff;stop-opacity:0" />
      <stop
         style="stop-color:#ffbdbd;stop-opacity:1;"
         offset="0.49166664"
         id="stop13434" />
      <stop
         id="stop13436"
         offset="1"
         style="stop-color:#ffffff;stop-opacity:0" />
    </linearGradient>
    <linearGradient
       id="linearGradient13332">
      <stop
         style="stop-color:#ffffff;stop-opacity:0"
         offset="0"
         id="stop13334" />
      <stop
         id="stop13340"
         offset="0.49166664"
         style="stop-color:#ffffff;stop-opacity:1" />
      <stop
         style="stop-color:#ffffff;stop-opacity:0"
         offset="1"
         id="stop13336" />
    </linearGradient>
    <filter
       inkscape:collect="always"
       id="filter13280">
      <feGaussianBlur
         inkscape:collect="always"
         stdDeviation="1.7922627"
         id="feGaussianBlur13282" />
    </filter>
    <filter
       inkscape:collect="always"
       id="filter13300"
       x="-0.38518519"
       width="1.7703704"
       y="-0.38518519"
       height="1.7703704">
      <feGaussianBlur
         inkscape:collect="always"
         stdDeviation="3.6977778"
         id="feGaussianBlur13302" />
    </filter>
    <filter
       inkscape:collect="always"
       id="filter13446"
       x="-0.0089424645"
       width="1.0178849"
       y="-0.18810045"
       height="1.3762009">
      <feGaussianBlur
         inkscape:collect="always"
         stdDeviation="0.1665613"
         id="feGaussianBlur13448" />
    </filter>
    <linearGradient
       inkscape:collect="always"
       xlink:href="#linearGradient13430"
       id="linearGradient13470"
       gradientUnits="userSpaceOnUse"
       x1="-229"
       y1="145"
       x2="-229"
       y2="50" />
    <linearGradient
       inkscape:collect="always"
       xlink:href="#linearGradient13430"
       id="linearGradient13472"
       gradientUnits="userSpaceOnUse"
       x1="-229"
       y1="145"
       x2="-229"
       y2="50" />
    <linearGradient
       inkscape:collect="always"
       xlink:href="#linearGradient13430"
       id="linearGradient13474"
       gradientUnits="userSpaceOnUse"
       x1="-229"
       y1="145"
       x2="-229"
       y2="50" />
    <linearGradient
       inkscape:collect="always"
       xlink:href="#linearGradient13430"
       id="linearGradient13476"
       gradientUnits="userSpaceOnUse"
       x1="-229"
       y1="145"
       x2="-229"
       y2="50" />
    <linearGradient
       inkscape:collect="always"
       xlink:href="#linearGradient13430"
       id="linearGradient13520"
       gradientUnits="userSpaceOnUse"
       x1="-229"
       y1="145"
       x2="-229"
       y2="50" />
    <linearGradient
       inkscape:collect="always"
       xlink:href="#linearGradient13430"
       id="linearGradient13522"
       gradientUnits="userSpaceOnUse"
       x1="-229"
       y1="145"
       x2="-229"
       y2="50" />
    <linearGradient
       inkscape:collect="always"
       xlink:href="#linearGradient13430"
       id="linearGradient13524"
       gradientUnits="userSpaceOnUse"
       x1="-229"
       y1="145"
       x2="-229"
       y2="50" />
    <linearGradient
       inkscape:collect="always"
       xlink:href="#linearGradient13430"
       id="linearGradient13526"
       gradientUnits="userSpaceOnUse"
       x1="-229"
       y1="145"
       x2="-229"
       y2="50" />
    <linearGradient
       inkscape:collect="always"
       xlink:href="#linearGradient13430"
       id="linearGradient13539"
       gradientUnits="userSpaceOnUse"
       x1="-229"
       y1="145"
       x2="-229"
       y2="50" />
    <linearGradient
       inkscape:collect="always"
       xlink:href="#linearGradient13430"
       id="linearGradient13541"
       gradientUnits="userSpaceOnUse"
       x1="-229"
       y1="145"
       x2="-229"
       y2="50" />
    <linearGradient
       inkscape:collect="always"
       xlink:href="#linearGradient13430"
       id="linearGradient13543"
       gradientUnits="userSpaceOnUse"
       x1="-229"
       y1="145"
       x2="-229"
       y2="50" />
    <linearGradient
       inkscape:collect="always"
       xlink:href="#linearGradient13430"
       id="linearGradient13545"
       gradientUnits="userSpaceOnUse"
       x1="-229"
       y1="145"
       x2="-229"
       y2="50" />
  </defs>
  <metadata
     id="metadata7">
    <rdf:RDF>
      <cc:Work
         rdf:about="">
        <dc:format>image/svg+xml</dc:format>
        <dc:type
           rdf:resource="http://purl.org/dc/dcmitype/StillImage" />
        <dc:title></dc:title>
      </cc:Work>
    </rdf:RDF>
  </metadata>
  <g
     inkscape:groupmode="layer"
     id="layer3"
     inkscape:label="Layer#1"
     sodipodi:insensitive="true"
     style="opacity:0">
    <rect
       style="fill:#000000;stroke:none;display:inline"
       id="rect13172"
       width="239.00209"
       height="204.35387"
       x="-23.334524"
       y="130.89026" />
  </g>
  <g
     style="display:inline"
     inkscape:label="Layer"
     id="layer2"
     inkscape:groupmode="layer">
    <g
       id="g13528"
       transform="translate(1.636039,-73.903066)">
      <g
         transform="matrix(1.1823148,0,0,1.1823148,25.232256,106.22638)"
         style="font-size:32px;font-style:normal;font-weight:normal;line-height:125%;letter-spacing:0px;word-spacing:0px;fill:#ff0000;fill-opacity:0.76056339;stroke:none;display:inline;filter:url(#filter13280);font-family:Sans"
         id="text4101-0-1">
        <path
           d="m -10.306448,0.93745273 c -1e-6,-1.5999872 -6.821509,-6.99524923 -6.224174,-8.38193023 8.3686638,4.8420171 10.3301426,-10.6562255 11.3541461,-11.6802435 1.0453278,-1.045313 2.6678025,6.555075 4.0544759,5.95772 1.4079905,-0.618644 10.6767461,-10.722981 12.276757,-10.723004 1.599986,2.3e-5 -1.080608,11.825017 0.306075,12.443661 1.407981,0.597355 11.119154,-1.314034 12.143174,-0.268721 2.204575,-3.858107 -7.545303,6.9748513 -6.967663,8.3980003 0.618643,1.386681 8.611689,6.1916601 8.611713,7.7916473 -2.4e-5,1.6000097 -7.397413,-1.0705755 -8.016056,0.3374164 -0.597356,1.386672 -2.055106,11.291671 -3.100418,12.337 -1.02402,1.024002 -3.603601,-6.718665 -5.011582,-6.1 C 7.7359903,11.635641 10.281951,8.2325525 7.1179446,14.488638 6.3958391,15.916433 3.8547174,12.717472 2.4467269,12.120139 1.0600535,11.501474 1.7272918,21.614352 0.68196396,20.59035 -0.34203954,19.545021 -5.7285085,10.199646 -6.3471725,8.8129741 -6.9445075,7.4049822 -18.612748,12.817732 -18.612747,11.217723"
           style="font-variant:normal;font-weight:500;font-stretch:normal;fill:#ff0000;fill-opacity:0.76056339;font-family:Radis Sans;-inkscape-font-specification:Radis Sans Medium"
           id="path4106-0-8"
           inkscape:connector-curvature="0"
           sodipodi:nodetypes="ccccccccccccscccc" />
      </g>
      <g
         transform="matrix(0.96294374,0.26970236,-0.26970236,0.96294374,-2.074629,-142.80315)"
         id="g13464">
        <rect
           y="50"
           x="-229"
           height="95"
           width="1"
           id="rect13342"
           style="fill:url(#linearGradient13539);fill-opacity:1;stroke:none;filter:url(#filter13446)"
           transform="matrix(0,-2.1251789,1,0,0,-256.41597)" />
        <rect
           transform="matrix(1.5027284,-1.5027284,0.70710678,0.70710678,371.93053,-183.12894)"
           style="fill:url(#linearGradient13541);fill-opacity:1;stroke:none;filter:url(#filter13446)"
           id="rect13450"
           width="1"
           height="95"
           x="-229"
           y="50" />
        <rect
           y="50"
           x="-229"
           height="95"
           width="1"
           id="rect13456"
           style="fill:url(#linearGradient13543);fill-opacity:1;stroke:none;filter:url(#filter13446)"
           transform="matrix(2.1251789,0,0,1,583.10338,131.68741)" />
        <rect
           transform="matrix(1.5027284,1.5027284,-0.70710678,0.70710678,509.81635,503.61794)"
           style="fill:url(#linearGradient13545);fill-opacity:1;stroke:none;filter:url(#filter13446)"
           id="rect13460"
           width="1"
           height="95"
           x="-229"
           y="50" />
      </g>
      <g
         id="g13256"
         style="font-size:32px;font-style:normal;font-weight:normal;line-height:125%;letter-spacing:0px;word-spacing:0px;fill:#ffffff;fill-opacity:1;stroke:none;display:inline;filter:url(#filter13300);font-family:Sans"
         transform="matrix(1.2426981,0,0,1.2426981,24.316797,106.66838)">
        <path
           sodipodi:nodetypes="ccccccccccccscccc"
           inkscape:connector-curvature="0"
           id="path13258"
           style="font-variant:normal;font-weight:500;font-stretch:normal;fill:#ffffff;font-family:Radis Sans;-inkscape-font-specification:Radis Sans Medium"
           d="m -7.38,-2.200001 c -1.1e-6,-1.5999872 0.2986652,-3.093319 0.896,-4.48 0.618664,-1.4079829 1.4399965,-2.6239816 2.464,-3.648 1.0453278,-1.045313 2.2613266,-1.866645 3.648,-2.464 1.4079905,-0.618644 2.911989,-0.927977 4.512,-0.928 1.5999858,2.3e-5 3.0933176,0.309356 4.48,0.928 1.407981,0.597355 2.62398,1.418687 3.648,2.464 1.045312,1.0240184 1.866644,2.2400171 2.464,3.648 0.618643,1.386681 0.927976,2.8800128 0.928,4.48 -2.4e-5,1.60000965 -0.309357,3.10400814 -0.928,4.512 -0.597356,1.386672 -1.418688,2.6026708 -2.464,3.648 -1.02402,1.0240021 -2.240019,1.8453346 -3.648,2.464 -1.3866824,0.5973334 -2.8800142,0.8959997 -4.48,0.896 -1.600011,-3e-7 -3.1040095,-0.2986666 -4.512,-0.896 -1.3866734,-0.6186654 -2.6026722,-1.4399979 -3.648,-2.464 -1.0240035,-1.0453292 -1.845336,-2.261328 -2.464,-3.648 -0.5973348,-1.40799186 -0.8960011,-2.91199035 -0.896,-4.512" />
      </g>
    </g>
  </g>
  <g
     transform="translate(0,-552.36218)"
     id="layer1"
     inkscape:groupmode="layer"
     inkscape:label="Layer 1">
    <flowRoot
       style="fill:#000000;stroke:none;stroke-opacity:1;stroke-width:1px;stroke-linejoin:miter;stroke-linecap:butt;fill-opacity:1;font-family:Sans;font-style:normal;font-weight:normal;font-size:16px;line-height:125%;letter-spacing:0px;word-spacing:0px"
       id="flowRoot2990"
       xml:space="preserve"><flowRegion
         id="flowRegion2992"><rect
           style="font-size:16px;fill:#000000"
           y="0"
           x="0"
           height="146"
           width="1001"
           id="rect2994" /></flowRegion><flowPara
         id="flowPara2996" /></flowRoot>    <text
       transform="translate(0,552.36218)"
       sodipodi:linespacing="125%"
       id="text2998"
       y="21"
       x="16"
       style="font-size:64px;font-style:normal;font-weight:normal;line-height:125%;letter-spacing:0px;word-spacing:0px;fill:#000000;fill-opacity:1;stroke:none;font-family:Sans"
       xml:space="preserve"><tspan
         y="21"
         x="16"
         id="tspan3000"
         sodipodi:role="line" /></text>
    <g
       transform="translate(26,-4)"
       id="g4108">
      <g
         id="g4029"
         transform="translate(37.75,18)">
        <path
           d="m 30.16,578.93018 -0.032,2.752 -11.456,0 -0.032,0 c -1.600011,0 -3.10401,-0.29866 -4.512,-0.896 -1.386673,-0.59733 -2.602672,-1.41866 -3.648,-2.464 -1.0453368,-1.06666 -1.8666693,-2.29333 -2.464,-3.68 -0.5973348,-1.38666 -0.8960011,-2.87999 -0.896,-4.48 -1.1e-6,-1.59998 0.2986652,-3.09332 0.896,-4.48 0.5973307,-1.40798 1.4186632,-2.63465 2.464,-3.68 1.045328,-1.04531 2.261327,-1.86664 3.648,-2.464 1.40799,-0.59731 2.911989,-0.89597 4.512,-0.896 1.599986,3e-5 3.093318,0.29869 4.48,0.896 1.386648,0.59736 2.602647,1.41869 3.648,2.464 1.045312,1.04535 1.866644,2.27202 2.464,3.68 0.618643,1.38668 0.927976,2.88002 0.928,4.48 -2.4e-5,1.60001 -0.309357,3.09334 -0.928,4.48 -0.597356,1.38667 -1.418688,2.61334 -2.464,3.68 -0.106687,0.10667 -0.213354,0.21334 -0.32,0.32 -0.106687,0.0853 -0.22402,0.18134 -0.352,0.288 l 4.032,0 0.032,0 m -11.52,0 c 1.215986,1e-5 2.346652,-0.22399 3.392,-0.672 1.06665,-0.46933 2.005315,-1.09866 2.816,-1.888 0.789314,-0.81066 1.40798,-1.73866 1.856,-2.784 0.469312,-1.06666 0.703979,-2.20799 0.704,-3.424 -2.1e-5,-1.21598 -0.234688,-2.34665 -0.704,-3.392 -0.44802,-1.06665 -1.066686,-2.00531 -1.856,-2.816 -0.810685,-0.81065 -1.74935,-1.43998 -2.816,-1.888 -1.045348,-0.44798 -2.176014,-0.67198 -3.392,-0.672 -1.216011,2e-5 -2.357344,0.22402 -3.424,0.672 -1.045342,0.44802 -1.973341,1.07735 -2.784,1.888 -0.810672,0.81069 -1.440005,1.74935 -1.888,2.816 -0.448004,1.04535 -0.6720039,2.17602 -0.672,3.392 -3.9e-6,1.21601 0.223996,2.35734 0.672,3.424 0.447995,1.04534 1.077328,1.97334 1.888,2.784 0.810659,0.78934 1.738658,1.41867 2.784,1.888 1.066656,0.44801 2.207989,0.67201 3.424,0.672"
           style="font-size:32px;font-style:normal;font-variant:normal;font-weight:500;font-stretch:normal;line-height:125%;letter-spacing:0px;word-spacing:0px;fill:#000000;fill-opacity:1;stroke:none;font-family:Radis Sans;-inkscape-font-specification:Radis Sans Medium"
           id="path3969"
           inkscape:connector-curvature="0" />
        <path
           d="m 32.914,565.87418 2.72,0 0,8.96 c -4e-6,1.21601 0.362662,2.19734 1.088,2.944 0.725327,0.74667 1.653326,1.12001 2.784,1.12 1.087991,10e-6 1.98399,-0.37333 2.688,-1.12 0.725322,-0.74666 1.087988,-1.72799 1.088,-2.944 l 0,-8.96 2.784,0 0,8.48 c -1.5e-5,1.15201 -0.160015,2.17601 -0.48,3.072 -0.320014,0.89601 -0.77868,1.65334 -1.376,2.272 -0.576012,0.61867 -1.269345,1.09867 -2.08,1.44 -0.789343,0.32 -1.664009,0.48 -2.624,0.48 -0.960007,0 -1.84534,-0.16 -2.656,-0.48 -0.810671,-0.34133 -1.514671,-0.82133 -2.112,-1.44 -0.576003,-0.61866 -1.024002,-1.37599 -1.344,-2.272 -0.320002,-0.89599 -0.480002,-1.91999 -0.48,-3.072 l 0,-8.48"
           style="font-size:32px;font-style:normal;font-variant:normal;font-weight:500;font-stretch:normal;line-height:125%;letter-spacing:0px;word-spacing:0px;fill:#000000;fill-opacity:1;stroke:none;font-family:Radis Sans;-inkscape-font-specification:Radis Sans Medium"
           id="path3971"
           inkscape:connector-curvature="0" />
        <path
           d="m 64.1995,574.80218 0,6.56 -2.784,0 0,-1.696 c -0.661346,0.61867 -1.418679,1.09867 -2.272,1.44 -0.832011,0.34134 -1.76001,0.512 -2.784,0.512 -1.088008,0 -2.10134,-0.21333 -3.04,-0.64 -0.938671,-0.42666 -1.760004,-1.00266 -2.464,-1.728 -0.704002,-0.72533 -1.258669,-1.57866 -1.664,-2.56 -0.384001,-0.98133 -0.576001,-2.01599 -0.576,-3.104 -10e-7,-1.17332 0.191999,-2.25065 0.576,-3.232 0.405331,-0.98132 0.959998,-1.82398 1.664,-2.528 0.703996,-0.70398 1.525329,-1.24798 2.464,-1.632 0.93866,-0.40532 1.951992,-0.60798 3.04,-0.608 1.066657,2e-5 2.069323,0.19202 3.008,0.576 0.938654,0.36268 1.759987,0.88535 2.464,1.568 0.703985,0.66135 1.258651,1.47201 1.664,2.432 0.42665,0.96001 0.661317,2.01601 0.704,3.168 l 0,0.256 0,1.216 m -7.84,4.096 c 0.682657,10e-6 1.322657,-0.10666 1.92,-0.32 0.618655,-0.23466 1.162655,-0.57599 1.632,-1.024 0.469321,-0.44799 0.831987,-1.00266 1.088,-1.664 0.27732,-0.66132 0.415986,-1.42932 0.416,-2.304 -1.4e-5,-0.83199 -0.128014,-1.57865 -0.384,-2.24 -0.256013,-0.66132 -0.608013,-1.21599 -1.056,-1.664 -0.448012,-0.46932 -0.970678,-0.83198 -1.568,-1.088 -0.597343,-0.25598 -1.226676,-0.38398 -1.888,-0.384 -0.704008,2e-5 -1.365341,0.12802 -1.984,0.384 -0.59734,0.25602 -1.120006,0.62935 -1.568,1.12 -0.448005,0.46935 -0.810671,1.03468 -1.088,1.696 -0.256004,0.66135 -0.384004,1.38668 -0.384,2.176 -4e-6,0.68268 0.127996,1.34401 0.384,1.984 0.255996,0.64001 0.597329,1.20534 1.024,1.696 0.447994,0.49067 0.959994,0.88534 1.536,1.184 0.597326,0.29867 1.237325,0.44801 1.92,0.448"
           style="font-size:32px;font-style:normal;font-variant:normal;font-weight:500;font-stretch:normal;line-height:125%;letter-spacing:0px;word-spacing:0px;fill:#000000;fill-opacity:1;stroke:none;font-family:Radis Sans;-inkscape-font-specification:Radis Sans Medium"
           id="path3973"
           inkscape:connector-curvature="0" />
        <path
           d="m 67.638,558.64218 2.752,0 0,22.72 -2.752,0 0,-22.72"
           style="font-size:32px;font-style:normal;font-variant:normal;font-weight:500;font-stretch:normal;line-height:125%;letter-spacing:0px;word-spacing:0px;fill:#000000;fill-opacity:1;stroke:none;font-family:Radis Sans;-inkscape-font-specification:Radis Sans Medium"
           id="path3975"
           inkscape:connector-curvature="0" />
        <path
           d="m 74.138,565.87418 2.752,0 0,15.488 -2.752,0 0,-15.488 m 3.072,-5.344 c -5e-6,0.44802 -0.170671,0.84269 -0.512,1.184 -0.320004,0.32002 -0.71467,0.48002 -1.184,0.48 -0.448003,2e-5 -0.842669,-0.15998 -1.184,-0.48 -0.320002,-0.34131 -0.480002,-0.73598 -0.48,-1.184 -2e-6,-0.46931 0.159998,-0.86398 0.48,-1.184 0.341331,-0.34131 0.735997,-0.51197 1.184,-0.512 0.46933,3e-5 0.863996,0.17069 1.184,0.512 0.341329,0.32002 0.511995,0.71469 0.512,1.184"
           style="font-size:32px;font-style:normal;font-variant:normal;font-weight:500;font-stretch:normal;line-height:125%;letter-spacing:0px;word-spacing:0px;fill:#000000;fill-opacity:1;stroke:none;font-family:Radis Sans;-inkscape-font-specification:Radis Sans Medium"
           id="path3977"
           inkscape:connector-curvature="0" />
        <path
           d="m 88.766,578.70618 0,2.656 -0.608,0 c -1.322675,0 -2.560007,-0.18133 -3.712,-0.544 -1.152005,-0.36266 -2.05867,-1.04533 -2.72,-2.048 -0.256003,-0.40533 -0.469336,-0.85333 -0.64,-1.344 -0.149336,-0.49066 -0.266669,-0.97066 -0.352,-1.44 -0.08534,-0.46932 -0.149335,-0.89599 -0.192,-1.28 -0.04267,-0.40532 -0.07467,-0.71466 -0.096,-0.928 l 0,-11.776 2.752,0 0,3.872 5.536,0 0,2.752 -5.536,0 0,4.512 c -4e-6,1.96268 0.394662,3.38134 1.184,4.256 0.81066,0.87467 2.143992,1.31201 4,1.312 l 0.384,0"
           style="font-size:32px;font-style:normal;font-variant:normal;font-weight:500;font-stretch:normal;line-height:125%;letter-spacing:0px;word-spacing:0px;fill:#000000;fill-opacity:1;stroke:none;font-family:Radis Sans;-inkscape-font-specification:Radis Sans Medium"
           id="path3979"
           inkscape:connector-curvature="0" />
        <path
           d="m 103.534,574.41818 0,0.576 0,0.064 0,3.936 c -0.0214,0.256 -0.032,0.50134 -0.032,0.736 -0.0213,0.21334 -0.032,0.43734 -0.032,0.672 -1e-5,0.23467 -0.0107,0.43734 -0.032,0.608 -1e-5,0.192 -0.0213,0.45867 -0.064,0.8 -0.0213,0.34134 -0.0853,0.72533 -0.192,1.152 -0.0854,0.42667 -0.22401,0.896 -0.416,1.408 -0.19201,0.512 -0.45868,1.024 -0.8,1.536 -0.32001,0.512 -0.71468,0.93866 -1.184,1.28 -0.44801,0.34133 -0.960011,0.608 -1.536,0.8 -0.554677,0.21333 -1.152009,0.352 -1.792,0.416 -0.640008,0.0853 -1.290674,0.128 -1.952,0.128 l -0.704,0 c -0.618672,-0.0213 -1.237338,-0.0747 -1.856,-0.16 -0.61867,-0.064 -1.205336,-0.192 -1.76,-0.384 l 1.12,-2.688 c 0.383996,0.17067 0.831996,0.30933 1.344,0.416 0.511995,0.10666 1.077327,0.16 1.696,0.16 l 0.32,0 c 1.706658,-0.0427 2.97599,-0.50133 3.808,-1.376 0.85332,-0.87467 1.30132,-2.24 1.344,-4.096 l 0,-0.512 c -0.61868,0.512 -1.205344,0.91734 -1.76,1.216 -0.554676,0.27734 -1.205342,0.448 -1.952,0.512 l -0.032,0 -0.352,0 -0.256,0 0.032,0 c -1.813339,-0.10666 -3.285338,-0.77866 -4.416,-2.016 -1.109336,-1.25866 -1.664002,-2.98666 -1.664,-5.184 l 0,-8.544 2.72,0 0,9.056 c -4e-6,1.19467 0.362662,2.15467 1.088,2.88 0.74666,0.72534 1.695993,1.08801 2.848,1.088 1.066657,10e-6 1.95199,-0.36266 2.656,-1.088 0.70399,-0.72533 1.05599,-1.68533 1.056,-2.88 l 0,-9.056 2.752,0 0,8.544"
           style="font-size:32px;font-style:normal;font-variant:normal;font-weight:500;font-stretch:normal;line-height:125%;letter-spacing:0px;word-spacing:0px;fill:#000000;fill-opacity:1;stroke:none;font-family:Radis Sans;-inkscape-font-specification:Radis Sans Medium"
           id="path3981"
           inkscape:connector-curvature="0" />
      </g>
      <g
         id="g4038"
         transform="translate(20,0)">
        <path
           d="m 30.16,618.93018 -0.032,2.752 -11.456,0 -0.032,0 c -1.600011,0 -3.10401,-0.29866 -4.512,-0.896 -1.386673,-0.59733 -2.602672,-1.41866 -3.648,-2.464 -1.0453368,-1.06666 -1.8666693,-2.29333 -2.464,-3.68 -0.5973348,-1.38666 -0.8960011,-2.87999 -0.896,-4.48 -1.1e-6,-1.59998 0.2986652,-3.09332 0.896,-4.48 0.5973307,-1.40798 1.4186632,-2.63465 2.464,-3.68 1.045328,-1.04531 2.261327,-1.86664 3.648,-2.464 1.40799,-0.59731 2.911989,-0.89597 4.512,-0.896 1.599986,3e-5 3.093318,0.29869 4.48,0.896 1.386648,0.59736 2.602647,1.41869 3.648,2.464 1.045312,1.04535 1.866644,2.27202 2.464,3.68 0.618643,1.38668 0.927976,2.88002 0.928,4.48 -2.4e-5,1.60001 -0.309357,3.09334 -0.928,4.48 -0.597356,1.38667 -1.418688,2.61334 -2.464,3.68 -0.106687,0.10667 -0.213354,0.21334 -0.32,0.32 -0.106687,0.0853 -0.22402,0.18134 -0.352,0.288 l 4.032,0 0.032,0 m -11.52,0 c 1.215986,1e-5 2.346652,-0.22399 3.392,-0.672 1.06665,-0.46933 2.005315,-1.09866 2.816,-1.888 0.789314,-0.81066 1.40798,-1.73866 1.856,-2.784 0.469312,-1.06666 0.703979,-2.20799 0.704,-3.424 -2.1e-5,-1.21598 -0.234688,-2.34665 -0.704,-3.392 -0.44802,-1.06665 -1.066686,-2.00531 -1.856,-2.816 -0.810685,-0.81065 -1.74935,-1.43998 -2.816,-1.888 -1.045348,-0.44798 -2.176014,-0.67198 -3.392,-0.672 -1.216011,2e-5 -2.357344,0.22402 -3.424,0.672 -1.045342,0.44802 -1.973341,1.07735 -2.784,1.888 -0.810672,0.81069 -1.440005,1.74935 -1.888,2.816 -0.448004,1.04535 -0.6720039,2.17602 -0.672,3.392 -3.9e-6,1.21601 0.223996,2.35734 0.672,3.424 0.447995,1.04534 1.077328,1.97334 1.888,2.784 0.810659,0.78934 1.738658,1.41867 2.784,1.888 1.066656,0.44801 2.207989,0.67201 3.424,0.672"
           style="font-size:32px;font-style:normal;font-variant:normal;font-weight:500;font-stretch:normal;line-height:125%;letter-spacing:0px;word-spacing:0px;fill:#000000;fill-opacity:1;stroke:none;font-family:Radis Sans;-inkscape-font-specification:Radis Sans Medium"
           id="path3983"
           inkscape:connector-curvature="0" />
        <path
           d="m 32.914,605.87418 2.72,0 0,8.96 c -4e-6,1.21601 0.362662,2.19734 1.088,2.944 0.725327,0.74667 1.653326,1.12001 2.784,1.12 1.087991,10e-6 1.98399,-0.37333 2.688,-1.12 0.725322,-0.74666 1.087988,-1.72799 1.088,-2.944 l 0,-8.96 2.784,0 0,8.48 c -1.5e-5,1.15201 -0.160015,2.17601 -0.48,3.072 -0.320014,0.89601 -0.77868,1.65334 -1.376,2.272 -0.576012,0.61867 -1.269345,1.09867 -2.08,1.44 -0.789343,0.32 -1.664009,0.48 -2.624,0.48 -0.960007,0 -1.84534,-0.16 -2.656,-0.48 -0.810671,-0.34133 -1.514671,-0.82133 -2.112,-1.44 -0.576003,-0.61866 -1.024002,-1.37599 -1.344,-2.272 -0.320002,-0.89599 -0.480002,-1.91999 -0.48,-3.072 l 0,-8.48"
           style="font-size:32px;font-style:normal;font-variant:normal;font-weight:500;font-stretch:normal;line-height:125%;letter-spacing:0px;word-spacing:0px;fill:#000000;fill-opacity:1;stroke:none;font-family:Radis Sans;-inkscape-font-specification:Radis Sans Medium"
           id="path3985"
           inkscape:connector-curvature="0" />
        <path
           d="m 49.5755,605.87418 2.752,0 0,15.488 -2.752,0 0,-15.488 m 3.072,-5.344 c -5e-6,0.44802 -0.170671,0.84269 -0.512,1.184 -0.320004,0.32002 -0.71467,0.48002 -1.184,0.48 -0.448003,2e-5 -0.842669,-0.15998 -1.184,-0.48 -0.320002,-0.34131 -0.480002,-0.73598 -0.48,-1.184 -2e-6,-0.46931 0.159998,-0.86398 0.48,-1.184 0.341331,-0.34131 0.735997,-0.51197 1.184,-0.512 0.46933,3e-5 0.863996,0.17069 1.184,0.512 0.341329,0.32002 0.511995,0.71469 0.512,1.184"
           style="font-size:32px;font-style:normal;font-variant:normal;font-weight:500;font-stretch:normal;line-height:125%;letter-spacing:0px;word-spacing:0px;fill:#000000;fill-opacity:1;stroke:none;font-family:Radis Sans;-inkscape-font-specification:Radis Sans Medium"
           id="path3987"
           inkscape:connector-curvature="0" />
        <path
           d="m 63.8835,605.87418 c 0.959989,2e-5 1.674655,0.17068 2.144,0.512 0.469321,0.34135 0.703987,0.82135 0.704,1.44 -1.3e-5,0.72535 -0.298679,1.41868 -0.896,2.08 l -7.744,8.832 8.704,0 0,2.624 -9.184,0 c -1.813335,0 -2.720001,-0.68266 -2.72,-2.048 -10e-7,-0.36266 0.096,-0.70399 0.288,-1.024 0.191999,-0.34133 0.469332,-0.71466 0.832,-1.12 l 7.488,-8.544 -8,0 0,-2.752 8.384,0 0,0"
           style="font-size:32px;font-style:normal;font-variant:normal;font-weight:500;font-stretch:normal;line-height:125%;letter-spacing:0px;word-spacing:0px;fill:#000000;fill-opacity:1;stroke:none;font-family:Radis Sans;-inkscape-font-specification:Radis Sans Medium"
           id="path3989"
           inkscape:connector-curvature="0" />
      </g>
      <g
         id="g4044"
         transform="translate(2.25,-18)">
        <path
           d="m 30.16,658.93018 -0.032,2.752 -11.456,0 -0.032,0 c -1.600011,0 -3.10401,-0.29866 -4.512,-0.896 -1.386673,-0.59733 -2.602672,-1.41866 -3.648,-2.464 -1.0453368,-1.06666 -1.8666693,-2.29333 -2.464,-3.68 -0.5973348,-1.38666 -0.8960011,-2.87999 -0.896,-4.48 -1.1e-6,-1.59998 0.2986652,-3.09332 0.896,-4.48 0.5973307,-1.40798 1.4186632,-2.63465 2.464,-3.68 1.045328,-1.04531 2.261327,-1.86664 3.648,-2.464 1.40799,-0.59731 2.911989,-0.89597 4.512,-0.896 1.599986,3e-5 3.093318,0.29869 4.48,0.896 1.386648,0.59736 2.602647,1.41869 3.648,2.464 1.045312,1.04535 1.866644,2.27202 2.464,3.68 0.618643,1.38668 0.927976,2.88002 0.928,4.48 -2.4e-5,1.60001 -0.309357,3.09334 -0.928,4.48 -0.597356,1.38667 -1.418688,2.61334 -2.464,3.68 -0.106687,0.10667 -0.213354,0.21334 -0.32,0.32 -0.106687,0.0853 -0.22402,0.18134 -0.352,0.288 l 4.032,0 0.032,0 m -11.52,0 c 1.215986,1e-5 2.346652,-0.22399 3.392,-0.672 1.06665,-0.46933 2.005315,-1.09866 2.816,-1.888 0.789314,-0.81066 1.40798,-1.73866 1.856,-2.784 0.469312,-1.06666 0.703979,-2.20799 0.704,-3.424 -2.1e-5,-1.21598 -0.234688,-2.34665 -0.704,-3.392 -0.44802,-1.06665 -1.066686,-2.00531 -1.856,-2.816 -0.810685,-0.81065 -1.74935,-1.43998 -2.816,-1.888 -1.045348,-0.44798 -2.176014,-0.67198 -3.392,-0.672 -1.216011,2e-5 -2.357344,0.22402 -3.424,0.672 -1.045342,0.44802 -1.973341,1.07735 -2.784,1.888 -0.810672,0.81069 -1.440005,1.74935 -1.888,2.816 -0.448004,1.04535 -0.6720039,2.17602 -0.672,3.392 -3.9e-6,1.21601 0.223996,2.35734 0.672,3.424 0.447995,1.04534 1.077328,1.97334 1.888,2.784 0.810659,0.78934 1.738658,1.41867 2.784,1.888 1.066656,0.44801 2.207989,0.67201 3.424,0.672"
           style="font-size:32px;font-style:normal;font-variant:normal;font-weight:500;font-stretch:normal;line-height:125%;letter-spacing:0px;word-spacing:0px;fill:#000000;fill-opacity:1;stroke:none;font-family:Radis Sans;-inkscape-font-specification:Radis Sans Medium"
           id="path3991"
           inkscape:connector-curvature="0" />
        <path
           d="m 32.914,645.87418 2.72,0 0,8.96 c -4e-6,1.21601 0.362662,2.19734 1.088,2.944 0.725327,0.74667 1.653326,1.12001 2.784,1.12 1.087991,10e-6 1.98399,-0.37333 2.688,-1.12 0.725322,-0.74666 1.087988,-1.72799 1.088,-2.944 l 0,-8.96 2.784,0 0,8.48 c -1.5e-5,1.15201 -0.160015,2.17601 -0.48,3.072 -0.320014,0.89601 -0.77868,1.65334 -1.376,2.272 -0.576012,0.61867 -1.269345,1.09867 -2.08,1.44 -0.789343,0.32 -1.664009,0.48 -2.624,0.48 -0.960007,0 -1.84534,-0.16 -2.656,-0.48 -0.810671,-0.34133 -1.514671,-0.82133 -2.112,-1.44 -0.576003,-0.61866 -1.024002,-1.37599 -1.344,-2.272 -0.320002,-0.89599 -0.480002,-1.91999 -0.48,-3.072 l 0,-8.48"
           style="font-size:32px;font-style:normal;font-variant:normal;font-weight:500;font-stretch:normal;line-height:125%;letter-spacing:0px;word-spacing:0px;fill:#000000;fill-opacity:1;stroke:none;font-family:Radis Sans;-inkscape-font-specification:Radis Sans Medium"
           id="path3993"
           inkscape:connector-curvature="0" />
        <path
           d="m 64.2315,653.58618 c -1.7e-5,0.49068 -0.03202,0.96001 -0.096,1.408 l -12.448,0 c 0.149329,0.55468 0.373329,1.06667 0.672,1.536 0.298662,0.46934 0.650661,0.88534 1.056,1.248 0.426661,0.36267 0.885327,0.65067 1.376,0.864 0.511992,0.19201 1.055992,0.28801 1.632,0.288 0.981324,1e-5 1.866656,-0.18133 2.656,-0.544 0.810654,-0.38399 1.429321,-1.05599 1.856,-2.016 l 2.848,0 c -0.256016,0.81067 -0.618682,1.53601 -1.088,2.176 -0.469348,0.64 -1.024014,1.19467 -1.664,1.664 -0.640013,0.448 -1.354679,0.8 -2.144,1.056 -0.76801,0.23467 -1.589343,0.352 -2.464,0.352 -1.088008,0 -2.112007,-0.20266 -3.072,-0.608 -0.938671,-0.42666 -1.760004,-1.00266 -2.464,-1.728 -0.682669,-0.72533 -1.226669,-1.57866 -1.632,-2.56 -0.384001,-0.98133 -0.576001,-2.02666 -0.576,-3.136 -10e-7,-1.17332 0.191999,-2.25065 0.576,-3.232 0.405331,-0.98132 0.949331,-1.82398 1.632,-2.528 0.703996,-0.72532 1.525329,-1.27998 2.464,-1.664 0.959993,-0.40532 1.983992,-0.60798 3.072,-0.608 1.08799,2e-5 2.101322,0.19202 3.04,0.576 0.959987,0.38402 1.791986,0.92802 2.496,1.632 0.703985,0.70402 1.258651,1.55735 1.664,2.56 0.405317,0.98135 0.607983,2.06934 0.608,3.264 m -7.68,-5.376 c -0.618675,2e-5 -1.205341,0.10668 -1.76,0.32 -0.53334,0.19202 -1.024006,0.48001 -1.472,0.864 -0.448005,0.36268 -0.821338,0.81068 -1.12,1.344 -0.298671,0.53335 -0.512004,1.13068 -0.64,1.792 l 9.824,0 c -0.213347,-1.34399 -0.77868,-2.39999 -1.696,-3.168 -0.896011,-0.76798 -1.941343,-1.15198 -3.136,-1.152"
           style="font-size:32px;font-style:normal;font-variant:normal;font-weight:500;font-stretch:normal;line-height:125%;letter-spacing:0px;word-spacing:0px;fill:#000000;fill-opacity:1;stroke:none;font-family:Radis Sans;-inkscape-font-specification:Radis Sans Medium"
           id="path3995"
           inkscape:connector-curvature="0" />
        <path
           d="m 73.5045,661.36218 -2.592,0 c -0.618672,0 -1.205338,-0.11733 -1.76,-0.352 -0.55467,-0.23466 -1.034669,-0.56533 -1.44,-0.992 -0.426669,-0.40533 -0.757335,-0.88533 -0.992,-1.44 -0.234668,-0.55466 -0.352001,-1.14133 -0.352,-1.76 l 2.752,0 c -4e-6,0.46934 0.170663,0.89601 0.512,1.28 0.383995,0.34134 0.810662,0.51201 1.28,0.512 l 2.592,0 c 0.490658,10e-6 0.906658,-0.17066 1.248,-0.512 0.362657,-0.36266 0.54399,-0.78933 0.544,-1.28 -10e-6,-0.53333 -0.181343,-0.95999 -0.544,-1.28 -0.320009,-0.36266 -0.736009,-0.54399 -1.248,-0.544 l -2.592,0 c -0.618672,10e-6 -1.205338,-0.11732 -1.76,-0.352 -0.55467,-0.23466 -1.034669,-0.56532 -1.44,-0.992 -0.426669,-0.40532 -0.757335,-0.88532 -0.992,-1.44 -0.234668,-0.55465 -0.352001,-1.14132 -0.352,-1.76 -10e-7,-0.63999 0.117332,-1.23732 0.352,-1.792 0.234665,-0.55465 0.565331,-1.03465 0.992,-1.44 0.405331,-0.42665 0.88533,-0.75732 1.44,-0.992 0.554662,-0.23465 1.141328,-0.35198 1.76,-0.352 l 2.592,0 c 0.618658,2e-5 1.205324,0.11735 1.76,0.352 0.554656,0.23468 1.034656,0.56535 1.44,0.992 0.426655,0.40535 0.757321,0.88535 0.992,1.44 0.234654,0.55468 0.351987,1.15201 0.352,1.792 l -2.752,0 c -10e-6,-0.53332 -0.181343,-0.95999 -0.544,-1.28 -0.320009,-0.36265 -0.736009,-0.54398 -1.248,-0.544 l -2.592,0 c -0.490672,2e-5 -0.917338,0.18135 -1.28,0.544 -0.341337,0.34135 -0.512004,0.76801 -0.512,1.28 -4e-6,0.46935 0.170663,0.89601 0.512,1.28 0.383995,0.34135 0.810662,0.51201 1.28,0.512 l 2.592,0 c 0.618658,1e-5 1.205324,0.11734 1.76,0.352 0.554656,0.23468 1.034656,0.56534 1.44,0.992 0.426655,0.40534 0.757321,0.88534 0.992,1.44 0.234654,0.55468 0.351987,1.15201 0.352,1.792 -1.3e-5,0.61867 -0.117346,1.20534 -0.352,1.76 -0.234679,0.55467 -0.565345,1.03467 -0.992,1.44 -0.405344,0.42667 -0.885344,0.75734 -1.44,0.992 -0.554676,0.23467 -1.141342,0.352 -1.76,0.352"
           style="font-size:32px;font-style:normal;font-variant:normal;font-weight:500;font-stretch:normal;line-height:125%;letter-spacing:0px;word-spacing:0px;fill:#000000;fill-opacity:1;stroke:none;font-family:Radis Sans;-inkscape-font-specification:Radis Sans Medium"
           id="path3997"
           inkscape:connector-curvature="0" />
        <path
           d="m 89.141,658.70618 0,2.656 -0.608,0 c -1.322675,0 -2.560007,-0.18133 -3.712,-0.544 -1.152005,-0.36266 -2.05867,-1.04533 -2.72,-2.048 -0.256003,-0.40533 -0.469336,-0.85333 -0.64,-1.344 -0.149336,-0.49066 -0.266669,-0.97066 -0.352,-1.44 -0.08534,-0.46932 -0.149335,-0.89599 -0.192,-1.28 -0.04267,-0.40532 -0.07467,-0.71466 -0.096,-0.928 l 0,-11.776 2.752,0 0,3.872 5.536,0 0,2.752 -5.536,0 0,4.512 c -4e-6,1.96268 0.394662,3.38134 1.184,4.256 0.81066,0.87467 2.143992,1.31201 4,1.312 l 0.384,0"
           style="font-size:32px;font-style:normal;font-variant:normal;font-weight:500;font-stretch:normal;line-height:125%;letter-spacing:0px;word-spacing:0px;fill:#000000;fill-opacity:1;stroke:none;font-family:Radis Sans;-inkscape-font-specification:Radis Sans Medium"
           id="path3999"
           inkscape:connector-curvature="0" />
        <path
           d="m 91.013,645.87418 2.752,0 0,15.488 -2.752,0 0,-15.488 m 3.072,-5.344 c -5e-6,0.44802 -0.170671,0.84269 -0.512,1.184 -0.320004,0.32002 -0.71467,0.48002 -1.184,0.48 -0.448003,2e-5 -0.842669,-0.15998 -1.184,-0.48 -0.320002,-0.34131 -0.480002,-0.73598 -0.48,-1.184 -2e-6,-0.46931 0.159998,-0.86398 0.48,-1.184 0.341331,-0.34131 0.735997,-0.51197 1.184,-0.512 0.46933,3e-5 0.863996,0.17069 1.184,0.512 0.341329,0.32002 0.511995,0.71469 0.512,1.184"
           style="font-size:32px;font-style:normal;font-variant:normal;font-weight:500;font-stretch:normal;line-height:125%;letter-spacing:0px;word-spacing:0px;fill:#000000;fill-opacity:1;stroke:none;font-family:Radis Sans;-inkscape-font-specification:Radis Sans Medium"
           id="path4001"
           inkscape:connector-curvature="0" />
        <path
           d="m 96.585,653.58618 c -10e-7,-1.17332 0.191999,-2.25065 0.576,-3.232 0.405331,-0.98132 0.949331,-1.82398 1.632,-2.528 0.703996,-0.70398 1.52533,-1.24798 2.464,-1.632 0.95999,-0.40532 1.98399,-0.60798 3.072,-0.608 1.08799,2e-5 2.11199,0.19202 3.072,0.576 0.95999,0.38402 1.79199,0.92802 2.496,1.632 0.70399,0.68268 1.25865,1.51468 1.664,2.496 0.42665,0.98135 0.63998,2.08001 0.64,3.296 -2e-5,1.08801 -0.21335,2.12267 -0.64,3.104 -0.40535,0.98134 -0.96001,1.83467 -1.664,2.56 -0.70401,0.72534 -1.53601,1.30134 -2.496,1.728 -0.96001,0.42667 -1.98401,0.64 -3.072,0.64 -1.08801,0 -2.11201,-0.21333 -3.072,-0.64 -0.93867,-0.42666 -1.760004,-1.00266 -2.464,-1.728 -0.682669,-0.72533 -1.226669,-1.57866 -1.632,-2.56 -0.384001,-0.98133 -0.576001,-2.01599 -0.576,-3.104 m 2.816,0 c -4e-6,0.68268 0.127996,1.34401 0.384,1.984 0.256,0.64001 0.608,1.20534 1.056,1.696 0.44799,0.49067 0.97066,0.88534 1.568,1.184 0.59733,0.29867 1.23733,0.44801 1.92,0.448 0.66132,10e-6 1.29066,-0.10666 1.888,-0.32 0.61866,-0.23466 1.16265,-0.57599 1.632,-1.024 0.46932,-0.44799 0.83199,-1.00266 1.088,-1.664 0.27732,-0.66132 0.41599,-1.42932 0.416,-2.304 -10e-6,-0.83199 -0.12801,-1.57865 -0.384,-2.24 -0.25601,-0.66132 -0.60801,-1.21599 -1.056,-1.664 -0.44801,-0.46932 -0.97068,-0.83198 -1.568,-1.088 -0.59734,-0.25598 -1.22668,-0.38398 -1.888,-0.384 -0.68267,2e-5 -1.33334,0.12802 -1.952,0.384 -0.61867,0.25602 -1.16267,0.62935 -1.632,1.12 -0.448,0.46935 -0.81067,1.03468 -1.088,1.696 -0.256004,0.66135 -0.384004,1.38668 -0.384,2.176"
           style="font-size:32px;font-style:normal;font-variant:normal;font-weight:500;font-stretch:normal;line-height:125%;letter-spacing:0px;word-spacing:0px;fill:#000000;fill-opacity:1;stroke:none;font-family:Radis Sans;-inkscape-font-specification:Radis Sans Medium"
           id="path4003"
           inkscape:connector-curvature="0" />
        <path
           d="m 114.8515,652.78618 c 0,-1.15199 0.16,-2.17599 0.48,-3.072 0.32,-0.89598 0.768,-1.65332 1.344,-2.272 0.59733,-0.61865 1.30133,-1.08798 2.112,-1.408 0.81066,-0.34132 1.69599,-0.51198 2.656,-0.512 0.95999,2e-5 1.83466,0.17068 2.624,0.512 0.81065,0.32002 1.50399,0.78935 2.08,1.408 0.59732,0.61868 1.05599,1.37602 1.376,2.272 0.31999,0.89601 0.47999,1.92001 0.48,3.072 l 0,8.576 -2.784,0 0,-9.056 c -1e-5,-1.21599 -0.36268,-2.19732 -1.088,-2.944 -0.70401,-0.74665 -1.60001,-1.11998 -2.688,-1.12 -1.13067,2e-5 -2.05867,0.37335 -2.784,1.12 -0.72534,0.74668 -1.088,1.72801 -1.088,2.944 l 0,9.056 -2.72,0 0,-8.576"
           style="font-size:32px;font-style:normal;font-variant:normal;font-weight:500;font-stretch:normal;line-height:125%;letter-spacing:0px;word-spacing:0px;fill:#000000;fill-opacity:1;stroke:none;font-family:Radis Sans;-inkscape-font-specification:Radis Sans Medium"
           id="path4005"
           inkscape:connector-curvature="0" />
        <path
           d="m 137.8795,661.36218 -2.592,0 c -0.61867,0 -1.20534,-0.11733 -1.76,-0.352 -0.55467,-0.23466 -1.03467,-0.56533 -1.44,-0.992 -0.42667,-0.40533 -0.75733,-0.88533 -0.992,-1.44 -0.23467,-0.55466 -0.352,-1.14133 -0.352,-1.76 l 2.752,0 c 0,0.46934 0.17066,0.89601 0.512,1.28 0.384,0.34134 0.81066,0.51201 1.28,0.512 l 2.592,0 c 0.49066,10e-6 0.90666,-0.17066 1.248,-0.512 0.36266,-0.36266 0.54399,-0.78933 0.544,-1.28 -1e-5,-0.53333 -0.18134,-0.95999 -0.544,-1.28 -0.32001,-0.36266 -0.73601,-0.54399 -1.248,-0.544 l -2.592,0 c -0.61867,10e-6 -1.20534,-0.11732 -1.76,-0.352 -0.55467,-0.23466 -1.03467,-0.56532 -1.44,-0.992 -0.42667,-0.40532 -0.75733,-0.88532 -0.992,-1.44 -0.23467,-0.55465 -0.352,-1.14132 -0.352,-1.76 0,-0.63999 0.11733,-1.23732 0.352,-1.792 0.23467,-0.55465 0.56533,-1.03465 0.992,-1.44 0.40533,-0.42665 0.88533,-0.75732 1.44,-0.992 0.55466,-0.23465 1.14133,-0.35198 1.76,-0.352 l 2.592,0 c 0.61866,2e-5 1.20532,0.11735 1.76,0.352 0.55466,0.23468 1.03466,0.56535 1.44,0.992 0.42665,0.40535 0.75732,0.88535 0.992,1.44 0.23465,0.55468 0.35199,1.15201 0.352,1.792 l -2.752,0 c -1e-5,-0.53332 -0.18134,-0.95999 -0.544,-1.28 -0.32001,-0.36265 -0.73601,-0.54398 -1.248,-0.544 l -2.592,0 c -0.49067,2e-5 -0.91734,0.18135 -1.28,0.544 -0.34134,0.34135 -0.512,0.76801 -0.512,1.28 0,0.46935 0.17066,0.89601 0.512,1.28 0.384,0.34135 0.81066,0.51201 1.28,0.512 l 2.592,0 c 0.61866,1e-5 1.20532,0.11734 1.76,0.352 0.55466,0.23468 1.03466,0.56534 1.44,0.992 0.42665,0.40534 0.75732,0.88534 0.992,1.44 0.23465,0.55468 0.35199,1.15201 0.352,1.792 -1e-5,0.61867 -0.11735,1.20534 -0.352,1.76 -0.23468,0.55467 -0.56535,1.03467 -0.992,1.44 -0.40534,0.42667 -0.88534,0.75734 -1.44,0.992 -0.55468,0.23467 -1.14134,0.352 -1.76,0.352"
           style="font-size:32px;font-style:normal;font-variant:normal;font-weight:500;font-stretch:normal;line-height:125%;letter-spacing:0px;word-spacing:0px;fill:#000000;fill-opacity:1;stroke:none;font-family:Radis Sans;-inkscape-font-specification:Radis Sans Medium"
           id="path4007"
           inkscape:connector-curvature="0" />
      </g>
    </g>
  </g>
</svg>
