<?xml version="1.0" encoding="UTF-8" standalone="no"?>
<!-- Created with Inkscape (http://www.inkscape.org/) -->

<svg
   xmlns:dc="http://purl.org/dc/elements/1.1/"
   xmlns:cc="http://creativecommons.org/ns#"
   xmlns:rdf="http://www.w3.org/1999/02/22-rdf-syntax-ns#"
   xmlns:svg="http://www.w3.org/2000/svg"
   xmlns="http://www.w3.org/2000/svg"
   xmlns:xlink="http://www.w3.org/1999/xlink"
   xmlns:sodipodi="http://sodipodi.sourceforge.net/DTD/sodipodi-0.dtd"
   xmlns:inkscape="http://www.inkscape.org/namespaces/inkscape"
   width="260"
   height="63.019444"
   id="svg9483"
   version="1.1"
   inkscape:version="0.48.0 r9654"
   sodipodi:docname="truff.svg">
  <defs
     id="defs9485">
    <linearGradient
       id="linearGradient10003">
      <stop
         style="stop-color:#141414;stop-opacity:1;"
         offset="0"
         id="stop10005" />
      <stop
         id="stop10191"
         offset="0.66982925"
         style="stop-color:#7f7f7f;stop-opacity:1;" />
      <stop
         style="stop-color:#bfbfbf;stop-opacity:1;"
         offset="0.83491462"
         id="stop10193" />
      <stop
         style="stop-color:#2e2e2e;stop-opacity:1;"
         offset="1"
         id="stop10007" />
    </linearGradient>
    <linearGradient
       inkscape:collect="always"
       xlink:href="#linearGradient10003"
       id="linearGradient10022"
       gradientUnits="userSpaceOnUse"
       gradientTransform="matrix(0.4,0,0,1,-19.389441,43.834161)"
       x1="70"
       y1="12.362183"
       x2="70"
       y2="7.3621826" />
    <linearGradient
       inkscape:collect="always"
       xlink:href="#linearGradient10003"
       id="linearGradient10026"
       gradientUnits="userSpaceOnUse"
       gradientTransform="matrix(0.23333334,0,0,1,-58.528852,-2.362183)"
       x1="70"
       y1="12.362183"
       x2="70"
       y2="7.3621826" />
    <linearGradient
       inkscape:collect="always"
       xlink:href="#linearGradient10003"
       id="linearGradient10030"
       gradientUnits="userSpaceOnUse"
       gradientTransform="matrix(0.17333334,0,0,1,-54.228851,57.637817)"
       x1="70"
       y1="12.362183"
       x2="70"
       y2="7.3621826" />
    <linearGradient
       inkscape:collect="always"
       xlink:href="#linearGradient10003"
       id="linearGradient10034"
       gradientUnits="userSpaceOnUse"
       gradientTransform="matrix(0.23333334,0,0,1,-58.528852,117.63782)"
       x1="70"
       y1="12.362183"
       x2="70"
       y2="7.3621826" />
    <linearGradient
       inkscape:collect="always"
       xlink:href="#linearGradient10003"
       id="linearGradient10038"
       gradientUnits="userSpaceOnUse"
       gradientTransform="matrix(0.4,0,0,1,72.302871,-23.665839)"
       x1="70"
       y1="12.362183"
       x2="70"
       y2="7.3621826" />
    <linearGradient
       inkscape:collect="always"
       xlink:href="#linearGradient10003"
       id="linearGradient10097"
       gradientUnits="userSpaceOnUse"
       gradientTransform="matrix(1.096,0,0,1,-0.48,7)"
       x1="70"
       y1="12.362183"
       x2="70"
       y2="7.3621826" />
    <linearGradient
       inkscape:collect="always"
       xlink:href="#linearGradient10003"
       id="linearGradient10099"
       gradientUnits="userSpaceOnUse"
       gradientTransform="matrix(1.096,0,0,1,-0.48,37)"
       x1="70"
       y1="12.362183"
       x2="70"
       y2="7.3621826" />
    <linearGradient
       inkscape:collect="always"
       xlink:href="#linearGradient10003"
       id="linearGradient10101"
       gradientUnits="userSpaceOnUse"
       gradientTransform="matrix(0.34641016,-0.2,0.5,0.8660254,17.125332,39.656217)"
       x1="70"
       y1="12.362183"
       x2="70"
       y2="7.3621826" />
    <linearGradient
       inkscape:collect="always"
       xlink:href="#linearGradient10003"
       id="linearGradient10103"
       gradientUnits="userSpaceOnUse"
       gradientTransform="matrix(0,-0.23333334,1,0,9.637817,50.528852)"
       x1="70"
       y1="12.362183"
       x2="70"
       y2="7.3621826" />
    <linearGradient
       inkscape:collect="always"
       xlink:href="#linearGradient10003"
       id="linearGradient10105"
       gradientUnits="userSpaceOnUse"
       gradientTransform="matrix(0,-0.17333334,1,0,69.637817,46.228851)"
       x1="70"
       y1="12.362183"
       x2="70"
       y2="7.3621826" />
    <linearGradient
       inkscape:collect="always"
       xlink:href="#linearGradient10003"
       id="linearGradient10107"
       gradientUnits="userSpaceOnUse"
       gradientTransform="matrix(0,-0.23333334,1,0,129.63782,50.528852)"
       x1="70"
       y1="12.362183"
       x2="70"
       y2="7.3621826" />
    <linearGradient
       inkscape:collect="always"
       xlink:href="#linearGradient10003"
       id="linearGradient10109"
       gradientUnits="userSpaceOnUse"
       gradientTransform="matrix(0.34641016,0.2,-0.5,0.8660254,86.449042,7.656218)"
       x1="70"
       y1="12.362183"
       x2="70"
       y2="7.3621826" />
    <linearGradient
       inkscape:collect="always"
       xlink:href="#linearGradient10003"
       id="linearGradient10141"
       gradientUnits="userSpaceOnUse"
       gradientTransform="matrix(1.096,0,0,1,-0.48,15)"
       x1="70"
       y1="12.362183"
       x2="70"
       y2="7.3621826" />
    <linearGradient
       inkscape:collect="always"
       xlink:href="#linearGradient10003"
       id="linearGradient10156"
       x1="135.64645"
       y1="22.317989"
       x2="132.9402"
       y2="18.355932"
       gradientUnits="userSpaceOnUse" />
    <linearGradient
       inkscape:collect="always"
       xlink:href="#linearGradient10003"
       id="linearGradient10158"
       gradientUnits="userSpaceOnUse"
       gradientTransform="matrix(1.0960001,0,0,1,-0.48000007,45)"
       x1="70"
       y1="12.362183"
       x2="70"
       y2="7.3621826" />
    <linearGradient
       inkscape:collect="always"
       xlink:href="#linearGradient10003"
       id="linearGradient10197"
       gradientUnits="userSpaceOnUse"
       x1="135.64645"
       y1="22.317989"
       x2="132.9402"
       y2="18.355932"
       gradientTransform="translate(0,30)" />
    <linearGradient
       inkscape:collect="always"
       xlink:href="#linearGradient10003"
       id="linearGradient10201"
       gradientUnits="userSpaceOnUse"
       gradientTransform="translate(-60,30)"
       x1="135.64645"
       y1="22.317989"
       x2="132.9402"
       y2="18.355932" />
    <linearGradient
       inkscape:collect="always"
       xlink:href="#linearGradient10003"
       id="linearGradient10205"
       gradientUnits="userSpaceOnUse"
       gradientTransform="translate(-60,-3.8281246e-7)"
       x1="135.64645"
       y1="22.317989"
       x2="132.9402"
       y2="18.355932" />
    <linearGradient
       inkscape:collect="always"
       xlink:href="#linearGradient10003"
       id="linearGradient10209"
       gradientUnits="userSpaceOnUse"
       gradientTransform="translate(-120,-3.8281246e-7)"
       x1="135.64645"
       y1="22.317989"
       x2="132.9402"
       y2="18.355932" />
    <linearGradient
       inkscape:collect="always"
       xlink:href="#linearGradient10003"
       id="linearGradient10213"
       gradientUnits="userSpaceOnUse"
       gradientTransform="translate(-120,30)"
       x1="135.64645"
       y1="22.317989"
       x2="132.9402"
       y2="18.355932" />
    <linearGradient
       inkscape:collect="always"
       xlink:href="#linearGradient10003"
       id="linearGradient10286"
       gradientUnits="userSpaceOnUse"
       gradientTransform="matrix(1.096,0,0,1,-0.48,7)"
       x1="70"
       y1="12.362183"
       x2="70"
       y2="7.3621826" />
    <linearGradient
       inkscape:collect="always"
       xlink:href="#linearGradient10003"
       id="linearGradient10288"
       gradientUnits="userSpaceOnUse"
       gradientTransform="matrix(1.096,0,0,1,-0.48,37)"
       x1="70"
       y1="12.362183"
       x2="70"
       y2="7.3621826" />
    <linearGradient
       inkscape:collect="always"
       xlink:href="#linearGradient10003"
       id="linearGradient10290"
       gradientUnits="userSpaceOnUse"
       gradientTransform="matrix(0.34641016,-0.2,0.5,0.8660254,17.125332,39.656217)"
       x1="70"
       y1="12.362183"
       x2="70"
       y2="7.3621826" />
    <linearGradient
       inkscape:collect="always"
       xlink:href="#linearGradient10003"
       id="linearGradient10292"
       gradientUnits="userSpaceOnUse"
       gradientTransform="translate(-120,30)"
       x1="135.64645"
       y1="22.317989"
       x2="132.9402"
       y2="18.355932" />
    <linearGradient
       inkscape:collect="always"
       xlink:href="#linearGradient10003"
       id="linearGradient10294"
       gradientUnits="userSpaceOnUse"
       gradientTransform="matrix(0,-0.23333334,1,0,9.637817,50.528852)"
       x1="70"
       y1="12.362183"
       x2="70"
       y2="7.3621826" />
    <linearGradient
       inkscape:collect="always"
       xlink:href="#linearGradient10003"
       id="linearGradient10296"
       gradientUnits="userSpaceOnUse"
       gradientTransform="translate(-60,30)"
       x1="135.64645"
       y1="22.317989"
       x2="132.9402"
       y2="18.355932" />
    <linearGradient
       inkscape:collect="always"
       xlink:href="#linearGradient10003"
       id="linearGradient10298"
       gradientUnits="userSpaceOnUse"
       gradientTransform="matrix(0,-0.17333334,1,0,69.637817,46.228851)"
       x1="70"
       y1="12.362183"
       x2="70"
       y2="7.3621826" />
    <linearGradient
       inkscape:collect="always"
       xlink:href="#linearGradient10003"
       id="linearGradient10300"
       gradientUnits="userSpaceOnUse"
       gradientTransform="translate(0,30)"
       x1="135.64645"
       y1="22.317989"
       x2="132.9402"
       y2="18.355932" />
    <linearGradient
       inkscape:collect="always"
       xlink:href="#linearGradient10003"
       id="linearGradient10302"
       gradientUnits="userSpaceOnUse"
       gradientTransform="matrix(0,-0.23333334,1,0,129.63782,50.528852)"
       x1="70"
       y1="12.362183"
       x2="70"
       y2="7.3621826" />
    <linearGradient
       inkscape:collect="always"
       xlink:href="#linearGradient10003"
       id="linearGradient10304"
       gradientUnits="userSpaceOnUse"
       gradientTransform="matrix(0.34641016,0.2,-0.5,0.8660254,86.449042,7.656218)"
       x1="70"
       y1="12.362183"
       x2="70"
       y2="7.3621826" />
    <linearGradient
       inkscape:collect="always"
       xlink:href="#linearGradient10003"
       id="linearGradient10306"
       gradientUnits="userSpaceOnUse"
       x1="135.64645"
       y1="22.317989"
       x2="132.9402"
       y2="18.355932" />
    <linearGradient
       inkscape:collect="always"
       xlink:href="#linearGradient10003"
       id="linearGradient10308"
       gradientUnits="userSpaceOnUse"
       gradientTransform="translate(-60,-3.8281246e-7)"
       x1="135.64645"
       y1="22.317989"
       x2="132.9402"
       y2="18.355932" />
    <linearGradient
       inkscape:collect="always"
       xlink:href="#linearGradient10003"
       id="linearGradient10310"
       gradientUnits="userSpaceOnUse"
       gradientTransform="translate(-120,-3.8281246e-7)"
       x1="135.64645"
       y1="22.317989"
       x2="132.9402"
       y2="18.355932" />
    <linearGradient
       inkscape:collect="always"
       xlink:href="#linearGradient10003"
       id="linearGradient10312"
       gradientUnits="userSpaceOnUse"
       gradientTransform="matrix(1.096,0,0,1,-0.48,15)"
       x1="70"
       y1="12.362183"
       x2="70"
       y2="7.3621826" />
    <linearGradient
       inkscape:collect="always"
       xlink:href="#linearGradient10003"
       id="linearGradient10314"
       gradientUnits="userSpaceOnUse"
       gradientTransform="matrix(1.0960001,0,0,1,-0.48000007,45)"
       x1="70"
       y1="12.362183"
       x2="70"
       y2="7.3621826" />
    <linearGradient
       inkscape:collect="always"
       xlink:href="#linearGradient10003"
       id="linearGradient10316"
       gradientUnits="userSpaceOnUse"
       gradientTransform="matrix(0.4,0,0,1,-19.389441,43.834161)"
       x1="70"
       y1="12.362183"
       x2="70"
       y2="7.3621826" />
    <linearGradient
       inkscape:collect="always"
       xlink:href="#linearGradient10003"
       id="linearGradient10318"
       gradientUnits="userSpaceOnUse"
       gradientTransform="matrix(0.23333334,0,0,1,-58.528852,-2.362183)"
       x1="70"
       y1="12.362183"
       x2="70"
       y2="7.3621826" />
    <linearGradient
       inkscape:collect="always"
       xlink:href="#linearGradient10003"
       id="linearGradient10320"
       gradientUnits="userSpaceOnUse"
       gradientTransform="matrix(0.17333334,0,0,1,-54.228851,57.637817)"
       x1="70"
       y1="12.362183"
       x2="70"
       y2="7.3621826" />
    <linearGradient
       inkscape:collect="always"
       xlink:href="#linearGradient10003"
       id="linearGradient10322"
       gradientUnits="userSpaceOnUse"
       gradientTransform="matrix(0.23333334,0,0,1,-58.528852,117.63782)"
       x1="70"
       y1="12.362183"
       x2="70"
       y2="7.3621826" />
    <linearGradient
       inkscape:collect="always"
       xlink:href="#linearGradient10003"
       id="linearGradient10324"
       gradientUnits="userSpaceOnUse"
       gradientTransform="matrix(0.4,0,0,1,72.302871,-23.665839)"
       x1="70"
       y1="12.362183"
       x2="70"
       y2="7.3621826" />
    <linearGradient
       inkscape:collect="always"
       xlink:href="#linearGradient10003"
       id="linearGradient10559"
       gradientUnits="userSpaceOnUse"
       gradientTransform="matrix(0.96,0,0,1,0.2,7)"
       x1="70"
       y1="12.362183"
       x2="70"
       y2="7.3621826" />
    <linearGradient
       inkscape:collect="always"
       xlink:href="#linearGradient10003"
       id="linearGradient10561"
       gradientUnits="userSpaceOnUse"
       gradientTransform="matrix(0.96,0,0,1,0.2,37)"
       x1="70"
       y1="12.362183"
       x2="70"
       y2="7.3621826" />
    <linearGradient
       inkscape:collect="always"
       xlink:href="#linearGradient10003"
       id="linearGradient10563"
       gradientUnits="userSpaceOnUse"
       gradientTransform="matrix(0.34641016,-0.2,0.5,0.8660254,17.125332,39.656217)"
       x1="70"
       y1="12.362183"
       x2="70"
       y2="7.3621826" />
    <linearGradient
       inkscape:collect="always"
       xlink:href="#linearGradient10003"
       id="linearGradient10565"
       gradientUnits="userSpaceOnUse"
       gradientTransform="translate(-120,30)"
       x1="135.64645"
       y1="22.317989"
       x2="132.9402"
       y2="18.355932" />
    <linearGradient
       inkscape:collect="always"
       xlink:href="#linearGradient10003"
       id="linearGradient10567"
       gradientUnits="userSpaceOnUse"
       gradientTransform="matrix(0,-0.23333334,1,0,9.637817,50.528852)"
       x1="70"
       y1="12.362183"
       x2="70"
       y2="7.3621826" />
    <linearGradient
       inkscape:collect="always"
       xlink:href="#linearGradient10003"
       id="linearGradient10569"
       gradientUnits="userSpaceOnUse"
       gradientTransform="translate(-60,30)"
       x1="135.64645"
       y1="22.317989"
       x2="132.9402"
       y2="18.355932" />
    <linearGradient
       inkscape:collect="always"
       xlink:href="#linearGradient10003"
       id="linearGradient10571"
       gradientUnits="userSpaceOnUse"
       gradientTransform="matrix(0,-0.17333334,1,0,69.637817,46.228851)"
       x1="70"
       y1="12.362183"
       x2="70"
       y2="7.3621826" />
    <linearGradient
       inkscape:collect="always"
       xlink:href="#linearGradient10003"
       id="linearGradient10573"
       gradientUnits="userSpaceOnUse"
       gradientTransform="matrix(0.34641016,0.2,-0.5,0.8660254,86.449042,7.656218)"
       x1="70"
       y1="12.362183"
       x2="70"
       y2="7.3621826" />
    <linearGradient
       inkscape:collect="always"
       xlink:href="#linearGradient10003"
       id="linearGradient10575"
       gradientUnits="userSpaceOnUse"
       gradientTransform="translate(-60,-3.8281246e-7)"
       x1="135.64645"
       y1="22.317989"
       x2="132.9402"
       y2="18.355932" />
    <linearGradient
       inkscape:collect="always"
       xlink:href="#linearGradient10003"
       id="linearGradient10577"
       gradientUnits="userSpaceOnUse"
       gradientTransform="translate(-120,-3.8281246e-7)"
       x1="135.64645"
       y1="22.317989"
       x2="132.9402"
       y2="18.355932" />
    <linearGradient
       inkscape:collect="always"
       xlink:href="#linearGradient10003"
       id="linearGradient10579"
       gradientUnits="userSpaceOnUse"
       gradientTransform="matrix(0.96,0,0,1,0.2,15)"
       x1="70"
       y1="12.362183"
       x2="70"
       y2="7.3621826" />
    <linearGradient
       inkscape:collect="always"
       xlink:href="#linearGradient10003"
       id="linearGradient10581"
       gradientUnits="userSpaceOnUse"
       gradientTransform="matrix(0.96000009,0,0,1,0.19999994,45)"
       x1="70"
       y1="12.362183"
       x2="70"
       y2="7.3621826" />
    <linearGradient
       inkscape:collect="always"
       xlink:href="#linearGradient10003"
       id="linearGradient10583"
       gradientUnits="userSpaceOnUse"
       gradientTransform="matrix(0.34641016,-0.2,0.5,0.8660254,5.1253321,47.656217)"
       x1="70"
       y1="12.362183"
       x2="70"
       y2="7.3621826" />
    <linearGradient
       inkscape:collect="always"
       xlink:href="#linearGradient10003"
       id="linearGradient10585"
       gradientUnits="userSpaceOnUse"
       gradientTransform="matrix(0.34641016,0.2,-0.5,0.8660254,-33.550958,7.656218)"
       x1="70"
       y1="12.362183"
       x2="70"
       y2="7.3621826" />
    <linearGradient
       inkscape:collect="always"
       xlink:href="#linearGradient10003"
       id="linearGradient10587"
       gradientUnits="userSpaceOnUse"
       gradientTransform="matrix(0,-0.23333334,1,0,-2.362183,58.528852)"
       x1="70"
       y1="12.362183"
       x2="70"
       y2="7.3621826" />
    <linearGradient
       inkscape:collect="always"
       xlink:href="#linearGradient10003"
       id="linearGradient10589"
       gradientUnits="userSpaceOnUse"
       gradientTransform="matrix(0,-0.17333334,1,0,57.637817,54.228851)"
       x1="70"
       y1="12.362183"
       x2="70"
       y2="7.3621826" />
    <linearGradient
       inkscape:collect="always"
       xlink:href="#linearGradient10003"
       id="linearGradient10591"
       gradientUnits="userSpaceOnUse"
       gradientTransform="matrix(0.34641016,0.2,-0.5,0.8660254,74.449042,15.656218)"
       x1="70"
       y1="12.362183"
       x2="70"
       y2="7.3621826" />
    <linearGradient
       inkscape:collect="always"
       xlink:href="#linearGradient10003"
       id="linearGradient10593"
       gradientUnits="userSpaceOnUse"
       gradientTransform="matrix(0.96,0,0,1,0.2,7)"
       x1="70"
       y1="12.362183"
       x2="70"
       y2="7.3621826" />
    <linearGradient
       inkscape:collect="always"
       xlink:href="#linearGradient10003"
       id="linearGradient10595"
       gradientUnits="userSpaceOnUse"
       gradientTransform="matrix(0.96,0,0,1,0.2,37)"
       x1="70"
       y1="12.362183"
       x2="70"
       y2="7.3621826" />
    <linearGradient
       inkscape:collect="always"
       xlink:href="#linearGradient10003"
       id="linearGradient10597"
       gradientUnits="userSpaceOnUse"
       gradientTransform="matrix(0.34641016,-0.2,0.5,0.8660254,17.125332,39.656217)"
       x1="70"
       y1="12.362183"
       x2="70"
       y2="7.3621826" />
    <linearGradient
       inkscape:collect="always"
       xlink:href="#linearGradient10003"
       id="linearGradient10599"
       gradientUnits="userSpaceOnUse"
       gradientTransform="translate(-120,30)"
       x1="135.64645"
       y1="22.317989"
       x2="132.9402"
       y2="18.355932" />
    <linearGradient
       inkscape:collect="always"
       xlink:href="#linearGradient10003"
       id="linearGradient10601"
       gradientUnits="userSpaceOnUse"
       gradientTransform="matrix(0,-0.23333334,1,0,9.637817,50.528852)"
       x1="70"
       y1="12.362183"
       x2="70"
       y2="7.3621826" />
    <linearGradient
       inkscape:collect="always"
       xlink:href="#linearGradient10003"
       id="linearGradient10603"
       gradientUnits="userSpaceOnUse"
       gradientTransform="translate(-60,30)"
       x1="135.64645"
       y1="22.317989"
       x2="132.9402"
       y2="18.355932" />
    <linearGradient
       inkscape:collect="always"
       xlink:href="#linearGradient10003"
       id="linearGradient10605"
       gradientUnits="userSpaceOnUse"
       gradientTransform="matrix(0,-0.17333334,1,0,69.637817,46.228851)"
       x1="70"
       y1="12.362183"
       x2="70"
       y2="7.3621826" />
    <linearGradient
       inkscape:collect="always"
       xlink:href="#linearGradient10003"
       id="linearGradient10607"
       gradientUnits="userSpaceOnUse"
       gradientTransform="matrix(0.34641016,0.2,-0.5,0.8660254,86.449042,7.656218)"
       x1="70"
       y1="12.362183"
       x2="70"
       y2="7.3621826" />
    <linearGradient
       inkscape:collect="always"
       xlink:href="#linearGradient10003"
       id="linearGradient10609"
       gradientUnits="userSpaceOnUse"
       gradientTransform="translate(-60,-3.8281246e-7)"
       x1="135.64645"
       y1="22.317989"
       x2="132.9402"
       y2="18.355932" />
    <linearGradient
       inkscape:collect="always"
       xlink:href="#linearGradient10003"
       id="linearGradient10611"
       gradientUnits="userSpaceOnUse"
       gradientTransform="translate(-120,-3.8281246e-7)"
       x1="135.64645"
       y1="22.317989"
       x2="132.9402"
       y2="18.355932" />
    <linearGradient
       inkscape:collect="always"
       xlink:href="#linearGradient10003"
       id="linearGradient10613"
       gradientUnits="userSpaceOnUse"
       gradientTransform="matrix(0.96,0,0,1,0.2,15)"
       x1="70"
       y1="12.362183"
       x2="70"
       y2="7.3621826" />
    <linearGradient
       inkscape:collect="always"
       xlink:href="#linearGradient10003"
       id="linearGradient10615"
       gradientUnits="userSpaceOnUse"
       gradientTransform="matrix(0.96000009,0,0,1,0.19999994,45)"
       x1="70"
       y1="12.362183"
       x2="70"
       y2="7.3621826" />
    <linearGradient
       inkscape:collect="always"
       xlink:href="#linearGradient10003"
       id="linearGradient10617"
       gradientUnits="userSpaceOnUse"
       gradientTransform="matrix(0.34641016,-0.2,0.5,0.8660254,5.1253321,47.656217)"
       x1="70"
       y1="12.362183"
       x2="70"
       y2="7.3621826" />
    <linearGradient
       inkscape:collect="always"
       xlink:href="#linearGradient10003"
       id="linearGradient10619"
       gradientUnits="userSpaceOnUse"
       gradientTransform="matrix(0.34641016,0.2,-0.5,0.8660254,-33.550958,7.656218)"
       x1="70"
       y1="12.362183"
       x2="70"
       y2="7.3621826" />
    <linearGradient
       inkscape:collect="always"
       xlink:href="#linearGradient10003"
       id="linearGradient10621"
       gradientUnits="userSpaceOnUse"
       gradientTransform="matrix(0,-0.23333334,1,0,-2.362183,58.528852)"
       x1="70"
       y1="12.362183"
       x2="70"
       y2="7.3621826" />
    <linearGradient
       inkscape:collect="always"
       xlink:href="#linearGradient10003"
       id="linearGradient10623"
       gradientUnits="userSpaceOnUse"
       gradientTransform="matrix(0,-0.17333334,1,0,57.637817,54.228851)"
       x1="70"
       y1="12.362183"
       x2="70"
       y2="7.3621826" />
    <linearGradient
       inkscape:collect="always"
       xlink:href="#linearGradient10003"
       id="linearGradient10625"
       gradientUnits="userSpaceOnUse"
       gradientTransform="matrix(0.34641016,0.2,-0.5,0.8660254,74.449042,15.656218)"
       x1="70"
       y1="12.362183"
       x2="70"
       y2="7.3621826" />
  </defs>
  <sodipodi:namedview
     id="base"
     pagecolor="#ffffff"
     bordercolor="#666666"
     borderopacity="1.0"
     inkscape:pageopacity="0.0"
     inkscape:pageshadow="2"
     inkscape:zoom="4"
     inkscape:cx="148.31844"
     inkscape:cy="20.008894"
     inkscape:document-units="px"
     inkscape:current-layer="layer11"
     showgrid="false"
     inkscape:snap-bbox="false"
     inkscape:snap-nodes="true"
     inkscape:snap-grids="true"
     inkscape:snap-smooth-nodes="false"
     inkscape:object-paths="false"
     inkscape:object-nodes="false"
     inkscape:snap-global="true"
     inkscape:window-width="1366"
     inkscape:window-height="717"
     inkscape:window-x="0"
     inkscape:window-y="0"
     inkscape:window-maximized="1"
     fit-margin-top="10"
     fit-margin-left="10"
     fit-margin-right="10"
     fit-margin-bottom="10">
    <inkscape:grid
       type="xygrid"
       id="grid9491"
       empspacing="5"
       visible="true"
       enabled="true"
       snapvisiblegridlinesonly="true" />
  </sodipodi:namedview>
  <metadata
     id="metadata9488">
    <rdf:RDF>
      <cc:Work
         rdf:about="">
        <dc:format>image/svg+xml</dc:format>
        <dc:type
           rdf:resource="http://purl.org/dc/dcmitype/StillImage" />
        <dc:title></dc:title>
      </cc:Work>
    </rdf:RDF>
  </metadata>
  <g
     inkscape:groupmode="layer"
     id="layer11"
     inkscape:label="between"
     transform="translate(5,-4.3555569)">
    <g
       id="g10504">
      <path
         style="fill:url(#linearGradient10593);fill-opacity:1;fill-rule:evenodd;stroke:none;display:inline"
         d="m 5,14.362183 120,0 0,5 -120,0 z"
         id="path10076"
         inkscape:connector-curvature="0"
         sodipodi:nodetypes="ccccc" />
      <path
         style="fill:url(#linearGradient10595);fill-opacity:1;fill-rule:evenodd;stroke:none;display:inline"
         d="m 5,44.362183 120,0 0,5 -120,0 z"
         id="path10078"
         inkscape:connector-curvature="0"
         sodipodi:nodetypes="ccccc" />
      <path
         style="fill:url(#linearGradient10597);fill-opacity:1;fill-rule:evenodd;stroke:none;display:inline"
         d="M 23.999999,44.362182 67,19.362182 c 3,-0.999999 5,-0.999999 8,1e-6 l -43,25 c -3,1 -5,1 -8.000001,-1e-6 z"
         id="path10080"
         inkscape:connector-curvature="0"
         sodipodi:nodetypes="ccccc" />
      <path
         style="fill:url(#linearGradient10599);fill-opacity:1;fill-rule:evenodd;stroke:none"
         d="M 17,45.362183 C 13.52593,47.742763 10.3923,50.008956 6.87847,52.295765 6.05966,52.771949 5,53.666877 5,54.875 c 0,1.380712 1.11929,2.5 2.5,2.5 0.78661,-0.01458 1.51627,-0.373328 2.09218,-0.736731 3.8368,-2.634343 6.88978,-4.874023 10.40782,-7.276086 2,-1.397748 2,-2 2,-3 0,-1 -1,-2 -2,-2 -1,0 -1.39469,-0.151999 -3,1 z"
         id="path10211"
         inkscape:connector-curvature="0"
         sodipodi:nodetypes="ccscccszc" />
      <path
         style="fill:url(#linearGradient10601);fill-opacity:1;fill-rule:evenodd;stroke:none;display:inline"
         d="m 17,44.362183 0,-25 c 1,-1 4,-1 5,0 l 0,25 c -1,1 -4,1 -5,0 z"
         id="path10082"
         inkscape:connector-curvature="0"
         sodipodi:nodetypes="ccccc" />
      <path
         sodipodi:nodetypes="ccscccszc"
         inkscape:connector-curvature="0"
         id="path10199"
         d="m 77,45.362183 c -3.47407,2.38058 -6.6077,4.646773 -10.12153,6.933582 C 66.05966,52.771949 65,53.666877 65,54.875 c 0,1.380712 1.11929,2.5 2.5,2.5 0.78661,-0.01458 1.51627,-0.373328 2.09218,-0.736731 3.8368,-2.634343 6.88978,-4.874023 10.40782,-7.276086 2,-1.397748 2,-2 2,-3 0,-1 -1,-2 -2,-2 -1,0 -1.39469,-0.151999 -3,1 z"
         style="fill:url(#linearGradient10603);fill-opacity:1;fill-rule:evenodd;stroke:none" />
      <path
         style="fill:url(#linearGradient10605);fill-opacity:1;fill-rule:evenodd;stroke:none;display:inline"
         d="m 77,44.362183 0,-25 c 1,-1 4,-1 5,0 l 0,25 c -1,1 -4,1 -5,0 z"
         id="path10084"
         inkscape:connector-curvature="0"
         sodipodi:nodetypes="ccccc" />
      <path
         id="path10088"
         d="m 88,18.625 c -1.25,0 -2.5,0.25 -4,0.75 L 125,43.21875 125,38.5625 92,19.375 c -1.5,-0.5 -2.75,-0.75 -4,-0.75 z"
         style="fill:url(#linearGradient10607);fill-opacity:1;fill-rule:evenodd;stroke:none;display:inline"
         inkscape:connector-curvature="0" />
      <path
         style="fill:url(#linearGradient10609);fill-opacity:1;fill-rule:evenodd;stroke:none"
         d="m 77,15.362183 c -3.47407,2.38058 -6.6077,4.646773 -10.12153,6.933582 C 66.05966,22.771949 65,23.666877 65,24.875 c 0,1.380712 1.11929,2.5 2.5,2.5 0.78661,-0.01458 1.51627,-0.373328 2.09218,-0.736731 3.8368,-2.634343 6.88978,-4.874023 10.40782,-7.276086 2,-1.397748 2,-2 2,-3 0,-1 -1,-2 -2,-2 -1,0 -1.39469,-0.151999 -3,1 z"
         id="path10203"
         inkscape:connector-curvature="0"
         sodipodi:nodetypes="ccscccszc" />
      <path
         sodipodi:nodetypes="ccscccszc"
         inkscape:connector-curvature="0"
         id="path10207"
         d="M 17,15.362183 C 13.52593,17.742763 10.3923,20.008956 6.87847,22.295765 6.05966,22.771949 5,23.666877 5,24.875 c 0,1.380712 1.11929,2.5 2.5,2.5 0.78661,-0.01458 1.51627,-0.373328 2.09218,-0.736731 3.8368,-2.634343 6.88978,-4.874023 10.40782,-7.276086 2,-1.397748 2,-2 2,-3 0,-1 -1,-2 -2,-2 -1,0 -1.39469,-0.151999 -3,1 z"
         style="fill:url(#linearGradient10611);fill-opacity:1;fill-rule:evenodd;stroke:none" />
      <path
         sodipodi:nodetypes="ccccc"
         inkscape:connector-curvature="0"
         id="rect9493"
         d="m 5,22.362183 120,0 0,5 -120,0 z"
         style="fill:url(#linearGradient10613);fill-opacity:1;fill-rule:evenodd;stroke:none;display:inline" />
      <path
         sodipodi:nodetypes="ccccc"
         inkscape:connector-curvature="0"
         id="rect10011"
         d="m 5,52.362183 120,0 0,5 -120,0 z"
         style="fill:url(#linearGradient10615);fill-opacity:1;fill-rule:evenodd;stroke:none;display:inline" />
      <path
         sodipodi:nodetypes="ccccc"
         inkscape:connector-curvature="0"
         id="rect10015"
         d="M 11.999999,52.362182 55,27.362182 c 3,-0.999999 5,-0.999999 8,1e-6 l -43,25 c -3,1 -5,1 -8.000001,-1e-6 z"
         style="fill:url(#linearGradient10617);fill-opacity:1;fill-rule:evenodd;stroke:none;display:inline" />
      <path
         id="path10493"
         d="m 5,38.5625 0,4.65625 2,1.15625 c 3,1.000002 5,0.999998 8,0 L 5,38.5625 z"
         style="fill:url(#linearGradient10619);fill-opacity:1;fill-rule:evenodd;stroke:none;display:inline"
         inkscape:connector-curvature="0" />
      <path
         sodipodi:nodetypes="ccccc"
         inkscape:connector-curvature="0"
         id="rect10024"
         d="m 5,52.362183 0,-25 c 1,-1 4,-1 5,0 l 0,25 c -1,1 -4,1 -5,0 z"
         style="fill:url(#linearGradient10621);fill-opacity:1;fill-rule:evenodd;stroke:none;display:inline" />
      <path
         sodipodi:nodetypes="ccccc"
         inkscape:connector-curvature="0"
         id="rect10028"
         d="m 65,52.362183 0,-25 c 1,-1 4,-1 5,0 l 0,25 c -1,1 -4,1 -5,0 z"
         style="fill:url(#linearGradient10623);fill-opacity:1;fill-rule:evenodd;stroke:none;display:inline" />
      <path
         sodipodi:nodetypes="ccccc"
         inkscape:connector-curvature="0"
         id="rect10036"
         d="m 80,27.362183 43,25.000001 c -3,0.999998 -5,0.999999 -8,-3e-6 L 72,27.362183 c 3,-1 5,-1 8,0 z"
         style="fill:url(#linearGradient10625);fill-opacity:1;fill-rule:evenodd;stroke:none;display:inline" />
    </g>
    <g
       id="g10523"
       transform="translate(120,0)">
      <path
         sodipodi:nodetypes="ccccc"
         inkscape:connector-curvature="0"
         id="path10525"
         d="m 5,14.362183 120,0 0,5 -120,0 z"
         style="fill:url(#linearGradient10559);fill-opacity:1;fill-rule:evenodd;stroke:none;display:inline" />
      <path
         sodipodi:nodetypes="ccccc"
         inkscape:connector-curvature="0"
         id="path10527"
         d="m 5,44.362183 120,0 0,5 -120,0 z"
         style="fill:url(#linearGradient10561);fill-opacity:1;fill-rule:evenodd;stroke:none;display:inline" />
      <path
         sodipodi:nodetypes="ccccc"
         inkscape:connector-curvature="0"
         id="path10529"
         d="M 23.999999,44.362182 67,19.362182 c 3,-0.999999 5,-0.999999 8,1e-6 l -43,25 c -3,1 -5,1 -8.000001,-1e-6 z"
         style="fill:url(#linearGradient10563);fill-opacity:1;fill-rule:evenodd;stroke:none;display:inline" />
      <path
         sodipodi:nodetypes="ccscccszc"
         inkscape:connector-curvature="0"
         id="path10531"
         d="M 17,45.362183 C 13.52593,47.742763 10.3923,50.008956 6.87847,52.295765 6.05966,52.771949 5,53.666877 5,54.875 c 0,1.380712 1.11929,2.5 2.5,2.5 0.78661,-0.01458 1.51627,-0.373328 2.09218,-0.736731 3.8368,-2.634343 6.88978,-4.874023 10.40782,-7.276086 2,-1.397748 2,-2 2,-3 0,-1 -1,-2 -2,-2 -1,0 -1.39469,-0.151999 -3,1 z"
         style="fill:url(#linearGradient10565);fill-opacity:1;fill-rule:evenodd;stroke:none" />
      <path
         sodipodi:nodetypes="ccccc"
         inkscape:connector-curvature="0"
         id="path10533"
         d="m 17,44.362183 0,-25 c 1,-1 4,-1 5,0 l 0,25 c -1,1 -4,1 -5,0 z"
         style="fill:url(#linearGradient10567);fill-opacity:1;fill-rule:evenodd;stroke:none;display:inline" />
      <path
         style="fill:url(#linearGradient10569);fill-opacity:1;fill-rule:evenodd;stroke:none"
         d="m 77,45.362183 c -3.47407,2.38058 -6.6077,4.646773 -10.12153,6.933582 C 66.05966,52.771949 65,53.666877 65,54.875 c 0,1.380712 1.11929,2.5 2.5,2.5 0.78661,-0.01458 1.51627,-0.373328 2.09218,-0.736731 3.8368,-2.634343 6.88978,-4.874023 10.40782,-7.276086 2,-1.397748 2,-2 2,-3 0,-1 -1,-2 -2,-2 -1,0 -1.39469,-0.151999 -3,1 z"
         id="path10535"
         inkscape:connector-curvature="0"
         sodipodi:nodetypes="ccscccszc" />
      <path
         sodipodi:nodetypes="ccccc"
         inkscape:connector-curvature="0"
         id="path10537"
         d="m 77,44.362183 0,-25 c 1,-1 4,-1 5,0 l 0,25 c -1,1 -4,1 -5,0 z"
         style="fill:url(#linearGradient10571);fill-opacity:1;fill-rule:evenodd;stroke:none;display:inline" />
      <path
         style="fill:url(#linearGradient10573);fill-opacity:1;fill-rule:evenodd;stroke:none;display:inline"
         d="m 88,18.625 c -1.25,0 -2.5,0.25 -4,0.75 L 125,43.21875 125,38.5625 92,19.375 c -1.5,-0.5 -2.75,-0.75 -4,-0.75 z"
         id="path10539"
         inkscape:connector-curvature="0" />
      <path
         sodipodi:nodetypes="ccscccszc"
         inkscape:connector-curvature="0"
         id="path10541"
         d="m 77,15.362183 c -3.47407,2.38058 -6.6077,4.646773 -10.12153,6.933582 C 66.05966,22.771949 65,23.666877 65,24.875 c 0,1.380712 1.11929,2.5 2.5,2.5 0.78661,-0.01458 1.51627,-0.373328 2.09218,-0.736731 3.8368,-2.634343 6.88978,-4.874023 10.40782,-7.276086 2,-1.397748 2,-2 2,-3 0,-1 -1,-2 -2,-2 -1,0 -1.39469,-0.151999 -3,1 z"
         style="fill:url(#linearGradient10575);fill-opacity:1;fill-rule:evenodd;stroke:none" />
      <path
         style="fill:url(#linearGradient10577);fill-opacity:1;fill-rule:evenodd;stroke:none"
         d="M 17,15.362183 C 13.52593,17.742763 10.3923,20.008956 6.87847,22.295765 6.05966,22.771949 5,23.666877 5,24.875 c 0,1.380712 1.11929,2.5 2.5,2.5 0.78661,-0.01458 1.51627,-0.373328 2.09218,-0.736731 3.8368,-2.634343 6.88978,-4.874023 10.40782,-7.276086 2,-1.397748 2,-2 2,-3 0,-1 -1,-2 -2,-2 -1,0 -1.39469,-0.151999 -3,1 z"
         id="path10543"
         inkscape:connector-curvature="0"
         sodipodi:nodetypes="ccscccszc" />
      <path
         style="fill:url(#linearGradient10579);fill-opacity:1;fill-rule:evenodd;stroke:none;display:inline"
         d="m 5,22.362183 120,0 0,5 -120,0 z"
         id="path10545"
         inkscape:connector-curvature="0"
         sodipodi:nodetypes="ccccc" />
      <path
         style="fill:url(#linearGradient10581);fill-opacity:1;fill-rule:evenodd;stroke:none;display:inline"
         d="m 5,52.362183 120,0 0,5 -120,0 z"
         id="path10547"
         inkscape:connector-curvature="0"
         sodipodi:nodetypes="ccccc" />
      <path
         style="fill:url(#linearGradient10583);fill-opacity:1;fill-rule:evenodd;stroke:none;display:inline"
         d="M 11.999999,52.362182 55,27.362182 c 3,-0.999999 5,-0.999999 8,1e-6 l -43,25 c -3,1 -5,1 -8.000001,-1e-6 z"
         id="path10549"
         inkscape:connector-curvature="0"
         sodipodi:nodetypes="ccccc" />
      <path
         style="fill:url(#linearGradient10585);fill-opacity:1;fill-rule:evenodd;stroke:none;display:inline"
         d="m 5,38.5625 0,4.65625 2,1.15625 c 3,1.000002 5,0.999998 8,0 L 5,38.5625 z"
         id="path10551"
         inkscape:connector-curvature="0" />
      <path
         style="fill:url(#linearGradient10587);fill-opacity:1;fill-rule:evenodd;stroke:none;display:inline"
         d="m 5,52.362183 0,-25 c 1,-1 4,-1 5,0 l 0,25 c -1,1 -4,1 -5,0 z"
         id="path10553"
         inkscape:connector-curvature="0"
         sodipodi:nodetypes="ccccc" />
      <path
         style="fill:url(#linearGradient10589);fill-opacity:1;fill-rule:evenodd;stroke:none;display:inline"
         d="m 65,52.362183 0,-25 c 1,-1 4,-1 5,0 l 0,25 c -1,1 -4,1 -5,0 z"
         id="path10555"
         inkscape:connector-curvature="0"
         sodipodi:nodetypes="ccccc" />
      <path
         style="fill:url(#linearGradient10591);fill-opacity:1;fill-rule:evenodd;stroke:none;display:inline"
         d="m 80,27.362183 43,25.000001 c -3,0.999998 -5,0.999999 -8,-3e-6 L 72,27.362183 c 3,-1 5,-1 8,0 z"
         id="path10557"
         inkscape:connector-curvature="0"
         sodipodi:nodetypes="ccccc" />
    </g>
  </g>
</svg>
