<?xml version="1.0" encoding="UTF-8" standalone="no"?>
<!-- Created with Inkscape (http://www.inkscape.org/) -->
<svg xmlns:xml="http://www.w3.org/XML/1998/namespace" xmlns:dc="http://purl.org/dc/elements/1.1/" xmlns:cc="http://web.resource.org/cc/" xmlns:rdf="http://www.w3.org/1999/02/22-rdf-syntax-ns#" xmlns:svg="http://www.w3.org/2000/svg" xmlns="http://www.w3.org/2000/svg" xmlns:xlink="http://www.w3.org/1999/xlink" xmlns:sodipodi="http://inkscape.sourceforge.net/DTD/sodipodi-0.dtd" xmlns:inkscape="http://www.inkscape.org/namespaces/inkscape" width="180" height="100" id="svg2" sodipodi:version="0.32" inkscape:version="0.40+cvs" version="1.0" sodipodi:docbase="C:\MONTY" sodipodi:docname="Monty_open_door.svg">
  <defs id="defs4">
    <linearGradient id="linearGradient14915">
      <stop style="stop-color: rgb(204, 79, 0); stop-opacity: 1;" offset="0" id="stop14917"/>
      <stop style="stop-color: rgb(152, 72, 21); stop-opacity: 1;" offset="1" id="stop14919"/>
    </linearGradient>
    <linearGradient id="linearGradient14905">
      <stop style="stop-color: rgb(195, 195, 195); stop-opacity: 1;" offset="0" id="stop14907"/>
      <stop id="stop14913" offset="0.55555558" style="stop-color: black; stop-opacity: 1;"/>
      <stop style="stop-color: black; stop-opacity: 1;" offset="1" id="stop14909"/>
    </linearGradient>
    <linearGradient id="linearGradient14891">
      <stop style="stop-color: white; stop-opacity: 1;" offset="0" id="stop14893"/>
      <stop style="stop-color: rgb(226, 226, 226); stop-opacity: 1;" offset="1" id="stop14895"/>
    </linearGradient>
    <linearGradient id="linearGradient6420">
      <stop style="stop-color: rgb(155, 217, 255); stop-opacity: 1;" offset="0" id="stop6422"/>
      <stop style="stop-color: rgb(29, 165, 255); stop-opacity: 1;" offset="1" id="stop6424"/>
    </linearGradient>
    <linearGradient inkscape:collect="always" xlink:href="#linearGradient14915" id="linearGradient14975" gradientUnits="userSpaceOnUse" gradientTransform="translate(222.18, 419.715)" x1="97.191101" y1="72.271553" x2="105.49163" y2="87.081856"/>
    <linearGradient inkscape:collect="always" xlink:href="#linearGradient14891" id="linearGradient14977" gradientUnits="userSpaceOnUse" x1="112.13223" y1="65.066559" x2="113.08676" y2="65.581429"/>
    <linearGradient inkscape:collect="always" xlink:href="#linearGradient6420" id="linearGradient14991" gradientUnits="userSpaceOnUse" x1="345.88135" y1="505.42252" x2="376.26169" y2="505.42252" gradientTransform="translate(0.772106, 0.855522)"/>
    <linearGradient inkscape:collect="always" xlink:href="#linearGradient6420" id="linearGradient15001" gradientUnits="userSpaceOnUse" gradientTransform="translate(2.02214, 3.45985)" x1="251.5558" y1="494.82321" x2="291.55579" y2="534.82318"/>
    <linearGradient inkscape:collect="always" xlink:href="#linearGradient6420" id="linearGradient15005" gradientUnits="userSpaceOnUse" gradientTransform="translate(435.134, 3.45985)" x1="-236.55583" y1="494.82321" x2="-196.55582" y2="534.82318"/>
    <linearGradient inkscape:collect="always" xlink:href="#linearGradient6420" id="linearGradient15443" gradientUnits="userSpaceOnUse" gradientTransform="translate(435.134, 3.45985)" x1="-236.55583" y1="494.82321" x2="-196.55582" y2="534.82318"/>
    <linearGradient inkscape:collect="always" xlink:href="#linearGradient6420" id="linearGradient15445" gradientUnits="userSpaceOnUse" gradientTransform="translate(2.02214, 3.45985)" x1="251.5558" y1="494.82321" x2="291.55579" y2="534.82318"/>
    <linearGradient inkscape:collect="always" xlink:href="#linearGradient6420" id="linearGradient15447" gradientUnits="userSpaceOnUse" gradientTransform="translate(0.772106, 0.855522)" x1="345.88135" y1="505.42252" x2="376.26169" y2="505.42252"/>
    <linearGradient inkscape:collect="always" xlink:href="#linearGradient14915" id="linearGradient15449" gradientUnits="userSpaceOnUse" gradientTransform="translate(222.18, 419.715)" x1="97.191101" y1="72.271553" x2="105.49163" y2="87.081856"/>
    <linearGradient inkscape:collect="always" xlink:href="#linearGradient14891" id="linearGradient15451" gradientUnits="userSpaceOnUse" x1="112.13223" y1="65.066559" x2="113.08676" y2="65.581429"/>
    <linearGradient y2="505.42252" x2="376.26169" y1="505.42252" x1="345.88135" gradientTransform="translate(1.5442, 2.85288)" gradientUnits="userSpaceOnUse" id="linearGradient1342" xlink:href="#linearGradient6420" inkscape:collect="always"/>
    <linearGradient y2="534.82318" x2="291.55579" y1="494.82321" x1="251.5558" gradientTransform="translate(2.79424, 5.4572)" gradientUnits="userSpaceOnUse" id="linearGradient1351" xlink:href="#linearGradient6420" inkscape:collect="always"/>
    <linearGradient y2="534.82318" x2="-196.55582" y1="494.82321" x1="-236.55583" gradientTransform="translate(435.906, 5.4572)" gradientUnits="userSpaceOnUse" id="linearGradient1355" xlink:href="#linearGradient6420" inkscape:collect="always"/>
    <linearGradient y2="87.081856" x2="105.49163" y1="72.271553" x1="97.191101" gradientTransform="translate(420.758, 877.99)" gradientUnits="userSpaceOnUse" id="linearGradient1364" xlink:href="#linearGradient14915" inkscape:collect="always"/>
    <linearGradient y2="87.081856" x2="105.49163" y1="72.271553" x1="97.191101" gradientTransform="translate(420.758, 877.99)" gradientUnits="userSpaceOnUse" id="linearGradient1374" xlink:href="#linearGradient14915" inkscape:collect="always"/>
    <linearGradient y2="65.581429" x2="113.08676" y1="65.066559" x1="112.13223" gradientUnits="userSpaceOnUse" id="linearGradient1376" xlink:href="#linearGradient14891" inkscape:collect="always"/>
    <linearGradient inkscape:collect="always" xlink:href="#linearGradient6420" id="linearGradient1472" gradientUnits="userSpaceOnUse" gradientTransform="translate(1.5442, 2.85288)" x1="345.88135" y1="505.42252" x2="376.26169" y2="505.42252"/>
    <linearGradient inkscape:collect="always" xlink:href="#linearGradient6420" id="linearGradient1481" gradientUnits="userSpaceOnUse" gradientTransform="translate(2.79424, 5.4572)" x1="251.5558" y1="494.82321" x2="291.55579" y2="534.82318"/>
    <linearGradient inkscape:collect="always" xlink:href="#linearGradient6420" id="linearGradient1485" gradientUnits="userSpaceOnUse" gradientTransform="translate(435.906, 5.4572)" x1="-236.55583" y1="494.82321" x2="-196.55582" y2="534.82318"/>
    <linearGradient inkscape:collect="always" xlink:href="#linearGradient6420" id="linearGradient1546" gradientUnits="userSpaceOnUse" gradientTransform="translate(1.5442, 2.85288)" x1="345.88135" y1="505.42252" x2="376.26169" y2="505.42252"/>
    <linearGradient inkscape:collect="always" xlink:href="#linearGradient14915" id="linearGradient1548" gradientUnits="userSpaceOnUse" gradientTransform="translate(420.758, 877.99)" x1="97.191101" y1="72.271553" x2="105.49163" y2="87.081856"/>
    <linearGradient inkscape:collect="always" xlink:href="#linearGradient14891" id="linearGradient1550" gradientUnits="userSpaceOnUse" x1="112.13223" y1="65.066559" x2="113.08676" y2="65.581429"/>
  </defs>
  <sodipodi:namedview id="base" pagecolor="#ffffff" bordercolor="#666666" borderopacity="1.0" gridtolerance="10000" guidetolerance="10" objecttolerance="10" inkscape:pageopacity="0.0" inkscape:pageshadow="2" inkscape:zoom="3.2066666" inkscape:cx="126.01707" inkscape:cy="54.730768" inkscape:document-units="px" inkscape:current-layer="layer1" width="180px" height="100px" units="px" inkscape:window-width="1024" inkscape:window-height="749" inkscape:window-x="-4" inkscape:window-y="-4" showguides="true" inkscape:guide-bbox="true"/>
  <metadata id="metadata7">
    <rdf:RDF id="RDF5936">
      <cc:Work rdf:about="" id="Work5938">
        <dc:format id="format5940">image/svg+xml</dc:format>
        <dc:type rdf:resource="http://purl.org/dc/dcmitype/StillImage" id="type5942"/>
      </cc:Work>
    </rdf:RDF>
  </metadata>
  <g inkscape:label="Layer 1" inkscape:groupmode="layer" id="layer1" transform="translate(-198.578, -458.275)">
    <rect y="461.23618" x="200.30589" height="78.088425" width="38.088432" id="rect1933" style="fill: url(&quot;#linearGradient1485&quot;) rgb(0, 0, 0); fill-opacity: 1; fill-rule: nonzero; stroke: rgb(0, 0, 0); stroke-width: 1.91157; stroke-miterlimit: 4; stroke-opacity: 1;"/>
    <rect y="461.23618" x="255.30582" height="78.088425" width="38.088432" id="rect2828" style="fill: url(&quot;#linearGradient1481&quot;) rgb(0, 0, 0); fill-opacity: 1; fill-rule: nonzero; stroke: rgb(0, 0, 0); stroke-width: 1.91157; stroke-miterlimit: 4; stroke-opacity: 1;"/>
    <path transform="matrix(0.638353, 0, 0, 0.619578, 56.163, 211.495)" d="M 238.54002 466.09964 A 3.9163287 4.0350051 0 1 1  230.70736,466.09964 A 3.9163287 4.0350051 0 1 1  238.54002 466.09964 z" sodipodi:ry="4.0350051" sodipodi:rx="3.9163287" sodipodi:cy="466.09964" sodipodi:cx="234.62369" id="path2822" style="fill: rgb(0, 0, 0); fill-opacity: 1; fill-rule: nonzero; stroke: none; stroke-width: 2; stroke-miterlimit: 4; stroke-dasharray: none; stroke-opacity: 1;" sodipodi:type="arc"/>
    <text sodipodi:linespacing="100%" id="text2824" y="482.726" x="219.821" style="font-style: normal; font-variant: normal; font-weight: normal; font-stretch: normal; fill: rgb(0, 0, 0); fill-opacity: 1; stroke: none; stroke-width: 1px; stroke-linecap: butt; stroke-linejoin: miter; stroke-opacity: 1; font-family: Arial; text-anchor: middle;" xml:space="preserve"><tspan style="font-family: Arial;" y="482.726" x="219.821" id="tspan2826" sodipodi:role="line">1</tspan></text>
    <path transform="matrix(0.638353, 0, 0, 0.619578, 111.163, 211.495)" d="M 238.54002 466.09964 A 3.9163287 4.0350051 0 1 1  230.70736,466.09964 A 3.9163287 4.0350051 0 1 1  238.54002 466.09964 z" sodipodi:ry="4.0350051" sodipodi:rx="3.9163287" sodipodi:cy="466.09964" sodipodi:cx="234.62369" id="path2830" style="fill: rgb(0, 0, 0); fill-opacity: 1; fill-rule: nonzero; stroke: none; stroke-width: 2; stroke-miterlimit: 4; stroke-dasharray: none; stroke-opacity: 1;" sodipodi:type="arc"/>
    <text sodipodi:linespacing="100%" id="text2832" y="482.726" x="274.5" style="font-style: normal; font-variant: normal; font-weight: normal; font-stretch: normal; fill: rgb(0, 0, 0); fill-opacity: 1; stroke: none; stroke-width: 1px; stroke-linecap: butt; stroke-linejoin: miter; stroke-opacity: 1; font-family: Arial; text-anchor: middle;" xml:space="preserve"><tspan style="font-family: Arial;" y="482.726" x="274.5" id="tspan2834" sodipodi:role="line">2</tspan></text>
    <g id="g1487" transform="matrix(1, 0, 0, 0.999945, -0.0154189, 0.0279127)">
      <path id="path14935" d="M 310.31948,461.23010 L 310.31948,539.32229 L 348.40672,539.32229 L 348.40672,461.23010 L 310.31948,461.23010 z " style="fill: none; fill-opacity: 1; fill-rule: nonzero; stroke: rgb(0, 0, 0); stroke-width: 1.91217; stroke-miterlimit: 4; stroke-opacity: 1;"/>
      <path id="rect2852" d="M 348.38136,461.22853 L 348.38136,539.32227 L 376.85011,555.32227 L 376.85011,465.22853 L 348.38136,461.22853 z " style="fill: url(&quot;#linearGradient1546&quot;) rgb(0, 0, 0); fill-opacity: 1; fill-rule: nonzero; stroke: rgb(0, 0, 0); stroke-width: 1.91157; stroke-miterlimit: 4; stroke-opacity: 1;"/>
      <path transform="matrix(0.419375, 0, 0, 0.693927, 273.493, 183.549)" d="M 238.54002 466.09964 A 3.9163287 4.0350051 0 1 1  230.70736,466.09964 A 3.9163287 4.0350051 0 1 1  238.54002 466.09964 z" sodipodi:ry="4.0350051" sodipodi:rx="3.9163287" sodipodi:cy="466.09964" sodipodi:cx="234.62369" id="path7665" style="fill: rgb(0, 0, 0); fill-opacity: 1; fill-rule: nonzero; stroke: none; stroke-width: 2; stroke-miterlimit: 4; stroke-opacity: 1;" sodipodi:type="arc"/>
      <g transform="translate(0, 3.74869)" id="g1367">
        <path style="fill: rgb(246, 246, 246); fill-opacity: 1; fill-rule: evenodd; stroke: rgb(0, 0, 0); stroke-width: 1px; stroke-linecap: butt; stroke-linejoin: miter; stroke-opacity: 1;" d="M 332.95900,485.88635 C 334.20872,479.63776 324.83583,479.01290 324.83583,479.01290 C 324.83583,479.01290 338.42651,475.21168 337.33301,488.17750 C 337.10945,490.82833 332.19918,489.68546 332.95900,485.88635 z " id="path14903" sodipodi:nodetypes="csss"/>
        <path sodipodi:nodetypes="ccccccccccccccccc" style="fill: url(&quot;#linearGradient1548&quot;) rgb(0, 0, 0); fill-opacity: 1; fill-rule: evenodd; stroke: rgb(0, 0, 0); stroke-width: 1px; stroke-linecap: butt; stroke-linejoin: miter; stroke-opacity: 1;" d="M 330.26550,484.18165 C 330.02749,484.24436 329.77240,484.48209 329.51550,484.68165 C 328.69629,485.31808 329.47247,485.87588 329.82800,486.24415 C 330.40808,486.84501 330.04222,486.95576 331.20300,486.77540 C 331.34946,486.25981 331.09693,485.42021 330.85925,484.68165 C 330.71432,484.23127 330.50351,484.11894 330.26550,484.18165 z M 332.54675,487.15040 C 325.88159,487.98354 324.22280,494.01522 319.64050,495.05665 C 315.05820,496.09808 310.89050,495.68165 310.89050,495.68165 L 311.11101,512.11544 C 311.11101,512.11544 315.03509,512.48228 317.32624,512.48228 C 317.32624,512.48228 318.45200,529.15759 317.98776,535.24369 C 320.85708,535.24369 319.20247,535.24369 322.10573,535.24369 C 320.56615,529.95513 321.72407,511.08733 322.76550,508.58790 C 323.80693,506.08846 329.13469,495.26999 330.89050,495.46290 C 332.08271,495.59389 332.32285,507.12090 338.36315,503.37175 C 343.28020,500.31979 339.21192,486.31725 332.54675,487.15040 z " id="path14002"/>
        <path sodipodi:type="arc" style="fill: url(&quot;#linearGradient1550&quot;) rgb(0, 0, 0); fill-opacity: 1; fill-rule: nonzero; stroke: rgb(0, 0, 0); stroke-width: 0.5; stroke-miterlimit: 4; stroke-opacity: 1;" id="path14004" sodipodi:cx="112.78703" sodipodi:cy="65.226349" sodipodi:rx="1.7704335" sodipodi:ry="1.8745767" d="M 114.55747 65.226349 A 1.7704335 1.8745767 0 1 1  111.01660,65.226349 A 1.7704335 1.8745767 0 1 1  114.55747 65.226349 z" transform="translate(224.025, 429.2)"/>
        <path sodipodi:type="arc" style="fill: rgb(0, 0, 0); fill-opacity: 1; fill-rule: nonzero; stroke: none; stroke-width: 0.5; stroke-miterlimit: 4; stroke-opacity: 1;" id="path14901" sodipodi:cx="105.80944" sodipodi:cy="86.888123" sodipodi:rx="0.41657260" sodipodi:ry="0.62485892" d="M 106.22601 86.888123 A 0.41657260 0.62485892 0 1 1  105.39287,86.888123 A 0.41657260 0.62485892 0 1 1  106.22601 86.888123 z" transform="matrix(1.80041, 0, 0, 1.20027, 146.666, 390.508)"/>
        <path style="fill: rgb(0, 0, 0); fill-opacity: 1; fill-rule: evenodd; stroke: none; stroke-width: 1px; stroke-linecap: butt; stroke-linejoin: miter; stroke-opacity: 1;" d="M 334.29001,503.82491 C 334.76206,504.33880 335.28480,505.06752 335.29890,505.77165 C 335.14225,506.67713 334.19512,507.21643 334.05792,508.12906 C 333.85908,509.18258 334.66043,510.34776 335.77085,510.47259 C 336.14844,510.47662 336.40770,509.92650 336.09017,509.68540 C 335.78776,509.44720 335.29368,509.51470 335.08000,509.15751 C 334.70121,508.62625 334.87075,507.86511 335.32624,507.43052 C 335.83144,506.78274 336.38292,506.05652 336.93308,505.21026 C 337.62534,504.18262 337.84425,503.84219 338.58770,502.96133 C 337.38860,503.61081 336.54174,504.13089 336.22516,504.06162 C 335.76099,504.00302 334.41744,503.83413 334.29001,503.82491 z " id="path6721" sodipodi:nodetypes="ccccccccccc"/>
      </g>
    </g>
  </g>
</svg>